<svg
  width="240px"
  height="320px"
  enable-background="new 0 0 200 200"
  version="1.1"
  viewBox="0 0 200 200"
  xmlns="http://www.w3.org/2000/svg"
>
  <path
    id="graasp-logo"
    d="m58.438 58.884c0.19013 0.16419 0.79508 0.62223 1.5642 0.58766 2.1087-0.08642 3.5778-3.5518 4.0963-4.7531 2.4975-5.7382 5.6519-11.148 8.8148-16.515 5.142-8.7371 9.679-18.572 23.471-35.787 5.4964-6.8704 4.4334-5.7384 11.001-11.563 3.3963-3.0161 7.0692-5.6173 11.278-7.2852 4.5111-1.789 9.0396-1.547 12.488 2.0136 3.4741 3.5864 2.0827 7.942 0.38888 12.012-1.2704 3.0678-2.8778 4.9865-5.6433 8.3482-1.9185 2.3333-2.6098 3.0938-4.0963 4.9087-1.8667 2.2729-4.416 5.7037-7.0606 10.414-10.258 18.581-17.535 32.295-18.927 35.337-0.44076 0.95927-1.1235 2.6877-0.62223 4.563 0.31975 1.1753 0.70306 2.1941 1.4691 2.463 1.7126 0.60111 3.5606-2.2556 4.4506-4.0531 12.799-25.702 15.236-34.101 33.531-56.035 4.0791-4.8914 9.221-11.451 13.775-15.892 3.2321-3.1543 6.8877-5.8419 11.027-7.7 5.0988-2.2901 11.511-1.737 14.043 1.4259 0.96789 1.2099 1.5468 2.4284 1.8321 3.6383 0.76049 3.2494-0.29383 6.3864-2.2987 9.8347-3.6901 6.3346-8.426 10.206-9.8692 11.425-4.3037 3.6297-8.0197 8.9531-15.444 19.6-13.369 19.159-20.265 40.765-17.275 42.777 0.0949 0.06912 0.45801 0.27655 0.91604 0.26791 2.437-0.05185 4.1049-6.2568 4.6062-7.9852 0.74321-2.5581 4.9087-10.033 13.24-24.985 5.142-9.221 8.3742-15.02 14.354-21.717 5.9025-6.6024 13.888-15.451 21.64-13.698 3.5086 0.79508 6.7149 3.768 7.8902 7.242 0.42345 1.2445 1.3222 4.3556-1.0284 10.344-2.8952 7.3543-7.3371 10.604-11.658 15.408-3.1457 3.5-5.9802 8.8754-11.649 19.626-4.0963 7.7692-9.0656 18.217-13.75 31.112-0.38026 1.2617-1.3827 4.805-4.3728 6.7235-3.9321 2.5235-8.9877 0.89015-10.906 0.3457-11.191-3.1803-23.109-0.05185-31.526 2.1605 0 0-17.897 4.7012-30.54 20.067-4.7877 5.8075-7.7346 11.978-8.2013 12.998-1.7802 3.9062-3.8285 8.8494-4.5285 15.677-1.3827 13.542 4.0791 23.86 15.149 31.319 18.174 12.237 45.561 9.3765 58.886-3.3704 2.1692-2.0741 6.8618-6.5593 6.326-12.211-0.4062-4.2691-3.716-8.4605-7.8211-10.077-7.2334-2.8518-11.537 4.4248-24.405 5.0814-4.7099 0.242-12.272 0.63089-16.722-4.658-5.1333-6.1099-1.8581-15.806-1.6593-16.385 1.5642-4.4939 4.3988-7.3026 5.937-8.6248 4.3988-3.0247 13.654-8.5123 26.487-9.6359 5.721-0.50124 17.301-1.5382 28.544 5.5568 16.1 10.172 18.813 28.58 19.116 30.895 2.9297 22.339-13.144 39.113-19.643 45.881-13.309 13.87-28.311 18.598-36.755 21.147-7.5012 2.2642-30.619 8.8754-57.141-0.84693-16.826-6.1704-27.109-16.023-29.366-18.217-6.9481-6.7753-12.635-14.786-16.808-23.679-1.8581-3.9666-6.0753-13.698-7.8037-29.608-4.1568-38.259 8.4691-75.333 22.72-95.978 5.531-8.0197 16.083-24.007 20.801-28.856 2.8692-2.9469 6.4384-7.0778 15.59-12.229 2.7827-1.5642 5.6778-2.9643 8.8494-3.2666 2.3075-0.21605 4.0272 0.43209 4.9951 1.7025 1.0716 1.4086 1.0284 3.3618 0.57038 5.3494-1.8407 7.9939-10.206 17.966-15.746 27.188-5.0988 8.4691-8.9099 18.148-6.5852 20.171z"
    fill="none"
    stroke="#000"
    stroke-width="3.3333"
  />
</svg>
