<svg xmlns="http://www.w3.org/2000/svg" viewBox="0 0 189 130" width="189" height="130">
	<style>
		tspan { white-space:pre }
		.shp0 { fill: #ffffff } 
	</style>
	<g id="Layer_x0020_1">
		<path id="Layer" class="shp0" d="M36.59 100.02C36.59 109.73 33.72 124.64 45.17 129.1C51.62 131.61 59.14 128.69 62.19 122.43C63.44 119.81 63.49 117 63.49 114.2C63.49 92.27 63.49 70.33 63.49 48.46C63.49 40.83 63.49 33.2 63.49 25.57C63.49 24.26 61.41 24.26 61.41 25.57C61.41 41.73 61.41 57.82 61.41 73.97C61.41 84.46 61.41 94.95 61.41 105.5C61.41 111.76 62.78 120.34 57.71 125C53.41 128.93 46.67 128.93 42.37 125C39.45 122.31 38.67 118.86 38.67 115.1C38.61 110.09 38.67 105.08 38.67 100.02C38.67 98.7 36.59 98.7 36.59 100.02L36.59 100.02Z" />
		<path id="Layer" class="shp0" d="M36.59 25.51C36.59 29.63 36.59 33.8 36.59 37.91C36.59 39.22 38.67 39.22 38.67 37.91C38.67 33.8 38.67 29.63 38.67 25.51C38.67 24.2 36.59 24.2 36.59 25.51L36.59 25.51Z" />
		<path id="Layer" class="shp0" d="M36.59 62.77C36.59 66.88 36.59 71.05 36.59 75.17C36.59 76.47 38.67 76.47 38.67 75.17C38.67 71.05 38.67 66.88 38.67 62.77C38.67 61.45 36.59 61.45 36.59 62.77L36.59 62.77Z" />
		<path id="Layer" class="shp0" d="M62.48 26.59C70.95 26.59 79.55 26.88 88.03 26.59C94.29 26.34 99.84 22.47 101.28 16.16C102.77 9.6 99.13 2.8 92.8 0.47C90.83 -0.24 88.62 -0.41 86.47 -0.41C85.1 -0.41 83.73 -0.36 82.36 -0.36C76.44 -0.36 70.54 -0.36 64.63 -0.36C58.48 -0.36 52.34 -0.36 46.25 -0.36C35.87 -0.36 25.43 -0.41 15.04 -0.36C5.73 -0.3 0.12 5.9 0.12 15.02C0.12 35.47 0.12 55.97 0.12 76.42C0.12 78.5 0 80.77 0 82.97C0 89.64 0.83 96.38 7.7 99.72C12.12 101.86 17.96 101.03 22.73 101.03C27.69 101.03 32.65 101.03 37.59 101.03C38.91 101.03 38.91 98.94 37.59 98.94C29.78 98.94 21.96 99.13 14.14 98.94C7.4 98.77 2.44 94.23 2.21 87.38C2.15 85.3 2.21 83.21 2.21 81.13C2.21 61.69 2.21 42.2 2.21 22.77C2.21 15.26 0.83 5.67 9.67 2.44C12.83 1.25 16.71 1.73 20.05 1.73C25.18 1.73 30.38 1.73 35.51 1.73C50.66 1.73 65.89 1.73 81.05 1.73C84.8 1.73 89.45 1.14 92.98 2.8C104.14 7.99 99.72 24.08 88.03 24.5C79.55 24.8 70.95 24.5 62.48 24.5C61.17 24.5 61.17 26.59 62.48 26.59L62.48 26.59Z" />
		<path id="Layer" class="shp0" d="M37.59 24.5C33.72 24.5 29.84 24.5 26.02 24.5C25.48 24.5 25 24.98 25 25.51C25 29.63 25 33.8 25 37.91C25 38.45 25.48 38.92 26.02 38.92C29.9 38.92 33.78 38.92 37.59 38.92C38.91 38.92 38.91 36.84 37.59 36.84C33.72 36.84 29.84 36.84 26.02 36.84C26.38 37.2 26.73 37.55 27.04 37.85C27.04 33.73 27.04 29.57 27.04 25.45C26.68 25.81 26.32 26.16 26.02 26.46C29.9 26.46 33.78 26.46 37.59 26.46C38.91 26.46 38.91 24.38 37.59 24.38L37.59 24.38L37.59 24.5Z" />
		<path id="Layer" class="shp0" d="M37.59 61.75C33.72 61.75 29.84 61.75 26.02 61.75C25.48 61.75 25 62.23 25 62.77C25 66.88 25 71.05 25 75.17C25 75.7 25.48 76.17 26.02 76.17C29.9 76.17 33.78 76.17 37.59 76.17C38.91 76.17 38.91 74.09 37.59 74.09C33.72 74.09 29.84 74.09 26.02 74.09C26.38 74.45 26.73 74.81 27.04 75.11C27.04 70.99 27.04 66.82 27.04 62.7C26.68 63.06 26.32 63.42 26.02 63.72C29.9 63.72 33.78 63.72 37.59 63.72C38.91 63.72 38.91 61.63 37.59 61.63L37.59 61.63L37.59 61.75Z" />
		<path id="Layer" class="shp0" d="M37.59 63.84C45.23 63.84 51.86 58.35 51.92 50.37C51.98 42.38 45.23 36.9 37.59 36.9C36.28 36.9 36.28 38.98 37.59 38.98C44.1 38.98 49.83 43.51 49.83 50.37C49.83 57.22 44.1 61.75 37.59 61.75C36.28 61.75 36.28 63.84 37.59 63.84L37.59 63.84Z" />
		<path id="Layer" class="shp0" d="M37.59 38.98C38.91 38.98 38.91 36.9 37.59 36.9C36.28 36.9 36.28 38.98 37.59 38.98L37.59 38.98Z" />
		<path id="Layer" class="shp0" d="M37.59 63.84C38.91 63.84 38.91 61.75 37.59 61.75C36.28 61.75 36.28 63.84 37.59 63.84L37.59 63.84Z" />
		<path id="Layer" class="shp0" d="M37.59 76.23C38.91 76.23 38.91 74.15 37.59 74.15C36.28 74.15 36.28 76.23 37.59 76.23L37.59 76.23Z" />
		<path id="Layer" class="shp0" d="M37.59 101.09C38.91 101.09 38.91 99 37.59 99C36.28 99 36.28 101.09 37.59 101.09L37.59 101.09Z" />
		<path id="Layer" class="shp0" d="M38.67 100.02C38.67 91.73 38.67 83.45 38.67 75.17C38.67 73.85 36.59 73.85 36.59 75.17C36.59 83.45 36.59 91.73 36.59 100.02C36.59 101.33 38.67 101.33 38.67 100.02C38.67 91.73 38.67 83.45 38.67 75.17C38.67 73.85 36.59 73.85 36.59 75.17C36.59 83.45 36.59 91.73 36.59 100.02C36.59 101.33 38.67 101.33 38.67 100.02Z" />
		<path id="Layer" class="shp0" d="M37.59 26.59C45.89 26.59 54.19 26.59 62.48 26.59C63.8 26.59 63.8 24.5 62.48 24.5C54.19 24.5 45.89 24.5 37.59 24.5C36.28 24.5 36.28 26.59 37.59 26.59L37.59 26.59Z" />
		<path id="Layer" class="shp0" d="M72.57 41.73C73.53 42.5 74.54 43.16 76.09 43.16C77.82 43.16 78.72 42.14 78.72 40.95C78.72 39.58 77.28 38.98 76.03 38.51C74.36 37.91 72.51 37.26 72.51 35.34C72.51 33.73 73.76 32.37 76.09 32.37C77.28 32.37 78.42 32.84 79.25 33.5L78.72 34.22C78 33.67 77.17 33.2 76.03 33.2C74.3 33.2 73.53 34.22 73.53 35.23C73.53 36.48 74.83 36.95 76.15 37.49C77.88 38.15 79.79 38.74 79.79 40.89C79.79 42.56 78.47 43.99 76.03 43.99C74.42 43.99 72.98 43.27 71.97 42.44L72.57 41.66L72.57 41.73Z" />
		<path id="Layer" class="shp0" d="M81.16 32.66L82.3 32.66L84.27 39.81C84.56 40.83 84.8 41.78 85.04 42.8L85.16 42.8C85.4 41.78 85.7 40.83 86 39.81L88.03 32.66L89.28 32.66L91.31 39.81C91.61 40.83 91.84 41.78 92.14 42.8L92.26 42.8C92.5 41.78 92.8 40.83 93.04 39.81L95 32.66L96.02 32.66L92.86 43.75L91.55 43.75L89.58 36.9C89.28 35.83 89.04 34.81 88.74 33.73L88.62 33.73C88.39 34.81 88.08 35.88 87.72 36.95L85.81 43.81L84.56 43.81L81.28 32.73L81.16 32.66Z" />
		<path id="Layer" class="shp0" d="M98.53 32.66L99.55 32.66L99.55 43.75L98.53 43.75L98.53 32.66ZM98.11 29.09C98.11 28.49 98.53 28.2 99.06 28.2C99.6 28.2 99.96 28.55 99.96 29.09C99.96 29.63 99.55 29.98 99.06 29.98C98.53 29.98 98.11 29.63 98.11 29.09Z" />
		<path id="Layer" class="shp0" d="M103.06 41.73C104.02 42.5 105.03 43.16 106.58 43.16C108.31 43.16 109.21 42.14 109.21 40.95C109.21 39.58 107.78 38.98 106.53 38.51C104.86 37.91 103 37.26 103 35.34C103 33.73 104.25 32.37 106.58 32.37C107.78 32.37 108.91 32.84 109.75 33.5L109.21 34.22C108.5 33.67 107.66 33.2 106.53 33.2C104.8 33.2 104.02 34.22 104.02 35.23C104.02 36.48 105.33 36.95 106.64 37.49C108.38 38.15 110.28 38.74 110.28 40.89C110.28 42.56 108.97 43.99 106.53 43.99C104.92 43.99 103.48 43.27 102.47 42.44L103.06 41.66L103.06 41.73Z" />
		<path id="Layer" class="shp0" d="M112.44 41.73C113.39 42.5 114.41 43.16 115.95 43.16C117.69 43.16 118.58 42.14 118.58 40.95C118.58 39.58 117.15 38.98 115.89 38.51C114.22 37.91 112.38 37.26 112.38 35.34C112.38 33.73 113.63 32.37 115.95 32.37C117.15 32.37 118.28 32.84 119.11 33.5L118.58 34.22C117.86 33.67 117.03 33.2 115.89 33.2C114.17 33.2 113.39 34.22 113.39 35.23C113.39 36.48 114.7 36.95 116.02 37.49C117.75 38.15 119.66 38.74 119.66 40.89C119.66 42.56 118.34 43.99 115.89 43.99C114.28 43.99 112.85 43.27 111.83 42.44L112.44 41.66L112.44 41.73Z" />
		<path id="Layer" class="shp0" d="M72.27 48.99L87.19 48.99L87.19 51.8L75.55 51.8L75.55 59.91L85.4 59.91L85.4 62.77L75.55 62.77L75.55 72.18L87.61 72.18L87.61 74.98L72.27 74.98L72.27 48.99Z" />
		<path id="Layer" fill-rule="evenodd" class="shp0" d="M99.72 55.26C101.93 55.26 103.42 56.09 105.09 57.46L104.92 54.18L104.92 46.79L108.19 46.79L108.19 74.98L105.51 74.98L105.21 72.72L105.09 72.72C103.6 74.21 101.51 75.46 99.25 75.46C94.41 75.46 91.31 71.83 91.31 65.39C91.31 59.13 95.25 55.26 99.66 55.26L99.72 55.26ZM100.02 72.72C101.81 72.72 103.36 71.83 104.92 70.09L104.92 60.02C103.3 58.53 101.81 57.99 100.26 57.99C97.16 57.99 94.71 60.98 94.71 65.39C94.71 69.97 96.68 72.72 100.02 72.72Z" />
		<path id="Layer" class="shp0" d="M120.37 51.8L112.44 51.8L112.44 48.99L131.53 48.99L131.53 51.8L123.66 51.8L123.66 74.98L120.37 74.98L120.37 51.8Z" />
		<path id="Layer" fill-rule="evenodd" class="shp0" d="M140.36 55.26C145.25 55.26 148.06 58.77 148.06 64.25C148.06 64.91 148 65.56 147.94 66.05L134.93 66.05C135.17 70.22 137.68 72.84 141.38 72.84C143.22 72.84 144.72 72.24 146.15 71.35L147.28 73.5C145.62 74.56 143.59 75.46 140.96 75.46C135.82 75.46 131.71 71.7 131.71 65.39C131.71 59.07 135.94 55.26 140.36 55.26ZM145.19 63.9C145.19 59.97 143.47 57.82 140.42 57.82C137.74 57.82 135.29 60.02 134.87 63.9L145.19 63.9Z" />
		<path id="Layer" class="shp0" d="M160.66 55.26C163.22 55.26 164.95 56.33 166.26 57.58L164.65 59.66C163.52 58.65 162.32 57.94 160.77 57.94C157.31 57.94 154.75 60.91 154.75 65.39C154.75 69.8 157.19 72.78 160.72 72.78C162.56 72.78 164.06 71.89 165.25 70.81L166.74 72.95C165.01 74.5 162.8 75.46 160.47 75.46C155.34 75.46 151.47 71.77 151.47 65.39C151.47 58.95 155.76 55.26 160.72 55.26L160.66 55.26Z" />
		<path id="Layer" class="shp0" d="M170.86 46.79L174.08 46.79L174.08 54.48L173.96 58.41C175.81 56.69 177.72 55.26 180.41 55.26C184.47 55.26 186.25 57.88 186.25 62.77L186.25 74.98L183.03 74.98L183.03 63.24C183.03 59.66 181.9 58.12 179.39 58.12C177.42 58.12 176.05 59.13 174.14 61.09L174.14 75.05L170.92 75.05L170.92 46.85L170.86 46.79Z" />
		<path id="Layer" class="shp0" d="M80.09 81.13C82.23 81.13 83.84 82.19 84.8 83.33L84.03 84.17C83.01 83.03 81.7 82.31 80.03 82.31C76.03 82.31 73.53 85.47 73.53 90.54C73.53 95.61 75.97 98.89 79.91 98.89C81.82 98.89 83.19 98.11 84.56 96.62L85.34 97.39C83.97 99 82.3 100.02 79.91 100.02C75.44 100.02 72.27 96.33 72.27 90.54C72.27 84.76 75.44 81.13 80.09 81.13Z" />
		<path id="Layer" fill-rule="evenodd" class="shp0" d="M88.27 90.48C88.27 84.7 91.42 81.06 95.78 81.06C100.14 81.06 103.3 84.7 103.3 90.48C103.3 96.27 100.14 100.02 95.78 100.02C91.36 100.02 88.27 96.27 88.27 90.48ZM101.99 90.48C101.99 85.42 99.48 82.25 95.78 82.25C92.08 82.25 89.58 85.42 89.58 90.48C89.58 95.55 92.08 98.83 95.78 98.83C99.48 98.83 101.99 95.55 101.99 90.48Z" />
		<path id="Layer" class="shp0" d="M108.61 81.42L109.86 81.42L109.86 98.59L118.28 98.59L118.28 99.72L108.61 99.72L108.61 81.42Z" />
		<path id="Layer" class="shp0" d="M122.58 81.42L123.89 81.42L123.89 98.59L132.31 98.59L132.31 99.72L122.58 99.72L122.58 81.42Z" />
		<path id="Layer" class="shp0" d="M136.6 99.72L137.91 99.72L137.91 81.42L136.6 81.42L136.6 99.72Z" />
		<path id="Layer" fill-rule="evenodd" class="shp0" d="M144.36 81.48L148.6 81.48C154.21 81.48 156.9 85 156.9 90.54C156.9 96.08 154.21 99.72 148.6 99.72L144.36 99.72L144.36 81.48ZM148.42 98.64C153.37 98.64 155.52 95.31 155.52 90.54C155.52 85.83 153.37 82.56 148.42 82.56L145.62 82.56L145.62 98.64L148.42 98.64Z" />
		<path id="Layer" class="shp0" d="M162.21 81.42L172.17 81.42L172.17 82.56L163.46 82.56L163.46 89.47L170.8 89.47L170.8 90.54L163.46 90.54L163.46 98.59L172.47 98.59L172.47 99.72L162.21 99.72L162.21 81.42Z" />
		<path id="Layer" fill-rule="evenodd" class="shp0" d="M187.63 99.66L182.68 91.25L178.79 91.25L178.79 99.66L177.54 99.66L177.54 81.42L182.74 81.42C186.38 81.42 188.76 82.73 188.76 86.25C188.76 89.17 186.91 90.78 184.04 91.19L189.06 99.66L187.63 99.66ZM182.38 90.25C185.6 90.25 187.39 88.93 187.39 86.25C187.39 83.51 185.6 82.5 182.38 82.5L178.79 82.5L178.79 90.25L182.38 90.25Z" />
	</g>
</svg>