<svg
  viewBox="0 0 799 241"
  fill="none"
  xmlns="http://www.w3.org/2000/svg"
  height="100%"
  width="100%"
>
  <path
    d="M167.806 0H107V112H129.419V72.16H167.323C192.323 72.16 207 57.92 207 36C207 14.4 192.161 0 167.806 0ZM165.387 52.32H129.419V19.84H165.871C177.161 19.84 183.452 26.4 183.452 36C183.452 45.76 177.484 52.32 165.387 52.32Z"
    fill="black"
  />
  <path
    d="M22.3086 92.16V64.96H80.2469V45.44H22.3086V19.84H89.3951V0H0V112H91V92.16H22.3086Z"
    fill="black"
  />
  <path
    d="M90 148.8V128H0V240H22.8191V196.64H81.2234V176.8H22.8191V148.8H90Z"
    fill="black"
  />
  <path d="M129.309 219.52V128H107L107 240H198V219.52H129.309Z" fill="black" />
  <path d="M255.105 64.1632H240V143.861H255.105V64.1632Z" fill="black" />
  <path
    d="M269.242 143.861H283.889V113.007C283.889 102.874 290.069 98.4335 297.049 98.4335C303.915 98.4335 309.294 102.988 309.294 112.324V143.861H323.941V109.364C323.941 94.4486 315.244 85.7956 301.626 85.7956C293.044 85.7956 288.238 89.2113 284.805 93.6516H283.889L282.63 86.9342H269.242V143.861Z"
    fill="black"
  />
  <path
    d="M336.516 143.861H351.164V113.007C351.164 102.874 357.343 98.4335 364.324 98.4335C371.19 98.4335 376.568 102.988 376.568 112.324V143.861H391.216V109.364C391.216 94.4486 382.519 85.7956 368.901 85.7956C360.319 85.7956 355.512 89.2113 352.079 93.6516H351.164L349.905 86.9342H336.516V143.861Z"
    fill="black"
  />
  <path
    d="M432.4 145C449.679 145 462.611 132.931 462.611 115.284C462.611 97.8642 449.565 85.7956 432.4 85.7956C415.235 85.7956 402.189 97.7503 402.189 115.284C402.189 132.818 415.349 145 432.4 145ZM432.4 132.362C423.016 132.362 416.837 124.848 416.837 115.284C416.837 105.834 423.016 98.4335 432.4 98.4335C441.783 98.4335 448.077 105.834 448.077 115.284C448.077 124.848 441.898 132.362 432.4 132.362Z"
    fill="black"
  />
  <path
    d="M491.257 143.861H508.765L530.622 86.9342H515.631L500.64 128.719H499.725L484.505 86.9342H469.4L491.257 143.861Z"
    fill="black"
  />
  <path
    d="M591.883 132.931C589.136 132.931 587.763 131.565 587.763 128.605V107.77C587.763 92.513 576.892 85.7956 563.503 85.7956C548.856 85.7956 539.701 94.107 538.556 105.948H553.204C554.12 100.824 557.324 97.4088 563.503 97.4088C569.11 97.4088 573.116 100.483 573.116 106.745V109.136L555.264 110.957C544.736 111.982 536.382 117.333 536.382 128.263C536.382 139.535 544.965 145 556.637 145C565.677 145 571.628 141.926 575.519 137.03C577.464 142.267 581.698 143.861 587.077 143.861H593.256V132.931H591.883ZM573.116 121.888C573.116 130.882 565.334 133.842 559.155 133.842C554.577 133.842 551.03 132.248 551.03 127.694C551.03 123.254 555.035 121.091 560.299 120.521L573.116 119.155V121.888Z"
    fill="black"
  />
  <path
    d="M627.114 145C631.234 145 634.667 144.317 637.185 143.748V132.704C635.468 133.159 633.294 133.501 631.577 133.501C624.711 133.501 623.91 129.63 623.91 126.442V98.4335H638.901V86.9342H623.91V71.4499H610.636V78.2812C610.636 84.4294 607.889 86.9342 600.909 86.9342H597.018V98.4335H609.263V128.377C609.263 134.639 611.093 145 627.114 145Z"
    fill="black"
  />
  <path
    d="M654.4 79.6475C659.206 79.6475 663.211 75.5487 663.211 70.8807C663.211 65.8711 659.206 62 654.4 62C649.594 62 645.359 65.8711 645.359 70.8807C645.359 75.5487 649.594 79.6475 654.4 79.6475ZM647.076 143.861H661.724V86.9342H647.076V143.861Z"
    fill="black"
  />
  <path
    d="M702.952 145C720.232 145 733.163 132.931 733.163 115.284C733.163 97.8642 720.117 85.7956 702.952 85.7956C685.787 85.7956 672.741 97.7503 672.741 115.284C672.741 132.818 685.901 145 702.952 145ZM702.952 132.362C693.568 132.362 687.389 124.848 687.389 115.284C687.389 105.834 693.568 98.4335 702.952 98.4335C712.336 98.4335 718.63 105.834 718.63 115.284C718.63 124.848 712.45 132.362 702.952 132.362Z"
    fill="black"
  />
  <path
    d="M744.3 143.861H758.948V113.007C758.948 102.874 765.128 98.4335 772.108 98.4335C778.974 98.4335 784.352 102.988 784.352 112.324V143.861H799V109.364C799 94.4486 790.303 85.7956 776.685 85.7956C768.103 85.7956 763.297 89.2113 759.863 93.6516H758.948L757.689 86.9342H744.3V143.861Z"
    fill="black"
  />
  <path
    d="M272.111 160.139H240V239.861H254.627V210.819H271.654C288.338 210.819 298.851 200.797 298.851 185.422C298.851 170.503 288.566 160.139 272.111 160.139ZM270.168 197.722H254.627V173.236H270.511C278.624 173.236 283.424 178.019 283.424 185.422C283.424 192.825 278.967 197.722 270.168 197.722Z"
    fill="black"
  />
  <path
    d="M363.957 228.928C361.215 228.928 359.843 227.561 359.843 224.6V203.758C359.843 188.497 348.987 181.778 335.617 181.778C320.99 181.778 311.848 190.092 310.706 201.936H325.333C326.247 196.811 329.447 193.394 335.617 193.394C341.217 193.394 345.216 196.469 345.216 202.733V205.125L327.39 206.947C316.877 207.972 308.535 213.325 308.535 224.258C308.535 235.533 317.105 241 328.761 241C337.789 241 343.731 237.925 347.616 233.028C349.559 238.267 353.787 239.861 359.158 239.861H365.328V228.928H363.957ZM345.216 217.881C345.216 226.878 337.446 229.839 331.275 229.839C326.704 229.839 323.162 228.244 323.162 223.689C323.162 219.247 327.161 217.083 332.418 216.514L345.216 215.147V217.881Z"
    fill="black"
  />
  <path
    d="M373.542 239.861H388.169V213.325C388.169 205.125 391.483 195.9 404.053 195.9C406.11 195.9 408.167 196.014 410.224 196.356V181.778H406.11C396.511 181.778 392.626 185.308 389.083 191.003H388.169L386.798 182.917H373.542V239.861Z"
    fill="black"
  />
  <path
    d="M472 182.917H454.402L433.833 202.619H432.918V159H418.291V239.861H432.918V220.842L438.861 215.147L455.887 239.861H472L448.688 205.581L472 182.917Z"
    fill="black"
  />
</svg>
