<svg xmlns="http://www.w3.org/2000/svg" viewBox="0 0 336 260" width="336" height="260">
	<style>
		tspan { white-space:pre }
		.shp0 { fill: #000000 } 
		.shp1 { fill: #f0f0f0 } 
		.shp2 { fill: #515151 } 
		.shp3 { fill: #ffffff } 
		.shp4 { fill: #1e1e1e } 
		.shp5 { fill: #242424 } 
		.shp6 { fill: #1c1c1c } 
	</style>
	<g id="surface1">
		<path id="Layer" class="shp0" d="M77.57 59.29L125.89 48.34L77.57 37.39" />
		<path id="Layer" fill-rule="evenodd" class="shp1" d="M102.3 48.67L122.95 48.57L101.85 53.19M101.85 43.54L122.95 48.14L102.3 48.04" />
		<path id="Layer" class="shp0" d="M92.04 26.63C91.99 26.37 91.96 25.86 92.11 24.74C92.24 23.88 92.78 23.12 93.35 22.25C93.99 21.34 94.66 20.37 94.86 19.15C95.09 17.98 94.86 16.91 94.61 15.95C94.32 14.73 94.04 13.51 94.55 11.83C95.5 8.78 98.1 7.2 98.13 7.2L98.66 6.9L98.1 6.64C95.86 5.73 92.86 6.59 91.11 8.68C90.22 9.8 89.86 11.32 89.5 12.79C89.19 14.07 88.88 15.29 88.29 16.15C87.75 16.91 87.01 17.42 86.14 17.98C85.06 18.69 83.75 19.56 82.41 21.29L66.64 48.33" />
		<path id="Layer" class="shp0" d="M88.55 48.34L77.6 0.03L66.64 48.34" />
		<path id="Layer" class="shp1" d="M82.45 24.07L77.82 2.97L77.92 23.62M77.3 23.62L77.4 2.97L72.8 24.07" />
		<path id="Layer" class="shp1" d="M90.75 27.45L91.47 26.97C91.37 26.66 91.29 26.22 91.5 24.64C91.65 23.68 92.2 22.81 92.82 21.89C93.41 21.03 94.04 20.11 94.25 19.05C94.45 17.98 94.25 17.06 94.02 16.1C93.71 14.77 93.41 13.45 93.97 11.62C94.74 9.23 96.4 7.71 97.27 7.05C95.37 6.59 92.98 7.42 91.6 9.1C90.77 10.06 90.46 11.52 90.1 12.95C89.79 14.22 89.46 15.53 88.8 16.5C88.18 17.36 87.39 17.89 86.47 18.5C85.29 19.31 83.96 20.16 82.62 22.1L83.07 24.25" />
		<path id="Layer" class="shp0" d="M103.16 43.2C103.3 42.98 103.64 42.61 104.54 41.93C105.24 41.4 106.16 41.25 107.18 41.04C108.28 40.84 109.43 40.63 110.44 39.91C111.43 39.25 112.02 38.33 112.52 37.46C113.18 36.4 113.85 35.34 115.4 34.52C118.23 33.03 121.18 33.75 121.19 33.77L121.79 33.93L121.57 33.36C120.64 31.13 117.9 29.62 115.2 29.86C113.77 30.01 112.44 30.84 111.14 31.63C110.02 32.3 108.94 32.95 107.91 33.14C106.99 33.3 106.11 33.14 105.09 32.91C103.83 32.66 102.29 32.34 100.13 32.62L69.85 40.59" />
		<path id="Layer" class="shp0" d="M85.33 56.09L111.75 14.19L69.84 40.61" />
		<path id="Layer" class="shp1" d="M98.18 34.61L109.83 16.42L95.3 31.09M94.86 30.65L109.53 16.12L91.36 27.79" />
		<path id="Layer" class="shp1" d="M101.66 42.87L102.51 43.05C102.65 42.76 102.91 42.39 104.17 41.42C104.96 40.84 105.97 40.62 107.05 40.41C108.09 40.22 109.18 40.01 110.08 39.4C110.98 38.79 111.48 38 112 37.16C112.72 36.01 113.44 34.85 115.13 33.96C117.37 32.81 119.62 32.91 120.7 33.06C119.68 31.39 117.41 30.29 115.24 30.5C113.97 30.6 112.71 31.4 111.46 32.16C110.34 32.84 109.18 33.54 108.03 33.75C106.98 33.92 106.05 33.74 104.97 33.52C103.56 33.26 102.01 32.92 99.7 33.34L98.5 35.18" />
		<path id="Layer" class="shp0" d="M55.88 33.88C55.63 33.93 55.12 33.96 54 33.8C53.13 33.68 52.37 33.14 51.5 32.57C50.59 31.93 49.63 31.27 48.41 31.06C47.23 30.83 46.17 31.06 45.2 31.32C43.98 31.6 42.76 31.88 41.08 31.37C38.03 30.42 36.46 27.82 36.46 27.8L36.15 27.26L35.9 27.82C34.98 30.06 35.85 33.06 37.93 34.8C39.05 35.7 40.57 36.06 42.05 36.42C43.32 36.73 44.54 37.04 45.41 37.63C46.17 38.17 46.68 38.91 47.23 39.79C47.95 40.86 48.81 42.17 50.54 43.51L77.59 59.28" />
		<path id="Layer" class="shp0" d="M77.6 37.38L29.29 48.32L77.6 59.27" />
		<path id="Layer" fill-rule="evenodd" class="shp1" d="M52.88 48L32.23 48.1L53.32 43.48M53.32 53.13L32.23 48.52L52.88 48.63" />
		<path id="Layer" class="shp1" d="M56.7 35.18L56.23 34.45C55.92 34.55 55.48 34.63 53.9 34.43C52.93 34.27 52.07 33.72 51.15 33.1C50.29 32.51 49.37 31.88 48.3 31.68C47.23 31.47 46.32 31.67 45.35 31.9C44.03 32.21 42.71 32.52 40.88 31.95C38.48 31.18 36.96 29.52 36.3 28.65C35.84 30.55 36.67 32.94 38.35 34.32C39.32 35.15 40.78 35.46 42.2 35.82C43.47 36.13 44.79 36.46 45.75 37.13C46.61 37.74 47.14 38.53 47.75 39.45C48.56 40.63 49.42 41.96 51.35 43.3L53.5 42.85" />
		<path id="Layer" class="shp0" d="M72.45 22.77C72.24 22.62 71.86 22.28 71.18 21.38C70.66 20.68 70.5 19.76 70.29 18.75C70.09 17.64 69.88 16.49 69.17 15.48C68.5 14.49 67.59 13.9 66.72 13.4C65.66 12.73 64.59 12.07 63.77 10.52C62.29 7.7 63.01 4.75 63.02 4.73L63.19 4.13L62.61 4.35C60.38 5.28 58.87 8.02 59.11 10.73C59.27 12.15 60.09 13.48 60.88 14.78C61.56 15.9 62.21 16.98 62.4 18.01C62.56 18.93 62.39 19.81 62.17 20.83C61.91 22.09 61.6 23.63 61.88 25.8L69.85 56.07" />
		<path id="Layer" class="shp0" d="M85.35 40.59L43.44 14.17L69.86 56.08" />
		<path id="Layer" class="shp2" d="M63.87 27.74L45.68 16.09L60.35 30.63M59.91 31.07L45.38 16.39L57.04 34.57" />
		<path id="Layer" class="shp2" d="M72.12 24.26L72.3 23.41C72.01 23.27 71.64 23.01 70.67 21.75C70.1 20.96 69.88 19.95 69.66 18.87C69.47 17.84 69.27 16.75 68.66 15.84C68.05 14.95 67.26 14.44 66.41 13.92C65.26 13.2 64.11 12.48 63.21 10.79C62.07 8.55 62.16 6.3 62.31 5.22C60.64 6.24 59.54 8.52 59.75 10.68C59.85 11.95 60.66 13.21 61.41 14.46C62.09 15.58 62.79 16.74 63 17.89C63.18 18.94 62.99 19.87 62.77 20.95C62.51 22.36 62.17 23.91 62.59 26.22L64.43 27.42" />
		<path id="Layer" class="shp0" d="M72.45 22.77C72.24 22.62 71.86 22.28 71.18 21.38C70.66 20.68 70.5 19.76 70.29 18.75C70.09 17.64 69.88 16.49 69.17 15.48C68.5 14.49 67.59 13.9 66.72 13.4C65.66 12.73 64.59 12.07 63.77 10.52C62.29 7.7 63.01 4.75 63.02 4.73L63.19 4.13L62.61 4.35C60.38 5.28 58.87 8.02 59.11 10.73C59.27 12.15 60.09 13.48 60.88 14.78C61.56 15.9 62.21 16.98 62.4 18.01C62.56 18.93 62.39 19.81 62.17 20.83C61.91 22.09 61.6 23.63 61.88 25.8L69.85 56.07" />
		<path id="Layer" class="shp0" d="M85.35 40.59L43.44 14.17L69.86 56.08" />
		<path id="Layer" class="shp1" d="M63.87 27.74L45.68 16.09L60.35 30.63M59.91 31.07L45.38 16.39L57.04 34.57" />
		<path id="Layer" class="shp1" d="M72.12 24.26L72.3 23.41C72.01 23.27 71.64 23.01 70.67 21.75C70.1 20.96 69.88 19.95 69.66 18.87C69.47 17.84 69.27 16.75 68.66 15.84C68.05 14.95 67.26 14.44 66.41 13.92C65.26 13.2 64.11 12.48 63.21 10.79C62.07 8.55 62.16 6.3 62.31 5.22C60.64 6.24 59.54 8.52 59.75 10.68C59.85 11.95 60.66 13.21 61.41 14.46C62.09 15.58 62.79 16.74 63 17.89C63.18 18.94 62.99 19.87 62.77 20.95C62.51 22.36 62.17 23.91 62.59 26.22L64.43 27.42" />
		<path id="Layer" class="shp3" d="M73.77 247.57C73.77 247.57 73.95 247.76 73.95 247.87L73.95 257.57C73.95 257.67 73.77 257.9 73.77 257.9L80.05 257.9L80.05 256.67C80.05 256.67 79.83 256.85 79.72 256.85L75.2 256.85C75.14 256.84 75.04 256.79 74.97 256.75L74.97 253.22L78.4 253.22C78.5 253.22 78.72 253.43 78.72 253.43L78.72 252.05C78.72 252.05 78.48 252.2 78.4 252.2L74.97 252.2L74.97 248.6L79.75 248.6C79.85 248.6 80.07 248.78 80.07 248.78L80.07 247.57L73.77 247.57Z" />
		<path id="Layer" class="shp3" d="M113.45 247.3C112.96 247.3 111.01 247.6 111.01 249.63C111.01 251.11 112.07 251.77 112.88 252.15C113.68 252.54 115.27 253.04 115.27 254.75C115.27 256.47 113.83 257.02 112.93 257.02C112.02 257.02 111.39 256.67 111 256.22L111 258.07C111 258.07 111.22 257.93 111.43 257.93C111.63 257.93 112.38 258.13 112.88 258.13C113.75 258.13 116.45 257.73 116.45 254.78C116.45 253.11 115.64 252.26 114.23 251.47C112.89 250.74 112.18 250.59 112.18 249.63C112.18 248.68 113.05 248.3 113.68 248.3C114.3 248.3 114.83 248.38 115.23 248.93L115.23 247.35C115.23 247.35 115.03 247.5 114.88 247.5C114.71 247.5 113.93 247.3 113.45 247.3Z" />
		<path id="Layer" class="shp4" d="M101.99 48.33C101.99 61.81 91.06 72.73 77.59 72.73C64.11 72.73 53.19 61.81 53.19 48.33C53.19 34.86 64.11 23.93 77.59 23.93C91.06 23.93 101.99 34.86 101.99 48.33Z" />
		<path id="Layer" class="shp0" d="M0 151.68C0 172.37 8.09 191.82 22.68 206.46C37.32 221.09 56.79 229.14 77.49 229.14C98.18 229.14 117.66 221.09 132.3 206.46C146.89 191.82 154.97 172.37 154.97 151.68L154.97 54.29L0 54.29L0 151.68Z" />
		<path id="Layer" class="shp1" d="M77.9 56.3L77.9 227.18C97.79 227.09 116.64 219.26 130.87 205.02C145.11 190.79 153 171.81 153 151.67L153 56.29L77.9 56.3Z" />
		<path id="Layer" fill-rule="evenodd" class="shp3" d="M81.2 33.52L86.53 32.38L88.15 35.1L78.8 35.1C81.14 33.95 79.94 32.15 77.55 32.15C75.21 32.15 73.98 33.95 76.32 35.1L66.9 35.1L68.55 32.38L73.93 33.52C72.91 32.39 73.13 29.38 77.57 29.38C82.02 29.38 82.21 32.39 81.2 33.52ZM66.9 36.93L65.9 38.05L65.9 49.68L66.9 50.8L61.98 50.8L63 49.68L63 38.05L61.98 36.93L66.9 36.93ZM74.48 36.93L73.43 38.05L73.43 42.38L78.75 42.38L78.75 38.05L77.75 36.93L82.67 36.93L81.65 38.05L81.65 49.68L82.67 50.8L77.75 50.8L78.75 49.68L78.75 45.27L73.43 45.27L73.43 49.68L74.48 50.8L69.55 50.8L70.57 49.68L70.57 38.05L69.55 36.93L74.48 36.93ZM92.27 36.95L93.95 39.9L89.43 39.9L91.78 43.88L89.43 47.9L95.07 47.9L93.45 50.8L84.4 50.8L88.33 43.88L84.4 36.95L92.27 36.95ZM181.57 54.65C185.34 54.65 188.98 55.24 188.98 59.63C188.98 61.86 187.26 63.43 185.05 63.8L185.05 63.82C185.89 64.14 186.3 64.54 186.89 65.68L190.5 72.98L187.38 72.98L184.47 66.63C183.63 64.84 182.71 64.82 181.27 64.82L179.65 64.82L179.65 72.98L176.89 72.98L176.89 54.65L181.57 54.65ZM213.75 54.65C217.66 54.65 220.89 55.98 220.89 60.15C220.89 64.21 217.59 65.65 214.15 65.65L211.47 65.65L211.47 72.98L208.75 72.98L208.75 54.65L213.75 54.65ZM248.78 54.65C252.73 54.65 255.47 55.89 255.47 59.27C255.47 61.79 253.93 63.05 251.53 63.63L251.53 63.68C254.13 63.89 255.95 65.5 255.95 68.07C255.95 72.01 252.57 72.98 248.7 72.98L243.63 72.98L243.63 54.65L248.78 54.65ZM263.15 54.65L263.15 70.65L271.13 70.65L271.13 72.98L260.43 72.98L260.43 54.65L263.15 54.65ZM276.82 54.65L276.82 72.98L274.1 72.98L274.1 54.65L276.82 54.65ZM246.35 62.48L247.85 62.48C250.49 62.48 252.73 62.23 252.73 59.52C252.73 57.35 250.8 56.8 249.22 56.8L246.35 56.8L246.35 62.48ZM179.65 62.52L181.95 62.52C184.55 62.52 186.07 61.44 186.07 59.68C186.07 58.02 184.76 56.98 182.25 56.98L179.65 56.98L179.65 62.52ZM211.47 63.35L214.18 63.35C215.87 63.35 218 62.51 218 60.1C218 57.79 215.49 56.98 213.8 56.98L211.47 56.98L211.47 63.35ZM246.35 70.82L248.4 70.82C250.86 70.82 253.07 70.32 253.07 67.85C253.07 65.02 250.48 64.63 248.13 64.63L246.35 64.63L246.35 70.82ZM293.9 72.5L298.33 76.35L294.95 76.35L291.4 73.18M232.47 85.57L232.25 88.13C231.05 87.45 229.7 87.11 228.3 87.11C223.9 87.11 221 90.15 221 94.27C221 98.57 224.21 101.43 228.18 101.43C229.54 101.43 231.37 101.08 232.33 100.53L232.5 103.07C231.04 103.65 229.27 103.73 228.15 103.73C222.12 103.73 218.1 100.02 218.1 94.2C218.1 88.55 222.36 84.8 228.18 84.8C229.65 84.8 231.11 84.99 232.47 85.57ZM246.02 85.11L254.07 103.43L251.11 103.43L249.18 98.8L239.82 98.8L237.9 103.43L235.02 103.43L243.15 85.11L246.02 85.11ZM240.7 96.65L248.3 96.65L244.5 87.57L240.7 96.65ZM239.95 115.38L239.73 118.02C238.39 117.18 236.93 116.78 234.47 116.78C230.08 116.78 227.18 119.83 227.18 123.93C227.18 128.23 230.39 131.11 234.35 131.11C236.23 131.11 236.72 130.91 237.4 130.78L237.4 125.22L233.38 125.22L233.38 123.07L240.13 123.07L240.13 132.6C239.09 132.95 237.28 133.4 234.3 133.4C228.27 133.4 224.27 129.67 224.27 123.85C224.27 118.21 228.54 114.47 234.35 114.47C237.14 114.47 238.36 114.85 239.95 115.38ZM182.53 114.78C188.18 114.78 192.67 118.14 192.67 123.78C192.67 129.92 188.8 133.11 182.53 133.11L176.89 133.11L176.89 114.78L182.53 114.78ZM303.43 114.78L309.3 130.78L309.35 130.78L315.38 114.78L318.25 114.78L310.98 133.11L307.55 133.11L300.38 114.78L303.43 114.78ZM179.65 130.78L182.5 130.78C187.18 130.78 189.8 128.63 189.8 123.9C189.8 119.62 186.75 117.11 182.82 117.11L179.65 117.11L179.65 130.78ZM24.08 252.5C24.08 255.54 21.61 258.02 18.55 258.02C15.5 258.02 13.05 255.54 13.05 252.5C13.05 249.44 15.5 246.98 18.55 246.98C21.61 246.98 24.08 249.44 24.08 252.5ZM109.67 257.55C109.76 257.71 109.9 257.87 109.9 257.87L108.5 257.87C108.5 257.87 108.65 257.69 108.6 257.55L107.6 255.18L102.89 255.18L101.87 257.55C101.83 257.69 101.98 257.87 101.98 257.87L100.55 257.87C100.55 257.87 100.7 257.71 100.78 257.55L105.22 247.22L109.67 257.55ZM70.15 255.22L70.15 247.9C70.15 247.79 69.98 247.57 69.98 247.57L71.35 247.57C71.35 247.57 71.18 247.79 71.18 247.9L71.18 258.13L64.88 250.2L64.88 257.57C64.88 257.67 65.05 257.9 65.05 257.9L63.68 257.9C63.68 257.9 63.85 257.67 63.85 257.57L63.85 247.27L70.15 255.22ZM11.9 250.78C11.9 252.69 10.36 254.25 8.45 254.25C7.75 254.25 7.09 254.07 6.55 253.75L6.55 257.57C6.55 257.67 6.73 257.9 6.73 257.9L5.35 257.9C5.35 257.9 5.52 257.67 5.52 257.57L5.52 247.43C5.52 247.43 5.75 247.54 5.85 247.57C5.85 247.57 6.02 247.63 6.13 247.63C6.19 247.63 6.36 247.63 6.52 247.57C6.96 247.43 7.81 247.33 8.45 247.33C10.36 247.33 11.9 248.87 11.9 250.78ZM89.11 250.6C89.11 251.3 88.73 251.85 88.3 252.13C89.2 252.46 89.82 253.41 89.82 254.78C89.82 256.63 88.27 257.9 86.73 257.9L82.53 257.9C82.53 257.9 82.7 257.67 82.7 257.57L82.7 247.43C82.7 247.43 82.93 247.54 83.02 247.57C83.02 247.57 83.2 247.63 83.3 247.63C83.36 247.63 83.54 247.63 83.7 247.57C84.14 247.44 84.99 247.33 85.63 247.33C87.85 247.33 89.11 248.69 89.11 250.6ZM98.45 250.78C98.45 252.02 97.81 252.8 96.82 253.2C98.62 254.14 99.11 256.08 99.25 257.3C99.25 257.41 99.55 257.87 99.55 257.87L98.13 257.87L98.13 257.55C98.13 256.45 97.41 253.55 94.53 253.55L94.53 252.6L95 252.6C96.41 252.6 97.43 251.92 97.43 250.78C97.43 249.46 96.62 248.38 95 248.38C94.39 248.38 93.65 248.43 93.11 248.67L93.11 257.57C93.11 257.67 93.3 257.9 93.3 257.9L91.9 257.9C91.9 257.9 92.07 257.67 92.07 257.57L92.07 247.43C92.07 247.43 92.3 247.54 92.4 247.57C92.4 247.57 92.59 247.63 92.7 247.63C92.77 247.63 92.93 247.63 93.11 247.57C93.55 247.43 94.37 247.33 95 247.33C97.31 247.33 98.45 248.87 98.45 250.78ZM37.98 247.47L37.98 248.67C37.98 248.67 37.79 248.53 37.68 248.5L35 248.5L35 257.57C35 257.66 35.18 257.9 35.18 257.9L33.8 257.9C33.8 257.9 33.98 257.67 33.98 257.57L33.98 248.5L31.35 248.5C31.24 248.53 31.05 248.67 31.05 248.67L31.05 247.47L37.98 247.47ZM52.88 247.47L52.88 248.67C52.88 248.67 52.68 248.53 52.57 248.5L49.88 248.5L49.88 257.57C49.88 257.66 50.05 257.9 50.05 257.9L48.68 257.9C48.68 257.9 48.85 257.67 48.85 257.57L48.85 248.5L46.23 248.5C46.12 248.53 45.93 248.67 45.93 248.67L45.93 247.47L52.88 247.47ZM135.25 247.55C135.25 247.55 135.04 247.77 135.04 247.87L135.04 254.55C135.04 255.95 136.2 257.11 137.6 257.11C139 257.11 140.15 255.95 140.15 254.55L140.15 247.87C140.15 247.77 139.97 247.55 139.97 247.55L141.35 247.55C141.35 247.55 141.17 247.77 141.17 247.87L141.17 254.55C141.17 256.52 139.57 258.13 137.6 258.13C135.63 258.13 134.02 256.52 134.02 254.55L134.02 247.87C134.02 247.77 133.84 247.55 133.84 247.55L135.25 247.55ZM144.77 247.55C144.77 247.55 144.61 247.76 144.67 247.87L146.8 251.45L148.89 247.87C148.96 247.76 148.8 247.55 148.8 247.55L150.32 247.55C150.32 247.55 150.09 247.78 150.02 247.87L147.4 252.35L150.47 257.55C150.56 257.71 150.75 257.87 150.75 257.87L149.22 257.87C149.22 257.87 149.4 257.68 149.32 257.55L146.8 253.25L144.25 257.55C144.17 257.68 144.35 257.87 144.35 257.87L142.82 257.87C142.82 257.87 143 257.71 143.1 257.55L146.2 252.35L143.52 247.87C143.47 247.78 143.27 247.55 143.27 247.55L144.77 247.55ZM127.77 247.57C127.77 247.57 127.6 247.79 127.6 247.9L127.6 256.85L132.4 256.85C132.5 256.85 132.73 256.67 132.73 256.67L132.73 257.87L126.37 257.87C126.37 257.87 126.55 257.66 126.55 257.55L126.55 247.9C126.55 247.79 126.37 247.57 126.37 247.57L127.77 247.57ZM14.1 252.5C14.1 254.96 16.08 256.95 18.55 256.95C21.01 256.95 23.02 254.96 23.02 252.5C23.02 250.03 21.01 248.05 18.55 248.05C16.08 248.05 14.1 250.03 14.1 252.5ZM6.55 248.67L6.55 252.47C7.01 252.95 7.71 253.2 8.45 253.2C9.78 253.2 10.85 252.11 10.85 250.78C10.85 249.46 9.78 248.38 8.45 248.38C7.84 248.38 7.1 248.43 6.55 248.67ZM83.73 248.67L83.73 257.02L86.3 257.02C87.82 257.02 88.75 255.82 88.75 254.82C88.75 253.83 88.5 252.87 86.85 252.87L85.25 252.85L85.25 251.9C85.79 251.9 85.89 251.87 86.55 251.87C87.31 251.87 88.05 251.19 88.05 250.6C88.05 249.27 87.24 248.38 85.62 248.38C85.02 248.38 84.27 248.43 83.73 248.67ZM103.29 254.25L107.18 254.25L105.22 249.75L103.29 254.25Z" />
		<path id="Layer" fill-rule="evenodd" class="shp5" d="M47.9 68.85C48.2 69.07 48.66 69.07 49.04 69.07C49.43 69.07 49.86 69.09 50.18 68.85C50.93 68.29 51.81 68 52.73 68C53.84 68 54.86 68.43 55.68 69.23C56.44 70 56.9 71.05 56.9 72.15C56.9 74.43 55.01 76.32 52.73 76.32L45.4 76.32C44.28 76.32 43.26 75.87 42.5 75.1C41.69 74.3 41.23 73.25 41.23 72.15C41.23 71.05 41.69 70 42.5 69.23C43.26 68.43 44.28 68 45.4 68C46.32 68 47.19 68.33 47.9 68.85ZM42.98 72.07C42.98 72.72 43.22 73.36 43.68 73.82C44.13 74.29 44.74 74.55 45.4 74.55L47.9 74.55L47.9 72.07C47.9 70.84 46.9 69.6 45.4 69.6C44.03 69.6 42.98 70.71 42.98 72.07ZM50.23 72.07L50.23 74.55L52.73 74.55C53.39 74.55 53.99 74.29 54.45 73.82C54.91 73.36 55.18 72.72 55.18 72.07C55.18 71.41 54.91 70.79 54.45 70.32C53.99 69.84 53.39 69.6 52.73 69.6C51.35 69.6 50.23 70.71 50.23 72.07ZM45.4 76.93L52.73 76.93C53.08 76.93 53.45 76.9 53.75 76.82L53.75 78.5L44.4 78.5L44.4 76.8C44.7 76.9 45.04 76.93 45.4 76.93ZM41.95 80.38C41.95 80.38 45.92 82.98 47.4 84.2C48.09 84.77 48.43 85.26 48.73 85.87C48.88 86.21 49.02 86.56 49.1 86.93C49.18 87.3 49.23 87.68 49.23 88.07C49.23 88.79 49.07 89.49 48.8 90.1C48.62 90.51 48.38 90.88 48.1 91.22C47.68 91.73 47.17 92.16 46.57 92.47C45.66 92.99 44.23 92.79 43.52 92.5C44.8 92.34 45.86 91.5 46.77 90.7C47.23 90.29 47.6 89.57 47.6 88.89C47.6 88.26 47.33 87.68 46.88 87.22C46.42 86.79 45.86 86.53 45.2 86.53C44.64 86.53 44.13 86.74 43.68 87.13C43.07 85.66 41.55 84.43 40.23 84.43L36.65 84.43C35.58 84.43 35.23 85.22 35.23 85.87L35.23 86.35L34.93 86.35C34.62 85.76 33.36 83.61 32.9 82.38C32.7 81.73 32.75 81.15 33.05 80.78C33.2 80.52 33.5 80.38 33.75 80.38L41.95 80.38ZM36.45 90.43C38.18 90.4 39.31 89.94 40.27 89.55C41.04 89.24 41.69 88.98 42.55 88.98C43.87 88.98 44.84 89.44 45.25 89.7L45.2 89.85C44.64 89.66 43.54 89.46 41.35 90.67C41.14 90.77 40.93 90.89 40.73 91.02C39.55 91.69 38.08 92.55 36.2 92.55C35.34 92.55 33.42 92.21 32.4 90.95C31.89 90.34 31.67 89.6 31.77 88.7C32.49 89.34 34.11 90.45 36.45 90.43ZM53.9 167.3C53.84 167.53 53.77 167.69 53.75 167.75L45.3 178.35L45 178.7L45.45 178.82C47.89 179.5 49.27 181.94 49.23 185.25L49.23 185.73C49.27 186.7 49.42 187.68 48.35 188.45C47.08 189.4 45.75 188.18 45.7 188.13C45.34 187.74 45.15 187.21 45.2 186.67C45.2 186.13 45.44 185.63 45.85 185.27L45.98 185.18L45.98 185.07C45.98 185.02 46.13 183.73 46.13 183.2C46.13 182.84 46 182.53 45.8 182.33C45.55 182.1 45.21 181.98 44.7 181.98C42.73 181.98 40.76 182.03 38.8 182.22C35.5 182.48 32.3 183.83 30.93 184.43L30.7 184.53L30.5 184.6L30.5 184.82C30.5 186.03 29.74 186.95 28.63 187.05C28.12 187.07 27.56 186.91 27.15 186.55C26.74 186.19 26.5 185.71 26.45 185.18C26.35 184.07 26.9 183.21 28.27 182.87L33.88 180.57L34.52 180.27L33.88 180C33.82 179.97 32.18 179.28 28.93 179.05L28.68 179.02L28.63 179.27C28.47 179.81 28.11 180.24 27.65 180.5C27.19 180.79 26.63 180.86 26.13 180.7C25.57 180.57 25.18 180.21 24.88 179.75C24.62 179.29 24.55 178.73 24.65 178.22C25.01 177.05 26.09 176.63 26.75 176.7L26.8 176.7C26.85 176.7 34.07 176.65 36 176.87L37.13 177.05L36.25 176.35L33.82 174.15L33.65 174.02L33.5 174.1C32.94 174.26 32.14 174.32 31.43 173.65C30.61 172.82 30.56 171.57 31.32 170.78C32.14 169.98 33.21 169.99 33.88 170.35C35.45 171.28 37.97 174.01 39.55 175.65C40.21 176.39 40.67 176.67 40.88 176.82L41.13 177L41.27 176.78C41.68 176.34 50.19 166.24 50.65 165.65C50.75 165.54 50.92 165.41 51.13 165.3C51.95 166.09 52.89 166.75 53.9 167.3ZM31.73 169.22L32.5 169.53C31.94 169.6 31.38 169.84 30.88 170.33C30.42 170.84 30.15 171.51 30.15 172.2C30.1 172.15 30.05 172.13 30.05 172.13C29.44 172 28.83 172.17 28.38 172.57C28.02 172.89 27.8 173.29 27.75 173.73L27.7 173.75C27.29 172.44 27.66 171.02 28.68 170.1C29.39 169.46 30.26 169.12 31.23 169.18C31.38 169.18 31.57 169.2 31.73 169.22ZM25.23 176.55C24.82 176.79 24.25 177.5 24.1 178.07C23.9 178.73 23.99 179.46 24.35 180.07L24.05 180.07C23.49 180.23 22.98 180.66 22.77 181.25C22.62 181.66 22.62 182.12 22.77 182.53L22.73 182.57C21.76 181.63 21.46 180.21 21.93 178.89C22.37 177.65 23.73 176.51 25.23 176.55ZM27.1 187.27C26.69 187.66 26.5 188.26 26.6 188.85C26.65 189.28 26.89 189.69 27.2 190L27.15 190.07C25.88 189.68 24.88 188.62 24.65 187.25C24.4 185.79 25.27 184.15 26.2 183.7C25.47 184.73 25.77 186.47 27.1 187.27ZM48.88 188.82C48.45 189.82 47.51 190.65 46.38 190.95C44.9 191.34 43.37 190.86 42.35 189.73L42.45 189.65C43.38 190.11 44.75 189.79 45.21 188.5C46.14 189.47 47.8 189.85 48.88 188.82Z" />
		<path id="Layer" class="shp3" d="M27.85 247.3C27.37 247.3 25.41 247.6 25.41 249.63C25.41 251.11 26.46 251.77 27.27 252.15C28.08 252.54 29.68 253.04 29.68 254.75C29.68 256.47 28.23 257.02 27.32 257.02C26.41 257.02 25.79 256.67 25.4 256.22L25.4 258.07C25.4 258.07 25.62 257.93 25.82 257.93C26.02 257.93 26.77 258.13 27.27 258.13C28.15 258.13 30.85 257.73 30.85 254.78C30.85 253.11 30.04 252.26 28.63 251.47C27.3 250.74 26.57 250.59 26.57 249.63C26.57 248.68 27.45 248.3 28.07 248.3C28.7 248.3 29.23 248.38 29.63 248.93L29.63 247.35C29.63 247.35 29.43 247.5 29.27 247.5C29.11 247.5 28.33 247.3 27.85 247.3Z" />
		<path id="Layer" class="shp3" d="M54.97 247.57C54.97 247.57 55.15 247.76 55.15 247.87L55.15 257.57C55.15 257.67 54.97 257.9 54.97 257.9L61.25 257.9L61.25 256.67C61.25 256.67 61.03 256.85 60.92 256.85L56.4 256.85C56.34 256.84 56.24 256.79 56.17 256.75L56.17 253.22L59.6 253.22C59.7 253.22 59.92 253.43 59.92 253.43L59.92 252.05C59.92 252.05 59.68 252.2 59.6 252.2L56.17 252.2L56.17 248.6L60.95 248.6C61.05 248.6 61.27 248.78 61.27 248.78L61.27 247.57L54.97 247.57Z" />
		<path id="Layer" class="shp3" d="M198.82 114.78L198.82 133.11L209.5 133.11L209.5 130.78L201.55 130.78L201.55 124.75L208.78 124.75L208.78 122.45L201.55 122.45L201.55 117.11L209.5 117.11L209.5 114.78L198.82 114.78Z" />
		<path id="Layer" class="shp3" d="M247 114.78L247 133.11L257.68 133.11L257.68 130.78L249.73 130.78L249.73 124.75L256.95 124.75L256.95 122.45L249.73 122.45L249.73 117.11L257.68 117.11L257.68 114.78L247 114.78Z" />
		<path id="Layer" class="shp3" d="M285.7 114.78L285.7 133.11L296.38 133.11L296.38 130.78L288.43 130.78L288.43 124.75L295.65 124.75L295.65 122.45L288.43 122.45L288.43 117.11L296.38 117.11L296.38 114.78L285.7 114.78Z" />
		<path id="Layer" class="shp3" d="M322.89 114.78L322.89 133.11L333.57 133.11L333.57 130.78L325.63 130.78L325.63 124.75L332.85 124.75L332.85 122.45L325.63 122.45L325.63 117.11L333.57 117.11L333.57 114.78L322.89 114.78Z" />
		<path id="Layer" class="shp3" d="M322.75 54.65L322.75 72.98L333.43 72.98L333.43 70.65L325.48 70.65L325.48 64.63L332.7 64.63L332.7 62.32L325.48 62.32L325.48 56.98L333.43 56.98L333.43 54.65L322.75 54.65Z" />
		<path id="Layer" class="shp3" d="M193.87 54.65L193.87 72.98L204.55 72.98L204.55 70.65L196.6 70.65L196.6 64.63L203.82 64.63L203.82 62.32L196.6 62.32L196.6 56.98L204.55 56.98L204.55 54.65L193.87 54.65Z" />
		<path id="Layer" class="shp3" d="M177.2 85.1L177.2 103.43L187.88 103.43L187.88 101.1L179.93 101.1L179.93 95.08L187.15 95.08L187.15 92.77L179.93 92.77L179.93 87.43L187.88 87.43L187.88 85.1L177.2 85.1Z" />
		<path id="Layer" class="shp3" d="M258.18 85.11L258.18 103.43L260.91 103.43L260.91 88.35L269.57 103.43L273.07 103.43L273.07 85.11L270.31 85.11L270.31 99.85L261.87 85.11L258.18 85.11Z" />
		<path id="Layer" class="shp3" d="M318.36 85.11L318.36 103.43L321.09 103.43L321.09 88.35L329.76 103.43L333.25 103.43L333.25 85.11L330.5 85.11L330.5 99.85L322.05 85.11L318.36 85.11Z" />
		<path id="Layer" class="shp3" d="M263.93 114.77L263.93 133.09L266.66 133.09L266.66 118.02L275.33 133.09L278.82 133.09L278.82 114.77L276.06 114.77L276.06 129.52L267.62 114.77L263.93 114.77Z" />
		<path id="Layer" class="shp3" d="M224.1 54.65L224.1 65.38C224.1 70.52 226.82 73.27 231.5 73.27C236.19 73.27 238.89 70.52 238.89 65.38L238.89 54.65L236.18 54.65L236.18 65.05C236.18 68.57 235.02 70.98 231.5 70.98C227.98 70.98 226.85 68.57 226.85 65.05L226.85 54.65L224.1 54.65Z" />
		<path id="Layer" class="shp3" d="M302.93 54.65L302.93 65.38C302.93 70.52 305.65 73.27 310.34 73.27C315.02 73.27 317.73 70.52 317.73 65.38L317.73 54.65L315.01 54.65L315.01 65.05C315.01 68.57 313.86 70.98 310.34 70.98C306.82 70.98 305.68 68.57 305.68 65.05L305.68 54.65L302.93 54.65Z" />
		<path id="Layer" class="shp3" d="M191.47 85.11L191.47 87.43L197.4 87.43L197.4 103.43L200.13 103.43L200.13 87.43L206.05 87.43L206.05 85.11L191.47 85.11Z" />
		<path id="Layer" class="shp3" d="M277.12 85.11L277.12 87.43L283.05 87.43L283.05 103.43L285.78 103.43L285.78 87.43L291.7 87.43L291.7 85.11L277.12 85.11Z" />
		<path id="Layer" fill-rule="evenodd" class="shp3" d="M313.15 94.27C313.15 99.84 309.79 103.73 303.98 103.73C298.16 103.73 294.8 99.84 294.8 94.27C294.8 88.85 298.18 84.8 303.98 84.8C309.76 84.8 313.15 88.85 313.15 94.27ZM297.7 94.27C297.7 97.92 299.59 101.43 303.98 101.43C308.37 101.43 310.25 97.92 310.25 94.27C310.25 90.54 308.18 87.07 303.98 87.11C299.77 87.07 297.7 90.54 297.7 94.27Z" />
		<path id="Layer" fill-rule="evenodd" class="shp3" d="M299.05 63.82C299.05 69.39 295.68 73.28 289.87 73.28C284.06 73.28 280.7 69.39 280.7 63.82C280.7 58.4 284.08 54.35 289.87 54.35C295.66 54.35 299.05 58.4 299.05 63.82ZM283.59 63.82C283.59 67.47 285.48 70.98 289.87 70.98C294.27 70.98 296.14 67.47 296.14 63.82C296.14 60.1 294.08 56.63 289.87 56.66C285.66 56.63 283.59 60.1 283.59 63.82Z" />
		<path id="Layer" class="shp0" d="M114.8 150.85L114.8 74.05C114.8 71.21 112.52 69.09 109.82 69.07C107.13 69.05 104.85 71.3 104.85 74.05L104.85 150.85" />
		<path id="Layer" class="shp0" d="M125.78 174.25C119.4 176.22 111.81 181.7 109.45 191.72L116.41 191.72C118.01 186.79 122.05 182.79 126.68 181.05L126.68 182.73C126.68 184.45 128.05 185.82 129.78 185.82L130.55 185.82C132.28 185.82 133.63 184.41 133.65 182.73L133.65 180.22C136.67 180.19 139.13 177.56 139.13 174.46C139.13 171.35 136.61 168.7 133.65 168.7L133.65 166.22C133.65 164.43 132.26 163.11 130.55 163.08L129.78 163.08C128 163.08 126.68 164.54 126.68 166.22L126.68 167.48" />
		<path id="Layer" fill-rule="evenodd" class="shp3" d="M110.88 191.15C113.01 183.47 119 177.43 126.68 175.3L126.68 179.73C121.52 181.43 117.3 185.55 115.3 191.15L110.88 191.15ZM129.78 184.6C128.95 184.6 127.9 183.91 127.9 182.73L127.9 166.22C127.9 165.29 128.56 164.35 129.78 164.35L130.55 164.35C131.56 164.35 132.37 165.2 132.37 166.22L132.37 182.73C132.37 184.14 131.16 184.6 130.55 184.6L129.78 184.6ZM133.65 169.93C135.99 170.09 137.88 172.09 137.88 174.46C137.88 176.81 135.96 178.98 133.65 178.98L133.65 169.93Z" />
		<path id="Layer" class="shp0" d="M109.6 158.52C111.57 164.89 117.04 172.48 127.07 174.84L127.07 167.88C122.13 166.29 118.14 162.24 116.39 157.62L118.07 157.62C119.8 157.62 121.17 156.24 121.17 154.52L121.17 153.75C121.17 152.02 119.76 150.67 118.07 150.64L115.57 150.64C115.54 147.63 112.91 145.17 109.8 145.17C106.7 145.17 104.05 147.69 104.05 150.64L101.57 150.64C99.77 150.64 98.45 152.04 98.43 153.75L98.43 154.52C98.43 156.3 99.89 157.62 101.57 157.62L102.83 157.62" />
		<path id="Layer" class="shp3" d="M126.5 169C120.9 167 116.77 162.78 115.07 157.62L110.65 157.62C112.78 165.29 118.82 171.29 126.5 173.42L126.5 169ZM119.95 153.75C119.95 153.13 119.48 151.93 118.07 151.93L101.57 151.93C100.55 151.93 99.7 152.73 99.7 153.75L99.7 154.52C99.7 155.73 100.64 156.39 101.57 156.39L118.07 156.39C119.26 156.39 119.95 155.35 119.95 154.52L119.95 153.75ZM114.32 150.64C114.32 148.33 112.16 146.42 109.8 146.42C107.44 146.42 105.44 148.31 105.28 150.64L114.32 150.64Z" />
		<path id="Layer" fill-rule="evenodd" class="shp4" d="M125.02 79.25L125.02 82.35L129.75 82.35L129.75 79.25L136.85 79.25L136.85 86.85L133.25 86.85L133.25 91.07L136.85 91.07L136.85 104.05L133.25 104.05L133.25 108.27L136.85 108.27L136.85 115.87L129.75 115.87L129.75 112.75L125.02 112.75L125.02 115.87L118 115.87L118 104.15L114.15 104.15L114.15 90.95L118 90.95L118 79.25L125.02 79.25ZM125.02 95.45L121.65 95.45L121.65 99.67L125.02 99.67L125.02 108.15L129.75 108.15L129.75 99.67L133 99.67L133 95.45L129.75 95.45L129.75 86.95L125.02 86.95L125.02 95.45Z" />
		<path id="Layer" class="shp0" d="M93.87 174.7C100.24 172.73 107.84 167.26 110.2 157.23L103.23 157.23C101.64 162.17 97.6 166.16 92.97 167.9L92.97 166.22C92.97 164.5 91.6 163.13 89.87 163.13L89.1 163.13C87.37 163.13 86.02 164.54 86 166.22L86 168.73C82.98 168.76 80.52 171.39 80.52 174.5C80.52 177.6 83.04 180.25 86 180.25L86 182.73C86 184.53 87.39 185.85 89.1 185.87L89.87 185.87C91.65 185.87 92.97 184.41 92.97 182.73L92.97 181.47" />
		<path id="Layer" fill-rule="evenodd" class="shp3" d="M108.77 157.8C106.64 165.48 100.64 171.52 92.97 173.65L92.97 169.22C98.13 167.53 102.35 163.4 104.35 157.8L108.77 157.8ZM89.87 164.35C90.7 164.35 91.75 165.04 91.75 166.22L91.75 182.73C91.75 183.66 91.09 184.6 89.87 184.6L89.1 184.6C88.09 184.6 87.28 183.75 87.28 182.73L87.28 166.22C87.28 164.82 88.48 164.35 89.1 164.35L89.87 164.35ZM86 179.02C83.66 178.86 81.77 176.86 81.77 174.5C81.77 172.14 83.68 169.98 86 169.98L86 179.02Z" />
		<path id="Layer" class="shp0" d="M110.05 190.44C108.07 184.06 102.61 176.47 92.58 174.11L92.58 181.07C97.52 182.67 101.51 186.71 103.25 191.33L101.57 191.33C99.85 191.33 98.48 192.71 98.48 194.44L98.48 195.2C98.48 196.93 99.89 198.29 101.57 198.31L104.07 198.31C104.11 201.32 106.74 203.78 109.84 203.78C112.95 203.78 115.6 201.26 115.6 198.31L118.07 198.31C119.88 198.31 121.2 196.91 121.22 195.2L121.22 194.44C121.22 192.65 119.76 191.33 118.07 191.33L116.82 191.33" />
		<path id="Layer" fill-rule="evenodd" class="shp3" d="M93.15 175.53C100.83 177.67 106.87 183.66 109 191.33L104.57 191.33C102.88 186.17 98.75 181.96 93.15 179.96L93.15 175.53ZM99.7 194.44C99.7 193.61 100.39 192.55 101.57 192.55L118.07 192.55C119.01 192.55 119.95 193.22 119.95 194.44L119.95 195.2C119.95 196.22 119.1 197.03 118.07 197.03L101.57 197.03C100.16 197.03 99.7 195.82 99.7 195.2L99.7 194.44ZM114.37 198.31C114.21 200.64 112.21 202.53 109.84 202.53C107.49 202.53 105.32 200.62 105.32 198.31L114.37 198.31Z" />
		<path id="Layer" fill-rule="evenodd" class="shp3" d="M77.23 56.29L77.23 96.96C75.83 95.07 73.94 93.57 71.75 92.65C72.87 91.93 73.63 90.69 73.63 89.27C73.63 89.1 73.57 88.94 73.57 88.75L73.13 88.75C65.5 88.75 64.63 78.64 54.35 78.51L54.35 76.66C55.01 76.43 55.62 76.05 56.07 75.56C56.99 74.66 57.5 73.41 57.5 72.12C57.5 70.84 56.99 69.71 56.07 68.81C55.21 67.89 54 67.39 52.73 67.39C51.71 67.39 50.68 67.71 49.82 68.36C49.67 68.48 49.45 68.48 49.07 68.48C48.71 68.48 48.43 68.46 48.3 68.36C47.49 67.71 46.47 67.39 45.4 67.39C42.76 67.39 40.63 69.5 40.63 72.12C40.63 73.41 41.14 74.66 42.05 75.56C42.51 76.05 43.11 76.4 43.73 76.63L43.73 78.51L43.07 78.51L42.32 79.76L33.75 79.76C33.29 79.76 32.8 80 32.55 80.43C32.14 80.97 32.05 81.73 32.35 82.55C32.86 84.07 34.47 86.7 34.53 86.8L34.63 86.98L35.85 86.98L35.85 85.88C35.85 85.75 35.85 85.45 36.05 85.27C36.2 85.13 36.39 85.07 36.65 85.07L40.23 85.07C41.45 85.07 42.92 86.37 43.28 87.78L43.82 87.91C44.18 87.41 44.64 87.18 45.2 87.18C45.66 87.18 46.12 87.35 46.43 87.68C46.78 88.01 46.93 88.42 46.93 88.9C46.93 89.39 46.73 89.95 46.38 90.25C45.46 91.07 44.4 91.93 43.13 91.93L42.98 91.93L42.85 92.05L42.65 92.33L42.5 92.58L42.7 92.78C43.62 93.47 45.3 93.71 46.68 93.13C47.13 93 47.54 92.93 48 92.9C52.43 92.56 56.3 95.91 56.65 100.48C56.75 101.64 56.58 102.73 56.23 103.75C56.84 104.24 57.61 104.53 58.43 104.53C59.19 104.53 59.69 104.34 60.25 103.98C58.42 106.19 57.35 109.05 57.35 112.13C57.35 113.16 57.45 114.16 57.65 115.11C56.58 114.18 55.18 113.6 53.65 113.6C51.67 113.6 49.87 114.51 48.75 116C48.09 116.84 47.09 117.4 45.93 117.4C45.16 117.4 44.43 117.16 43.82 116.75C45.3 116.29 46.32 114.92 46.32 113.33C46.32 112.46 46.06 111.75 45.5 111.11L16.43 80.78C12.82 76.86 10.89 72.87 9.98 70.54C7.13 72.25 5.2 75.39 5.2 78.98C5.2 82.21 6.71 85.11 9.15 86.9L30.93 105.98L31.13 106.1C30.87 106.59 30.65 107.09 30.45 107.58C29.99 107.32 20.95 102 16.57 99.45C12.05 96.84 9.35 94.8 5.07 90.05C4.16 91.56 3.6 93.36 3.6 95.25C3.6 98.9 5.6 102.08 8.55 103.8L29.03 113.16C28.97 113.85 28.93 114.54 28.93 115.25L28.93 115.33C28.06 115.23 20.8 114.28 19.53 114.05C18.15 113.82 10.88 112.64 2.95 109.4C2.38 115.04 6.72 120.31 12.82 120.31L29.6 120.36C29.8 121.05 30 121.71 30.25 122.38C29.89 122.46 16.06 125.69 13.78 126.13C11.49 126.56 5.64 127.71 3.4 127.38C4.47 131.69 8.35 134.9 12.98 134.9C14.25 134.9 15.41 134.66 16.53 134.23L32.9 127.27C33.2 127.73 33.47 128.08 33.88 128.5C33.88 128.5 18.86 141.56 16.82 143.13C14.74 144.68 12.5 146.53 8.13 148.5C9.96 150.66 12.68 151.98 15.73 151.98C18.78 151.98 21.47 150.61 23.3 148.43L37.88 132.13C38.39 132.48 38.89 132.8 39.4 133.07L33.05 146.85C30.81 151.6 27.76 158.59 22.68 163.65C24.15 164.52 25.87 165 27.7 165C32.23 165 36.05 161.98 37.23 157.85L43.93 134.9C44.79 135.14 45.71 135.3 46.63 135.43C46.52 136.43 45.97 142.46 44.85 149.2C48.3 149.74 51.98 147.11 51.98 143.05L51.65 135.45C54.68 135.09 57.52 134.09 59.95 132.55L63.5 142.5C59.79 143.84 55.99 146.42 53.45 149.8C50.45 153.81 49.07 157.02 43.13 159.2C44.24 160.25 45.72 160.93 47.4 160.93C47.66 160.93 47.9 160.9 48.1 160.88C48.71 162.36 49.59 163.68 50.68 164.83C50.47 164.96 50.3 165.09 50.18 165.25C49.77 165.79 42.3 174.64 41.03 176.18C40.77 176 40.43 175.69 39.98 175.23C38.35 173.45 35.86 170.78 34.13 169.83C34.13 169.8 34.08 169.78 34.03 169.78C33.26 169.11 32.29 168.68 31.28 168.63C30.16 168.58 29.09 168.96 28.28 169.7C27.05 170.84 26.64 172.59 27.25 174.16L27.3 174.38L28.32 174.23L28.32 173.96C28.32 173.59 28.47 173.23 28.78 172.98C29.18 172.59 29.79 172.55 30.25 172.83C30.4 173.29 30.62 173.75 30.98 174.1C31.64 174.77 32.54 174.96 33.5 174.73L35.13 176.2C32.48 176.05 27.11 176.1 26.8 176.1C26.65 176.08 26.55 176.08 26.4 176.1C25.03 176 24.27 176 23.5 176.4C22.54 176.92 21.76 177.71 21.35 178.73C20.79 180.3 21.25 182.04 22.53 183.18L22.68 183.33L23.5 182.71L23.4 182.48C23.25 182.16 23.2 181.76 23.35 181.43C23.55 180.84 24.09 180.51 24.7 180.58C25.05 180.91 25.47 181.2 25.93 181.33C26.64 181.52 27.37 181.41 27.98 181.05C28.54 180.75 28.92 180.27 29.13 179.68C30.91 179.8 32.19 180.13 32.9 180.33L28.18 182.31C27.77 182.43 27.61 182.46 27.4 182.55C26.18 182.97 25.49 183.4 24.82 184.27C24.21 185.18 23.95 186.26 24.1 187.33C24.41 189 25.63 190.32 27.25 190.68L27.5 190.73L27.93 189.8L27.7 189.68C27.39 189.48 27.2 189.14 27.15 188.78C27.05 188.29 27.25 187.81 27.6 187.53C27.96 187.64 28.32 187.7 28.68 187.68C30 187.57 31.02 186.43 31.13 185.03L31.18 185C32.55 184.44 35.65 183.11 38.85 182.85C41.95 182.56 43.84 182.58 44.7 182.58C45.01 182.58 45.25 182.65 45.35 182.75C45.45 182.86 45.5 183 45.5 183.2C45.5 183.61 45.4 184.59 45.35 184.88C44.89 185.36 44.6 185.98 44.55 186.65C44.55 187.06 44.6 187.44 44.75 187.83C44.75 188.44 44.34 189 43.73 189.16C43.32 189.26 42.86 189.21 42.5 188.98L42.3 188.85L41.55 189.7L41.7 189.91C42.87 191.39 44.75 192.04 46.53 191.55C47.7 191.22 48.72 190.46 49.28 189.38C49.89 188.36 50.03 187.19 49.88 186C49.82 185.62 49.82 185.13 49.82 184.98C49.82 180.69 47.86 179.02 46.07 178.38L54.25 168.13L54.25 168.1C54.33 167.97 54.41 167.8 54.48 167.6C55.91 168.28 57.5 168.7 59.18 168.8C59.42 163.32 62.64 158.35 67.48 156.48C68.14 162.35 67.82 168.19 60.8 174.48C58.36 176.66 56.55 179.64 56.55 183.16C56.55 183.72 56.6 184.28 56.7 184.83C58.79 182.59 62.13 180.48 65.13 180.43C63.6 182.2 60.7 184.49 57.9 187.75C56.27 189.63 55.28 192.08 55.28 194.78C55.28 199.04 57.77 202.72 61.38 204.48C61.22 202.5 61.21 200.48 62.23 197.75C63.34 194.93 69.86 190.72 70.63 183.33C71.03 184.74 71.43 186.23 71.43 187.78C71.43 193.73 69.04 197.32 65.28 202.71C66.04 203.04 66.86 203.25 67.78 203.25C68.89 203.25 69.91 202.94 70.82 202.43C71.71 206.95 74.02 210.9 77.23 213.98L77.23 227.18C57.3 227.16 38.34 219.3 24.1 205.05C9.86 190.8 1.98 171.83 1.98 151.68L1.98 56.27L77.23 56.29ZM53.23 80.5L53.23 81.85L51.35 81.85C51.35 82.95 50.45 83.85 49.38 83.85C48.26 83.85 47.4 82.95 47.4 81.85L45.5 81.85L45.5 80.5L53.23 80.5ZM113.57 74.02L113.57 150.66L106.07 150.66L106.07 74.02C106.07 72.04 107.66 70.27 109.82 70.27C111.98 70.27 113.57 72.01 113.57 74.02ZM54.55 72.11C54.55 73.11 53.74 73.93 52.73 73.93L50.85 73.93L50.85 72.11C50.85 71 51.71 70.23 52.73 70.23C53.75 70.23 54.55 71.06 54.55 72.11ZM47.28 72.11L47.28 73.93L45.4 73.93C44.25 73.93 43.57 73.01 43.57 72.11C43.57 70.94 44.43 70.23 45.4 70.23C46.37 70.23 47.28 70.96 47.28 72.11ZM31.88 91.33C33 92.77 35.13 93.18 36.2 93.18C38.23 93.18 39.86 92.21 41.03 91.55C41.23 91.43 41.45 91.3 41.65 91.2C43.84 90.02 44.7 90.32 45.15 90.47L45.2 90.5L45.45 90.57L46.13 89.55L45.93 89.38C45.88 89.33 44.59 88.35 42.55 88.35C41.59 88.35 40.84 88.66 40.03 89C39.06 89.38 38.03 89.8 36.45 89.82C34.43 89.82 32.44 88.82 31.38 87.4C30.99 88.72 30.96 90.15 31.88 91.33Z" />
		<path id="Layer" class="shp6" d="M50.52 65.68C50.52 66.47 49.88 67.11 49.09 67.11C48.29 67.11 47.65 66.47 47.65 65.68C47.65 64.89 48.29 64.25 49.09 64.25C49.88 64.25 50.52 64.89 50.52 65.68Z" />
	</g>
</svg>
