<svg version="1.1" viewBox="0 0 100 170" height="100%" width="100%" xmlns="http://www.w3.org/2000/svg">
  <defs>
    <style>.cls-5 {
        fill: #fd0;
      }
      .cls-2 {
        fill: #e63312;
      }
      .cls-3,
      .cls-4 {
        fill: none;
      }
      .cls-3,
      .cls-5 {
        stroke: #000;
      }
      .cls-3 {
        stroke-width: 5.63px;
      }
      .cls-4 {
        stroke: #e30613;
        stroke-width: 0.25px;
      }
      .cls-5 {
        stroke-width: 0.22px;
      }
      .cls-6 {
        fill: #000;
      }</style>
  </defs>
  <g transform="translate(26.949 2.2794)">
    <path id="sun-stroke" d="m39.466 27.65a4.6 4.6 0 0 1 0.9-0.8 4 4 0 0 1 1.66-0.56 5.3 5.3 0 0 0 2.09-0.72 4.76 4.76 0 0 0 1.36-1.57 4.53 4.53 0 0 1 1.85-1.9 5.82 5.82 0 0 1 3.7-0.47l0.36 0.09-0.15-0.37a4.07 4.07 0 0 0-4.08-2.23 6.42 6.42 0 0 0-2.59 1.12 6.56 6.56 0 0 1-2.07 1 4.81 4.81 0 0 1-1.81-0.14 8.94 8.94 0 0 0-3.14-0.19l7.47-11.84-12.63 7.98a4.29 4.29 0 0 1 0-1.21 4 4 0 0 1 0.78-1.57 5.32 5.32 0 0 0 1-2 4.7 4.7 0 0 0-0.16-2.07 4.51 4.51 0 0 1 0-2.65 5.86 5.86 0 0 1 2.28-3l0.34-0.2-0.37-0.15a4.07 4.07 0 0 0-4.46 1.31 6.42 6.42 0 0 0-1 2.63 6.44 6.44 0 0 1-0.78 2.15 4.85 4.85 0 0 1-1.38 1.18 8.85 8.85 0 0 0-2.36 2.09l-3.15-13.56-3.32 14.6a4.38 4.38 0 0 1-0.82-0.91 4 4 0 0 1-0.6-1.69 5.3 5.3 0 0 0-0.72-2.09 4.73 4.73 0 0 0-1.57-1.35 4.53 4.53 0 0 1-1.9-1.85 5.84 5.84 0 0 1-0.43-3.71l0.1-0.39-0.37 0.15a4.07 4.07 0 0 0-2.23 4.08 6.4 6.4 0 0 0 1.12 2.64 6.5 6.5 0 0 1 1 2.07 4.78 4.78 0 0 1-0.14 1.81 8.94 8.94 0 0 0-0.19 3.15l-11.83-7.45 8 12.66a4.49 4.49 0 0 1-1.22-0.07 4 4 0 0 1-1.62-0.77 5.39 5.39 0 0 0-2-1 4.69 4.69 0 0 0-2.07 0.16 4.52 4.52 0 0 1-2.65 0 5.84 5.84 0 0 1-3-2.29l-0.2-0.34-0.08 0.43a4.07 4.07 0 0 0 1.31 4.47 6.38 6.38 0 0 0 2.62 1 6.45 6.45 0 0 1 2.15 0.78 4.76 4.76 0 0 1 1.18 1.38 9 9 0 0 0 2.11 2.38l-13.6 3.15 15.52 3.54a3 3 0 0 0 0 0.29h30.8s0-0.21 0.06-0.3l15.55-3.53z"/>
    <path id="blason-stroke" d="m-26.614 34.8v62.41a49.66 49.66 0 0 0 84.78 35.12 49.34 49.34 0 0 0 14.55-35.12v-62.41z"/>
    <path id="left-blason-bg" class="cls-5" d="m-25.334 97.21v-61.13h48.23v109.52a48.38 48.38 0 0 1-48.23-48.39z"/>
    <path id="right-blason-bg" class="cls-2" d="m71.436 97.21a48.38 48.38 0 0 1-48.14 48.39v-109.52h48.14z"/>
    <polyline class="cls-3" transform="translate(-26.614)" points="82.87 112.72 82.87 112.72 82.87 112.72 82.87 112.72 82.87 112.72 82.87 112.72 82.87 112.72"/>
    <path d="m46.956 96.68v-49.22a3.2 3.2 0 0 0-6.39 0v49.21h0.82v-49.21a2.4 2.4 0 1 1 4.79 0v49.22h0.8z"/>
    <path d="m2.7963 57.28a3.57 3.57 0 0 0-2.12-0.66 4.12 4.12 0 0 0-1.65 0.41 5.61 5.61 0 0 1-2.29 0.53 4.21 4.21 0 0 1-3-1.25l-0.24-0.31-0.11 0.4a2.42 2.42 0 0 0 0.41 2.14 3.75 3.75 0 0 0 2.76 1.18 6.05 6.05 0 0 0 3.1-1l0.39-0.22c1.39-0.76 2-0.56 2.25-0.46l0.15 0.05 0.08-0.13 0.24-0.38 0.09-0.15z"/>
    <path d="m4.8363 43.22a1.12 1.12 0 1 0-1.12-1.12 1.1 1.1 0 0 0 0.33 0.79 1.11 1.11 0 0 0 0.79 0.33z"/>
    <path id="bottom-key-stroke" d="m61.626 109.22a3.67 3.67 0 0 0-2.43-1.07v-1.6a2 2 0 0 0-2-2h-0.48a2 2 0 0 0-2 2v1.1a11 11 0 0 1-6.49-6.49h0.82a2 2 0 0 0 2-2v-0.48a2 2 0 0 0-2-2h-10.58a2 2 0 0 0-2 2v0.48a2 2 0 0 0 2 2h1.1a11.06 11.06 0 0 1-6.43 6.47v-1.07a2 2 0 0 0-2-2h-0.48a2 2 0 0 0-2 2v1.6a3.7 3.7 0 0 0 0 7.39v1.6a2 2 0 0 0 2 2h0.48a2 2 0 0 0 2-2v-0.81a11.07 11.07 0 0 1 6.46 6.48h-0.82a2 2 0 0 0-2 2v0.48a2 2 0 0 0 2 2h1.61a3.7 3.7 0 0 0 7.39 0h1.61a2 2 0 0 0 2-2v-0.5a2 2 0 0 0-2-2h-1.1a11.08 11.08 0 0 1 6.46-6.48v0.81a2 2 0 0 0 2 2h0.48a2 2 0 0 0 2-2v-1.6a3.7 3.7 0 0 0 2.4-6.31z"/>
    <path class="cls-5" d="m44.066 130a2.91 2.91 0 0 1-2.9-2.72h5.79a2.91 2.91 0 0 1-2.89 2.72z"/>
    <path class="cls-5" d="m28.656 114.74a2.9 2.9 0 0 1 0-5.79z"/>
    <path class="cls-5" d="m33.126 108.47a11.81 11.81 0 0 0 7.26-7.32h2.82a14.57 14.57 0 0 1-10.08 10.15z"/>
    <path id="bottom-key-bg-center" class="cls-2" d="m43.906 101.77a15.35 15.35 0 0 0 10.23 10.23 15.38 15.38 0 0 0-10.21 10.23 15.37 15.37 0 0 0-10.24-10.23 15.35 15.35 0 0 0 10.22-10.23z"/>
    <path class="cls-5" d="m33.126 115.48v-2.83a14.51 14.51 0 0 1 10.13 10.16h-2.87a11.86 11.86 0 0 0-7.26-7.33z"/>
    <path class="cls-5" d="m54.726 115.48a11.87 11.87 0 0 0-7.3 7.32h-2.84a14.51 14.51 0 0 1 10.13-10.16v2.84z"/>
    <path class="cls-5" d="m54.726 111.32a14.53 14.53 0 0 1-10.17-10.17h2.83a11.82 11.82 0 0 0 7.34 7.34z"/>
    <path class="cls-6" d="m2.7963 158.46v0.77a0.8 0.8 0 0 1 0.19-0.11h1.68v5.81a0.54 0.54 0 0 1-0.11 0.2h0.88a0.6 0.6 0 0 1-0.11-0.2v-5.81h1.72a0.83 0.83 0 0 1 0.19 0.11v-0.77z"/>
    <path class="cls-6" d="m9.5163 159.18h2.87a0.57 0.57 0 0 1 0.21 0.12v-0.77h-4a0.46 0.46 0 0 1 0.11 0.19v6.21a0.63 0.63 0 0 1-0.11 0.21h4v-0.78a0.59 0.59 0 0 1-0.21 0.12h-2.9a0.53 0.53 0 0 1-0.1-0.08v-2.25h2.19a0.59 0.59 0 0 1 0.21 0.12v-0.88a0.71 0.71 0 0 1-0.21 0.11h-2.19v-2.32h0.15z"/>
    <path class="cls-6" d="m21.546 159.18h2.89a0.58 0.58 0 0 1 0.21 0.12v-0.77h-4a0.46 0.46 0 0 1 0.11 0.19v6.21a0.62 0.62 0 0 1-0.12 0.21h4v-0.78a0.58 0.58 0 0 1-0.21 0.12h-2.89a0.51 0.51 0 0 1-0.15-0.08v-2.25h2.2a0.59 0.59 0 0 1 0.21 0.12v-0.88a0.71 0.71 0 0 1-0.21 0.11h-2.2v-2.32h0.15z"/>
    <path class="cls-6" d="m18.956 158.52h-0.77a0.59 0.59 0 0 1 0.11 0.21v4.7l-4-5.09v6.59a0.6 0.6 0 0 1-0.11 0.21h0.88a0.6 0.6 0 0 1-0.11-0.21v-4.73l4 5.09v-6.56a0.59 0.59 0 0 1 0.12-0.21z"/>
    <g id="bottom-text" transform="translate(-.4656)">
      <path class="cls-6" d="m-20.748 158.37a4.86 4.86 0 0 0-1.23 0.16 0.88 0.88 0 0 1-0.26 0 0.86 0.86 0 0 1-0.18 0l-0.21-0.09v6.49a0.59 0.59 0 0 1-0.11 0.21h0.89a0.6 0.6 0 0 1-0.11-0.21v-2.45a2.36 2.36 0 0 0 1.21 0.31 2.21 2.21 0 1 0 0-4.42zm0 3.76a1.69 1.69 0 0 1-1.21-0.46v-2.42a3.07 3.07 0 0 1 1.21-0.25 1.565 1.565 0 1 1 0 3.13z"/>
      <path id="text" class="cls-6" d="m-17.798 161.68a3.54 3.54 0 1 1 3.54 3.54 3.54 3.54 0 0 1-3.54-3.54zm3.54 2.85a2.85 2.85 0 1 0-2.89-2.85 2.85 2.85 0 0 0 2.89 2.85z"/>
      <path class="cls-6" d="m-7.1481 159.4v-1a0.44 0.44 0 0 1-0.22 0.09c-0.1 0-0.61-0.12-0.92-0.12a1.51 1.51 0 0 0-1.56 1.49 1.75 1.75 0 0 0 1.2 1.6 2 2 0 0 1 1.5 1.67 1.43 1.43 0 0 1-1.51 1.45 1.56 1.56 0 0 1-1.23-0.5v1.17a0.62 0.62 0 0 1 0.27-0.09c0.13 0 0.59 0.13 0.92 0.13a2.14 2.14 0 0 0 2.3-2.15 2.23 2.23 0 0 0-1.43-2.1c-0.85-0.47-1.31-0.58-1.31-1.19a0.89 0.89 0 0 1 1-0.85 1.08 1.08 0 0 1 0.99 0.4z"/>
      <path class="cls-6" d="m-6.2681 158.46v0.77a0.8 0.8 0 0 1 0.19-0.11h1.68v5.81a0.54 0.54 0 0 1-0.11 0.2h0.88a0.6 0.6 0 0 1-0.11-0.2v-5.81h1.72a0.82 0.82 0 0 1 0.19 0.11v-0.77z"/>
      <path class="cls-6" d="m30.382 161.44a1.15 1.15 0 0 0 0.52-1 2 2 0 0 0-2.22-2.1 4.87 4.87 0 0 0-1.23 0.16 0.87 0.87 0 0 1-0.25 0 0.86 0.86 0 0 1-0.18 0l-0.17-0.06v6.49a0.6 0.6 0 0 1-0.11 0.21h2.7a2 2 0 0 0 2-2 1.68 1.68 0 0 0-1.06-1.7zm-1.28 3.14h-1.63v-5.34a3.08 3.08 0 0 1 1.21-0.2 1.36 1.36 0 0 1 1.55 1.43 1 1 0 0 1-1 0.82h-0.8v0.61h1a1.06 1.06 0 0 1 1.21 1.25 1.52 1.52 0 0 1-1.54 1.43z"/>
      <path class="cls-6" d="m58.642 164.47h-3.09v-5.74a0.59 0.59 0 0 1 0.11-0.21h-0.88a0.59 0.59 0 0 1 0.11 0.21v6.19a0.59 0.59 0 0 1-0.11 0.21h4.07v-0.77a0.59 0.59 0 0 1-0.21 0.11z"/>
      <path class="cls-6" d="m37.402 164.76a3.23 3.23 0 0 0-1.55-2.62 1.57 1.57 0 0 0 1-1.55 2.06 2.06 0 0 0-2.21-2.21 4.88 4.88 0 0 0-1.23 0.16 0.86 0.86 0 0 1-0.25 0 0.9 0.9 0 0 1-0.18 0l-0.13-0.1v6.49a0.6 0.6 0 0 1-0.11 0.21h0.88a0.6 0.6 0 0 1-0.11-0.21v-5.69a3.08 3.08 0 0 1 1.21-0.2 1.44 1.44 0 0 1 1.54 1.54 1.3 1.3 0 0 1-1.54 1.16h-0.3v0.6c1.85 0 2.31 1.87 2.31 2.58v0.21h0.9a1.89 1.89 0 0 1-0.23-0.37z"/>
      <path class="cls-6" d="m44.082 164.92-2.85-6.61-2.85 6.61a1.13 1.13 0 0 1-0.15 0.21h0.91a0.29 0.29 0 0 1-0.07-0.21l0.66-1.53h3l0.64 1.53a0.29 0.29 0 0 1-0.07 0.21h0.91a1.37 1.37 0 0 1-0.13-0.21zm-4.09-2.12 1.24-2.87 1.24 2.87z"/>
      <path class="cls-6" d="m47.632 159.4v-1a0.44 0.44 0 0 1-0.22 0.09c-0.1 0-0.61-0.12-0.92-0.12a1.51 1.51 0 0 0-1.56 1.49 1.75 1.75 0 0 0 1.2 1.6 2 2 0 0 1 1.54 1.68 1.43 1.43 0 0 1-1.51 1.45 1.57 1.57 0 0 1-1.23-0.5v1.17a0.62 0.62 0 0 1 0.27-0.09c0.13 0 0.59 0.13 0.92 0.13a2.14 2.14 0 0 0 2.3-2.15 2.23 2.23 0 0 0-1.43-2.1c-0.85-0.47-1.31-0.58-1.31-1.19a0.89 0.89 0 0 1 1-0.85 1.08 1.08 0 0 1 0.95 0.39z"/>
      <path class="cls-6" d="m70.202 164.92-2-3.34 1.7-2.86a2.17 2.17 0 0 1 0.18-0.21h-1a0.27 0.27 0 0 1 0.07 0.21l-1.3 2.28-1.35-2.29a0.26 0.26 0 0 1 0.07-0.21h-1a2.17 2.17 0 0 1 0.18 0.21l1.7 2.86-2 3.34a1 1 0 0 1-0.18 0.21h1a0.24 0.24 0 0 1-0.07-0.21l1.65-2.75 1.63 2.76a0.24 0.24 0 0 1-0.07 0.21h1a0.92 0.92 0 0 1-0.21-0.21z"/>
      <path class="cls-6" d="m64.252 163a2.29 2.29 0 1 1-4.57 0v-4.27a0.59 0.59 0 0 0-0.11-0.21h0.88a0.59 0.59 0 0 0-0.11 0.21v4.27a1.63 1.63 0 1 0 3.26 0v-4.27a0.6 0.6 0 0 0-0.11-0.21h0.88a0.59 0.59 0 0 0-0.11 0.21v4.27z"/>
    </g>
    <rect id="bottom-crown-bg" class="cls-2" x="1.7263" y="49.26" width="6.02" height="1.16"/>
    <polygon id="center-key-outer-stroke" transform="translate(-26.614)" points="88.1 74.67 88.1 69 85.78 69 85.78 67.08 88.1 67.08 88.1 57.98 85.78 57.98 85.78 56.06 88.1 56.06 88.1 50.38 82.77 50.38 82.77 52.38 80.53 52.38 80.53 50.38 75.24 50.38 75.24 57.9 72.77 57.91 72.77 67.15 75.24 67.17 75.24 74.67 80.53 74.67 80.53 72.67 82.77 72.67 82.77 74.67"/>
    <polygon id="key-bg" class="cls-5" transform="translate(-26.614)" points="76.04 66.36 73.55 66.36 73.55 58.7 76.04 58.7 76.04 51.19 79.73 51.19 79.73 53.18 83.56 53.18 83.56 51.19 87.3 51.19 87.3 55.26 84.99 55.26 84.99 58.77 87.3 58.77 87.3 66.28 84.99 66.28 84.99 69.8 87.3 69.8 87.3 73.87 83.56 73.87 83.56 71.88 79.73 71.88 79.73 73.87 76.04 73.87"/>
    <polygon id="center-key-stroke" transform="translate(-26.614)" points="79.73 55.34 79.73 60.77 77.58 60.77 77.58 64.29 79.73 64.29 79.73 69.72 83.56 69.72 83.56 64.29 85.64 64.29 85.64 60.77 83.56 60.77 83.56 55.34"/>
    <polygon id="center-key-bg" class="cls-2" transform="translate(-26.614)" points="80.53 63.49 78.37 63.49 78.37 61.57 80.53 61.57 80.53 56.14 82.77 56.14 82.77 61.57 84.84 61.57 84.84 63.49 82.77 63.49 82.77 68.92 80.53 68.92"/>
    <path class="cls-5" d="m41.386 96.68v-49.23a2.54 2.54 0 0 1 0.73-1.69 2.4 2.4 0 0 1 4.09 1.69v49.23z"/>
    <path class="cls-5" d="m56.716 118.33a1.2 1.2 0 0 1-1.2-1.2v-10.58a1.19 1.19 0 0 1 0.35-0.84 1.18 1.18 0 0 1 0.85-0.35h0.48a1.2 1.2 0 0 1 1.2 1.2v10.59a1.2 1.2 0 0 1-1.2 1.2h-0.48z"/>
    <path class="cls-5" d="m59.196 114.74v-5.79a2.9 2.9 0 0 1 0 5.79z"/>
    <path class="cls-5" d="m30.656 118.33a1.2 1.2 0 0 1-1.2-1.2v-10.58a1.21 1.21 0 0 1 1.2-1.2h0.48a1.2 1.2 0 0 1 1.2 1.2v10.59a1.2 1.2 0 0 1-1.2 1.2h-0.48z"/>
    <path class="cls-5" d="m50.246 99.16a1.2 1.2 0 0 1-1.2 1.2h-10.58a1.2 1.2 0 0 1-1.2-1.2v-0.48a1.2 1.2 0 0 1 0.35-0.85 1.18 1.18 0 0 1 0.85-0.35h10.59a1.2 1.2 0 0 1 1.2 1.2v0.48z"/>
    <path class="cls-5" d="m37.576 124.8a1.2 1.2 0 0 1 1.2-1.2h10.61a1.2 1.2 0 0 1 1.2 1.2v0.48a1.2 1.2 0 0 1-1.2 1.2h-10.61a1.2 1.2 0 0 1-1.2-1.2z"/>
    <path class="cls-2" d="m-0.1137 58.1-0.4 0.23a5.63 5.63 0 0 1-2.9 1 3.38 3.38 0 0 1-2.45-1 1.92 1.92 0 0 1-0.39-1.44 4.56 4.56 0 0 0 3 1.11 6 6 0 0 0 2.44-0.56 3.76 3.76 0 0 1 1.5-0.38 3.31 3.31 0 0 1 1.7 0.44v0.08a3 3 0 0 0-2.5 0.52z"/>
    <path class="cls-2" d="m4.1163 42.09a0.73 0.73 0 0 1 0.21-0.51 0.73 0.73 0 0 1 1 0 0.72 0.72 0 1 1-1 1 0.72 0.72 0 0 1-0.21-0.49z"/>
    <path d="m10.236 46.25a3.06 3.06 0 0 0-3.06-3.06 3.1 3.1 0 0 0-1.85 0.62 0.72 0.72 0 0 1-0.42 0.07h-0.07a1.12 1.12 0 0 1-0.5-0.07 3 3 0 0 0-1.84-0.62 3.06 3.06 0 0 0-2.17 5.22 3 3 0 0 0 1.1 0.7v1.19h0.4v-1.07a3 3 0 0 0 0.67 0.08h4.69a3 3 0 0 0 0.66-0.07v1.08h0.4v-1.2a3.07 3.07 0 0 0 1.99-2.87z"/>
    <path id="crown" class="cls-2" d="m7.1763 48.91h-4.68a2.665 2.665 0 0 1 0-5.33 2.62 2.62 0 0 1 1.6 0.53 1.37 1.37 0 0 0 0.74 0.16h0.07a1 1 0 0 0 0.66-0.15 2.7 2.7 0 0 1 1.61-0.54 2.665 2.665 0 0 1 0 5.33z"/>
    <path d="m7.1663 44.6a1.59 1.59 0 0 0-1.59 1.59v1.58h1.59a1.59 1.59 0 0 0 0-3.17z"/>
    <path d="m2.4963 44.6a1.59 1.59 0 0 0-1.59 1.59 1.59 1.59 0 0 0 1.59 1.59h1.59v-1.59a1.59 1.59 0 0 0-1.59-1.59z"/>
    <path class="cls-5" d="m3.6763 47.38h-1.18a1.19 1.19 0 1 1 1.19-1.19v1.18z"/>
    <path class="cls-5" d="m7.1663 47.38h-1.19v-1.19a1.19 1.19 0 1 1 1.19 1.19z"/>
    <g id="sun-background" transform="translate(-.4656)">
      <path class="cls-5" d="m52.652 30.83-13.26-0.07a15.87 15.87 0 0 0-0.3-2.9z"/>
      <path class="cls-5" d="m36.732 22.18a15.74 15.74 0 0 0-1.83-2.26l9.32-9.41z"/>
      <path class="cls-5" d="m44.042 10.31-9.42 9.33a15.88 15.88 0 0 0-2.26-1.84z"/>
      <path class="cls-5" d="m29.242 11.85a5.11 5.11 0 0 0 1.48-1.28 6.87 6.87 0 0 0 0.84-2.29 6.15 6.15 0 0 1 1-2.47 3.81 3.81 0 0 1 3.63-1.31 6.08 6.08 0 0 0-2.14 2.94 4.84 4.84 0 0 0 0 2.86 4.36 4.36 0 0 1 0.16 1.9 5.05 5.05 0 0 1-0.9 1.8 4.3 4.3 0 0 0-0.85 1.74 3.37 3.37 0 0 0 0 1.49l-0.45 0.28a15.59 15.59 0 0 0-4.9-2l-0.32-1.41a8.4 8.4 0 0 1 2.45-2.25z"/>
      <path class="cls-5" d="m26.672 15.44a16.15 16.15 0 0 0-2.89-0.3l-0.07-13.24z"/>
      <path class="cls-5" d="m23.442 1.9-0.06 13.24a15.54 15.54 0 0 0-2.9 0.31z"/>
      <path class="cls-5" d="m14.072 13.44a5.08 5.08 0 0 0 0.14-2 6.8 6.8 0 0 0-1-2.21 6.16 6.16 0 0 1-1.06-2.42 3.82 3.82 0 0 1 1.64-3.5 6.12 6.12 0 0 0 0.58 3.57 4.84 4.84 0 0 0 2 2 4.36 4.36 0 0 1 1.48 1.28 5 5 0 0 1 0.65 1.94 4.28 4.28 0 0 0 0.63 1.83 3.29 3.29 0 0 0 1 1.07l-0.12 0.52a15.73 15.73 0 0 0-4.9 2l-1.22-0.77a8.3 8.3 0 0 1 0.18-3.31z"/>
      <path class="cls-5" d="m14.792 17.8a15.74 15.74 0 0 0-2.26 1.83l-9.41-9.32z"/>
      <path class="cls-5" d="m2.9319 10.51 9.32 9.41a15.83 15.83 0 0 0-1.84 2.26z"/>
      <path class="cls-5" d="m8.0419 27.88a16 16 0 0 0-0.3 2.89l-13.23 0.07z"/>
      <path class="cls-5" d="m-5.4881 31.1 13.23 0.06a15.76 15.76 0 0 0 0.3 2.9z"/>
      <path class="cls-5" d="m8.1319 27.45-1.38 0.31a8.32 8.32 0 0 1-2.29-2.48 5.11 5.11 0 0 0-1.28-1.48 6.87 6.87 0 0 0-2.33-0.8 6.13 6.13 0 0 1-2.46-1 3.82 3.82 0 0 1-1.31-3.64 6.1 6.1 0 0 0 2.93 2.11 4.87 4.87 0 0 0 2.86 0 4.38 4.38 0 0 1 1.9-0.16 5.17 5.17 0 0 1 1.84 0.91 4.29 4.29 0 0 0 1.74 0.85 3.29 3.29 0 0 0 1.49 0l0.29 0.47a15.83 15.83 0 0 0-2 4.91z"/>
      <path class="cls-5" d="m8.6219 34.79a15.43 15.43 0 0 1 14.95-19.25 15.43 15.43 0 0 1 15.42 15.46 15.51 15.51 0 0 1-0.48 3.83h-29.89z"/>
      <path class="cls-5" d="m36.982 22.55 0.77-1.22a8.38 8.38 0 0 1 3.35 0.14 5.1 5.1 0 0 0 2 0.15 6.87 6.87 0 0 0 2.21-1 6.19 6.19 0 0 1 2.43-1.06 3.81 3.81 0 0 1 3.5 1.64 6.1 6.1 0 0 0-3.57 0.58 4.84 4.84 0 0 0-2 2 4.33 4.33 0 0 1-1.24 1.45 5 5 0 0 1-1.94 0.65 4.27 4.27 0 0 0-1.83 0.63 3.44 3.44 0 0 0-1.07 1l-0.52-0.12a15.71 15.71 0 0 0-2.09-4.84z"/>
      <path class="cls-5" d="m39.092 34.06a15.81 15.81 0 0 0 0.3-2.89l13.25-0.06z"/>
    </g>
    <path id="text-omega-top" d="m23.886 22.49h6l-1-1.76-3.5 0.75c0.64-0.72 0.51-2.66-2.33-2.67-2.83 0-3 2-2.33 2.67l-3.43-0.75-1 1.76h6c-1.52-0.74-0.72-1.89 0.79-1.9s2.3 1.16 0.8 1.9z"/>
    <polygon id="text-i" transform="translate(-26.614)" points="41.3 32.56 42.22 32.56 42.88 32.56 42.22 31.83 42.22 24.39 42.88 23.65 42.22 23.65 41.3 23.65 40.38 23.65 39.72 23.65 40.38 24.39 40.38 31.83 39.72 32.56 40.38 32.56"/>
    <polygon id="text-h" transform="translate(-26.614)" points="50.49 24.39 50.49 27.17 47.07 27.17 47.07 24.39 47.73 23.65 47.07 23.65 46.15 23.65 45.23 23.65 44.58 23.65 45.23 24.39 45.23 31.83 44.58 32.56 45.23 32.56 46.15 32.56 47.07 32.56 47.73 32.56 47.07 31.83 47.07 29.02 50.49 29.02 50.49 31.83 49.83 32.56 50.49 32.56 51.41 32.56 52.32 32.56 52.98 32.56 52.32 31.83 52.32 24.39 52.98 23.65 52.32 23.65 51.41 23.65 50.49 23.65 49.83 23.65"/>
    <polygon id="text-sigma" transform="translate(-26.614)" points="59.89 32.56 60.95 30.7 57.33 30.7 58.8 28.12 57.34 25.56 60.22 25.56 59.15 23.68 54.08 23.68 56.62 28.12 54.08 32.56"/>
    <path id="feet-stroke" d="m7.8163 105.83a1.61 1.61 0 0 0-2.27 0.09c-0.27 0.34-5 6-5.87 7a5.4 5.4 0 0 1-0.66-0.6 22 22 0 0 0-3.75-3.46h-0.07a2.91 2.91 0 0 0-1.78-0.74 2.63 2.63 0 0 0-2.58 3.55l0.05 0.14h0.15l0.35-0.06h0.15v-0.25a0.86 0.86 0 0 1 0.28-0.62 0.83 0.83 0 0 1 1-0.11 1.78 1.78 0 0 0 0.47 0.81 1.64 1.64 0 0 0 1.62 0.41l1 0.95c-1.7-0.1-5.15-0.07-5.36-0.07h-0.25a3.23 3.23 0 0 0-1.86 0.2 2.74 2.74 0 0 0-1.35 1.49 2.62 2.62 0 0 0 0.73 2.85l0.11 0.1 0.52-0.39-0.06-0.12a0.87 0.87 0 0 1 0-0.69 0.84 0.84 0 0 1 0.9-0.54 1.68 1.68 0 0 0 0.79 0.47 1.7 1.7 0 0 0 1.3-0.17 1.68 1.68 0 0 0 0.75-0.87 12.14 12.14 0 0 1 2.41 0.4l-3 1.27c-0.25 0.09-0.35 0.11-0.48 0.16a2.85 2.85 0 0 0-1.65 1.11 2.63 2.63 0 0 0 1.56 4.1h0.14l0.06-0.14 0.15-0.32 0.06-0.14-0.13-0.08a0.86 0.86 0 0 1-0.37-0.58 0.83 0.83 0 0 1 0.32-0.79 1.63 1.63 0 0 0 0.68 0.08 1.75 1.75 0 0 0 1.51-1.68 16.79 16.79 0 0 1 4.92-1.39c2-0.17 3-0.16 3.58-0.16h0.16a0.61 0.61 0 0 1 0.43 0.12 0.37 0.37 0 0 1 0.08 0.27c0 0.27-0.07 0.89-0.09 1.09a1.7 1.7 0 0 0-0.37 1.87 0.93 0.93 0 0 1-0.68 0.86 1 1 0 0 1-0.75-0.11l-0.16-0.14-0.11 0.13-0.27 0.29-0.11 0.12 0.1 0.13a2.92 2.92 0 0 0 4.86-0.32 3.26 3.26 0 0 0 0.35-2.18v-0.66c0-2.73-1.26-3.8-2.4-4.22l5.23-6.57a1.44 1.44 0 0 0-0.34-1.89z"/>
    <path id="beak-stroke" d="m3.3063 59.69-0.08-0.4a2.52 2.52 0 0 1-1.94 0 4 4 0 0 0 2.1-1.14 1.62 1.62 0 0 0 0.49-1.15 1.51 1.51 0 0 0-1.49-1.53 1.43 1.43 0 0 0-1 0.37 2.73 2.73 0 0 0-2.22-1.72h-2.29a0.86 0.86 0 0 0-0.92 0.92v0.31h-0.17a17.42 17.42 0 0 1-1.31-2.55 1.12 1.12 0 0 1 0.07-1 0.61 0.61 0 0 1 0.49-0.27h5.25l0.25-0.4h-5.5a1 1 0 0 0-0.81 0.43 1.51 1.51 0 0 0-0.12 1.38 18.44 18.44 0 0 0 1.4 2.73l0.06 0.1h0.82v-0.77a0.56 0.56 0 0 1 0.14-0.39 0.53 0.53 0 0 1 0.38-0.13h2.29a2.37 2.37 0 0 1 1.94 1.74l0.35 0.08a1.08 1.08 0 0 1 0.9-0.47 1.12 1.12 0 0 1 0.79 0.33 1.1 1.1 0 0 1 0.33 0.79 1.23 1.23 0 0 1-0.37 0.87 3.37 3.37 0 0 1-2.07 1.06h-0.1l-0.1 0.12-0.13 0.19-0.11 0.16 0.15 0.12a2.7 2.7 0 0 0 2.54 0.23"/>
    <path id="beak" class="cls-2" d="m0.2863 51.51s2.49 1.66 3.48 2.45a3.22 3.22 0 0 1-0.51 5.33 2.58 2.58 0 0 1-2 0 4 4 0 0 0 2.13-1.14 1.62 1.62 0 0 0 0.49-1.15 1.51 1.51 0 0 0-1.49-1.53 1.43 1.43 0 0 0-1 0.37 2.73 2.73 0 0 0-2.22-1.72h-2.29a0.86 0.86 0 0 0-0.92 0.92v0.31h-0.17a17.42 17.42 0 0 1-1.31-2.55 1.12 1.12 0 0 1 0.07-1 0.61 0.61 0 0 1 0.49-0.27h5.25z"/>
    <path id="eagle-body" d="m19.386 59.38a2.58 2.58 0 0 0 1.18-2.16 2.66 2.66 0 0 0 0-0.32h-0.34c-4.9 0-5.43-6.59-12.14-6.59h-7.09l-0.71 1.2s2.49 1.66 3.48 2.45a3.19 3.19 0 0 1 1.18 2.5 3.26 3.26 0 0 1-1.72 2.85l0.08 0.38a5 5 0 0 1 0.86-0.14 5.19 5.19 0 0 1 5.54 4.85 5.36 5.36 0 0 1-0.32 2.1 2.22 2.22 0 0 0 1.41 0.49 2 2 0 0 0 1.17-0.35 8.24 8.24 0 0 0-1.58 7.14 4 4 0 0 0-2.59-1 3.91 3.91 0 0 0-3.13 1.53 2.27 2.27 0 0 1-1.82 0.91 2.24 2.24 0 0 1-1.33-0.43 2.29 2.29 0 0 0 1.59-2.18 2.14 2.14 0 0 0-0.51-1.44l-18.68-19.39a21.24 21.24 0 0 1-4.13-6.59 6.33 6.33 0 0 0-0.54 10.5l14 12.23 0.08 0.08c-0.16 0.31-0.3 0.62-0.43 0.94l-8.9-5.22a26.22 26.22 0 0 1-7.34-6 6.36 6.36 0 0 0 2.22 8.82l13.14 6a12.59 12.59 0 0 0-0.07 1.34v0.06c-0.56-0.07-5.22-0.68-6-0.83a51.55 51.55 0 0 1-10.6-3 6.33 6.33 0 0 0 6.29 7h10.77c0.11 0.44 0.26 0.88 0.41 1.3-0.23 0.05-9.08 2.12-10.54 2.39s-5.22 1-6.66 0.8a6.33 6.33 0 0 0 6.14 4.81 6.26 6.26 0 0 0 2.21-0.41l10.48-4.47c0.22 0.3 0.38 0.52 0.62 0.79 0 0-9.59 8.37-10.91 9.37a25.58 25.58 0 0 1-5.55 3.45 6.33 6.33 0 0 0 9.7-0.05l9.34-10.47q0.48 0.33 1 0.61l-4.1 8.83c-1.44 3-3.39 7.52-6.62 10.76a6.33 6.33 0 0 0 9.31-3.72l4.31-14.69a12.76 12.76 0 0 0 1.69 0.33c-0.06 0.65-0.4 4.5-1.13 8.84a4.1 4.1 0 0 0 0.58 0 4 4 0 0 0 4-4l-0.19-4.87a13 13 0 0 0 5.31-1.71l2.28 6.37a14.37 14.37 0 0 0-6.45 4.63c-1.92 2.56-2.8 4.62-6.63 6a4 4 0 0 0 2.76 1.11 3.62 3.62 0 0 0 0.46 0 8.21 8.21 0 0 0 7.09 5.08v-0.19a8.27 8.27 0 0 1 5.32-7.72c0.42 3.77 0.24 7.49-4.27 11.53a7 7 0 0 0-2.64 6.63 8.51 8.51 0 0 1 5.4-2.8c-1 1.13-2.83 2.58-4.62 4.67a6.93 6.93 0 0 0 2.2 10.74 9.34 9.34 0 0 1 0.58-4.31c0.69-1.82 4.9-4.51 5.38-9.25a10.3 10.3 0 0 1 0.51 2.84c0 3.82-1.51 6.12-3.94 9.57a3.86 3.86 0 0 0 3.54-0.17 14.27 14.27 0 0 0 4.34 7.65v-74.91a8.18 8.18 0 0 0-3.73-3.09z"/>
    <path id="eye" class="cls-5" d="m6.2963 52.47h1.2v-0.88h-5v0.88h1.2a1.275 1.275 0 0 0 2.55 0z"/>
    <path id="feet" class="cls-2" d="m-9.4637 113.26a1.31 1.31 0 0 0-1.19 2 1.31 1.31 0 0 0 2.39-0.31v-0.16h0.16a10.28 10.28 0 0 1 3.17 0.61l0.42 0.18-0.42 0.18-3.59 1.48a1.33 1.33 0 0 0-1.18 1.47 1.31 1.31 0 0 0 1.41 1.2 1.35 1.35 0 0 0 1.2-1.43v-0.13l0.12-0.05 0.15-0.06a17.1 17.1 0 0 1 5-1.42c2-0.17 3.09-0.16 3.61-0.16h0.16a1 1 0 0 1 0.72 0.23 0.76 0.76 0 0 1 0.2 0.56c0 0.35-0.1 1.17-0.1 1.2v0.08h-0.06a1.31 1.31 0 0 0-0.11 1.83 1.39 1.39 0 0 0 1.72 0.21 1.7 1.7 0 0 0 0.57-1.74v-0.31c0-2.13-0.85-3.68-2.42-4.12l-0.29-0.08 0.19-0.24 5.41-6.79a1.06 1.06 0 0 0-0.24-1.39 1.22 1.22 0 0 0-1.72 0c-0.29 0.37-5.76 6.86-6 7.14l-0.12 0.14-0.15-0.1a5 5 0 0 1-0.86-0.76 22.21 22.21 0 0 0-3.65-3.39 1.34 1.34 0 0 0-1.61 0.27 1.31 1.31 0 0 0 0.06 1.83 1.29 1.29 0 0 0 1.34 0.28h0.11l0.08 0.07 1.59 1.42 0.56 0.44-0.71-0.09c-1.25-0.16-5.86-0.12-5.91-0.12z"/>
    <path class="cls-2" d="m-6.8137 109.19a1.63 1.63 0 0 0-0.46 1.19h-0.09a1.2 1.2 0 0 0-1.06 0.28 1.22 1.22 0 0 0-0.39 0.74h-0.06a2.27 2.27 0 0 1 2.26-2.96h0.31l0.5 0.19a1.75 1.75 0 0 0-1.01 0.56z"/>
    <path class="cls-2" d="m-12.014 116.16a1.23 1.23 0 0 0 0 0.83 2.27 2.27 0 0 1 0.64-3.65 1.74 1.74 0 0 1 0.36-0.16 2.5 2.5 0 0 1 0.6-0.08 1.93 1.93 0 0 0-0.73 1 1.69 1.69 0 0 0 0.16 1.28h-0.22a1.19 1.19 0 0 0-0.81 0.78z"/>
    <path class="cls-2" d="m-9.6137 121a1.21 1.21 0 0 0 0.41 0.72v0.06a2.27 2.27 0 0 1-1.2-3.5 3.16 3.16 0 0 1 0.19-0.26 1.32 1.32 0 0 1 0.37-0.3 1.67 1.67 0 0 0 0.38 2.12l0.2 0.16a1.18 1.18 0 0 0-0.35 1z"/>
    <path class="cls-2" d="m3.1063 122.38a2.51 2.51 0 0 1-2.56-0.78v-0.05a1.36 1.36 0 0 0 0.92 0.08 1.32 1.32 0 0 0 0.87-0.77 1.76 1.76 0 0 0 2.24 0.26l0.1-0.07-0.08 0.15a2.52 2.52 0 0 1-1.49 1.18z"/>
  </g>
</svg>
