<svg xmlns="http://www.w3.org/2000/svg" viewBox="0 0 202 156" width="202" height="156">
	<style>
		tspan { white-space:pre }
		.shp0 { fill: #000000 } 
		.shp1 { fill: #f0f0f0 } 
		.shp2 { fill: #515151 } 
		.shp3 { fill: #ffffff } 
		.shp4 { fill: #1e1e1e } 
		.shp5 { fill: #242424 } 
		.shp6 { fill: #1c1c1c } 
	</style>
	<g id="surface1">
		<path id="Layer" class="shp0" d="M46.63 35.57L75.68 29L46.63 22.43" />
		<path id="Layer" fill-rule="evenodd" class="shp1" d="M61.5 29.2L73.92 29.14L61.23 31.91M61.23 26.12L73.92 28.88L61.5 28.82" />
		<path id="Layer" class="shp0" d="M55.33 15.98C55.3 15.82 55.29 15.52 55.38 14.84C55.45 14.33 55.78 13.87 56.12 13.35C56.51 12.8 56.91 12.22 57.03 11.49C57.17 10.79 57.03 10.15 56.88 9.57C56.7 8.84 56.54 8.11 56.84 7.1C57.41 5.27 58.98 4.32 58.99 4.32L59.31 4.14L58.98 3.98C57.63 3.44 55.83 3.95 54.77 5.21C54.24 5.88 54.02 6.79 53.81 7.67C53.62 8.44 53.43 9.17 53.08 9.69C52.75 10.15 52.31 10.45 51.79 10.79C51.14 11.21 50.35 11.74 49.54 12.77L40.06 29" />
		<path id="Layer" class="shp0" d="M53.24 29L46.65 0.02L40.06 29" />
		<path id="Layer" class="shp1" d="M49.57 14.44L46.78 1.78L46.84 14.17M46.47 14.17L46.53 1.78L43.77 14.44" />
		<path id="Layer" class="shp1" d="M54.56 16.47L54.99 16.18C54.93 16 54.88 15.73 55.01 14.78C55.1 14.21 55.43 13.69 55.8 13.13C56.16 12.62 56.54 12.07 56.66 11.43C56.78 10.79 56.66 10.24 56.52 9.66C56.34 8.86 56.16 8.07 56.49 6.97C56.96 5.54 57.95 4.63 58.48 4.23C57.34 3.95 55.9 4.45 55.07 5.46C54.57 6.04 54.38 6.91 54.17 7.77C53.98 8.53 53.78 9.32 53.39 9.9C53.01 10.42 52.54 10.73 51.98 11.1C51.28 11.59 50.48 12.1 49.67 13.26L49.94 14.55" />
		<path id="Layer" class="shp0" d="M62.02 25.92C62.1 25.79 62.31 25.57 62.85 25.16C63.27 24.84 63.82 24.75 64.44 24.62C65.1 24.5 65.79 24.38 66.4 23.95C66.99 23.55 67.35 23 67.65 22.48C68.04 21.84 68.45 21.2 69.38 20.71C71.08 19.82 72.85 20.25 72.86 20.26L73.22 20.36L73.09 20.02C72.53 18.68 70.88 17.77 69.26 17.92C68.4 18.01 67.6 18.5 66.82 18.98C66.14 19.38 65.49 19.77 64.87 19.88C64.32 19.98 63.79 19.88 63.18 19.75C62.42 19.6 61.5 19.4 60.2 19.57L41.99 24.35" />
		<path id="Layer" class="shp0" d="M51.3 33.65L67.18 8.51L41.99 24.37" />
		<path id="Layer" class="shp1" d="M59.02 20.77L66.03 9.85L57.29 18.65M57.03 18.39L65.85 9.67L54.92 16.67" />
		<path id="Layer" class="shp1" d="M61.12 25.72L61.63 25.83C61.71 25.66 61.87 25.43 62.63 24.85C63.1 24.5 63.71 24.37 64.36 24.25C64.98 24.13 65.64 24.01 66.18 23.64C66.72 23.27 67.02 22.8 67.33 22.3C67.77 21.61 68.2 20.91 69.22 20.38C70.56 19.69 71.91 19.75 72.56 19.84C71.95 18.83 70.59 18.17 69.28 18.3C68.52 18.36 67.76 18.84 67.01 19.3C66.34 19.7 65.64 20.12 64.95 20.25C64.32 20.35 63.76 20.24 63.11 20.11C62.26 19.96 61.33 19.75 59.94 20L59.22 21.11" />
		<path id="Layer" class="shp0" d="M33.59 20.33C33.44 20.36 33.14 20.38 32.46 20.28C31.94 20.21 31.48 19.88 30.96 19.54C30.41 19.16 29.84 18.76 29.1 18.64C28.39 18.5 27.76 18.64 27.17 18.79C26.44 18.96 25.71 19.13 24.7 18.82C22.86 18.25 21.92 16.69 21.92 16.68L21.73 16.36L21.58 16.69C21.03 18.04 21.55 19.84 22.8 20.88C23.48 21.42 24.39 21.64 25.28 21.85C26.04 22.04 26.78 22.22 27.3 22.58C27.76 22.9 28.06 23.35 28.39 23.87C28.83 24.52 29.34 25.3 30.38 26.11L46.65 35.57" />
		<path id="Layer" class="shp0" d="M46.65 22.43L17.61 28.99L46.65 35.56" />
		<path id="Layer" fill-rule="evenodd" class="shp1" d="M31.79 28.8L19.38 28.86L32.06 26.09M32.06 31.88L19.38 29.11L31.79 29.18" />
		<path id="Layer" class="shp1" d="M34.09 21.11L33.8 20.67C33.62 20.73 33.35 20.78 32.4 20.66C31.82 20.56 31.3 20.23 30.75 19.86C30.23 19.51 29.68 19.13 29.04 19.01C28.39 18.88 27.85 19 27.26 19.14C26.47 19.33 25.68 19.51 24.58 19.17C23.13 18.71 22.22 17.71 21.82 17.19C21.55 18.33 22.05 19.76 23.06 20.59C23.64 21.09 24.52 21.28 25.37 21.49C26.13 21.68 26.93 21.88 27.5 22.28C28.02 22.64 28.34 23.12 28.71 23.67C29.19 24.38 29.71 25.18 30.87 25.98L32.16 25.71" />
		<path id="Layer" class="shp0" d="M43.56 13.66C43.43 13.57 43.2 13.37 42.79 12.83C42.48 12.41 42.38 11.86 42.26 11.25C42.14 10.58 42.01 9.89 41.58 9.29C41.18 8.69 40.63 8.34 40.11 8.04C39.47 7.64 38.83 7.24 38.34 6.31C37.45 4.62 37.88 2.85 37.89 2.84L37.99 2.48L37.64 2.61C36.3 3.17 35.39 4.81 35.54 6.44C35.63 7.29 36.13 8.09 36.6 8.87C37.01 9.54 37.4 10.19 37.51 10.81C37.61 11.36 37.51 11.89 37.38 12.5C37.22 13.25 37.03 14.18 37.2 15.48L41.99 33.64" />
		<path id="Layer" class="shp0" d="M51.31 24.35L26.12 8.5L42 33.65" />
		<path id="Layer" class="shp2" d="M38.4 16.64L27.46 9.65L36.28 18.38M36.02 18.64L27.28 9.83L34.29 20.74" />
		<path id="Layer" class="shp2" d="M43.36 14.56L43.47 14.05C43.29 13.96 43.07 13.81 42.49 13.05C42.14 12.58 42.01 11.97 41.88 11.32C41.76 10.7 41.64 10.05 41.28 9.5C40.91 8.97 40.44 8.66 39.93 8.35C39.23 7.92 38.54 7.49 38 6.47C37.32 5.13 37.37 3.78 37.46 3.13C36.46 3.74 35.79 5.11 35.92 6.41C35.98 7.17 36.47 7.93 36.92 8.68C37.33 9.35 37.75 10.04 37.88 10.73C37.98 11.36 37.87 11.92 37.74 12.57C37.58 13.42 37.38 14.35 37.63 15.73L38.73 16.45" />
		<path id="Layer" class="shp0" d="M43.56 13.66C43.43 13.57 43.2 13.37 42.79 12.83C42.48 12.41 42.38 11.86 42.26 11.25C42.14 10.58 42.01 9.89 41.58 9.29C41.18 8.69 40.63 8.34 40.11 8.04C39.47 7.64 38.83 7.24 38.34 6.31C37.45 4.62 37.88 2.85 37.89 2.84L37.99 2.48L37.64 2.61C36.3 3.17 35.39 4.81 35.54 6.44C35.63 7.29 36.13 8.09 36.6 8.87C37.01 9.54 37.4 10.19 37.51 10.81C37.61 11.36 37.51 11.89 37.38 12.5C37.22 13.25 37.03 14.18 37.2 15.48L41.99 33.64" />
		<path id="Layer" class="shp0" d="M51.31 24.35L26.12 8.5L42 33.65" />
		<path id="Layer" class="shp1" d="M38.4 16.64L27.46 9.65L36.28 18.38M36.02 18.64L27.28 9.83L34.29 20.74" />
		<path id="Layer" class="shp1" d="M43.36 14.56L43.47 14.05C43.29 13.96 43.07 13.81 42.49 13.05C42.14 12.58 42.01 11.97 41.88 11.32C41.76 10.7 41.64 10.05 41.28 9.5C40.91 8.97 40.44 8.66 39.93 8.35C39.23 7.92 38.54 7.49 38 6.47C37.32 5.13 37.37 3.78 37.46 3.13C36.46 3.74 35.79 5.11 35.92 6.41C35.98 7.17 36.47 7.93 36.92 8.68C37.33 9.35 37.75 10.04 37.88 10.73C37.98 11.36 37.87 11.92 37.74 12.57C37.58 13.42 37.38 14.35 37.63 15.73L38.73 16.45" />
		<path id="Layer" class="shp3" d="M44.35 148.54C44.35 148.54 44.46 148.66 44.46 148.72L44.46 154.54C44.46 154.6 44.35 154.74 44.35 154.74L48.13 154.74L48.13 154C48.13 154 47.99 154.11 47.93 154.11L45.21 154.11C45.17 154.1 45.11 154.07 45.07 154.05L45.07 151.93L47.13 151.93C47.19 151.93 47.33 152.06 47.33 152.06L47.33 151.23C47.33 151.23 47.18 151.32 47.13 151.32L45.07 151.32L45.07 149.16L47.94 149.16C48.01 149.16 48.14 149.27 48.14 149.27L48.14 148.54L44.35 148.54Z" />
		<path id="Layer" class="shp3" d="M68.21 148.38C67.91 148.38 66.74 148.56 66.74 149.78C66.74 150.67 67.38 151.06 67.86 151.29C68.34 151.52 69.3 151.82 69.3 152.85C69.3 153.88 68.43 154.21 67.89 154.21C67.35 154.21 66.97 154 66.73 153.73L66.73 154.84C66.73 154.84 66.86 154.76 66.99 154.76C67.11 154.76 67.56 154.88 67.86 154.88C68.39 154.88 70.01 154.64 70.01 152.87C70.01 151.87 69.52 151.36 68.67 150.88C67.87 150.44 67.44 150.35 67.44 149.78C67.44 149.21 67.96 148.98 68.34 148.98C68.72 148.98 69.03 149.03 69.28 149.36L69.28 148.41C69.28 148.41 69.15 148.5 69.06 148.5C68.96 148.5 68.49 148.38 68.21 148.38Z" />
		<path id="Layer" class="shp4" d="M61.32 29C61.32 37.09 54.74 43.64 46.65 43.64C38.54 43.64 31.98 37.09 31.98 29C31.98 20.92 38.54 14.36 46.65 14.36C54.74 14.36 61.32 20.92 61.32 29Z" />
		<path id="Layer" class="shp0" d="M0 91.01C0 103.42 4.86 115.09 13.63 123.88C22.44 132.65 34.14 137.48 46.59 137.48C59.02 137.48 70.74 132.65 79.54 123.88C88.31 115.09 93.17 103.42 93.17 91.01L93.17 32.57L0 32.57L0 91.01Z" />
		<path id="Layer" class="shp1" d="M46.83 33.78L46.83 136.31C58.79 136.25 70.12 131.56 78.68 123.01C87.24 114.47 91.98 103.09 91.98 91L91.98 33.77L46.83 33.78Z" />
		<path id="Layer" fill-rule="evenodd" class="shp3" d="M48.82 20.11L52.02 19.43L52.99 21.06L47.37 21.06C48.78 20.37 48.06 19.29 46.62 19.29C45.22 19.29 44.48 20.37 45.88 21.06L40.22 21.06L41.21 19.43L44.45 20.11C43.83 19.43 43.97 17.63 46.63 17.63C49.31 17.63 49.42 19.43 48.82 20.11ZM40.22 22.16L39.62 22.83L39.62 29.81L40.22 30.48L37.26 30.48L37.88 29.81L37.88 22.83L37.26 22.16L40.22 22.16ZM44.78 22.16L44.15 22.83L44.15 25.43L47.34 25.43L47.34 22.83L46.74 22.16L49.7 22.16L49.09 22.83L49.09 29.81L49.7 30.48L46.74 30.48L47.34 29.81L47.34 27.16L44.15 27.16L44.15 29.81L44.78 30.48L41.81 30.48L42.43 29.81L42.43 22.83L41.81 22.16L44.78 22.16ZM55.47 22.17L56.48 23.94L53.76 23.94L55.18 26.33L53.76 28.74L57.16 28.74L56.18 30.48L50.74 30.48L53.1 26.33L50.74 22.17L55.47 22.17ZM109.16 32.79C111.42 32.79 113.61 33.14 113.61 35.78C113.61 37.12 112.58 38.06 111.25 38.28L111.25 38.29C111.76 38.48 112 38.72 112.36 39.41L114.53 43.79L112.65 43.79L110.9 39.98C110.4 38.9 109.84 38.89 108.98 38.89L108 38.89L108 43.79L106.34 43.79L106.34 32.79L109.16 32.79ZM128.5 32.79C130.86 32.79 132.8 33.59 132.8 36.09C132.8 38.53 130.81 39.39 128.74 39.39L127.13 39.39L127.13 43.79L125.5 43.79L125.5 32.79L128.5 32.79ZM149.56 32.79C151.94 32.79 153.59 33.53 153.59 35.56C153.59 37.07 152.66 37.83 151.22 38.18L151.22 38.21C152.78 38.33 153.87 39.3 153.87 40.84C153.87 43.21 151.84 43.79 149.52 43.79L146.47 43.79L146.47 32.79L149.56 32.79ZM158.2 32.79L158.2 42.39L163 42.39L163 43.79L156.57 43.79L156.57 32.79L158.2 32.79ZM166.42 32.79L166.42 43.79L164.79 43.79L164.79 32.79L166.42 32.79ZM148.1 37.49L149.01 37.49C150.59 37.49 151.94 37.34 151.94 35.71C151.94 34.41 150.78 34.08 149.83 34.08L148.1 34.08L148.1 37.49ZM108 37.51L109.39 37.51C110.95 37.51 111.86 36.86 111.86 35.81C111.86 34.81 111.08 34.19 109.57 34.19L108 34.19L108 37.51ZM127.13 38.01L128.76 38.01C129.78 38.01 131.06 37.51 131.06 36.06C131.06 34.67 129.55 34.19 128.53 34.19L127.13 34.19L127.13 38.01ZM148.1 42.49L149.34 42.49C150.81 42.49 152.14 42.19 152.14 40.71C152.14 39.01 150.59 38.78 149.17 38.78L148.1 38.78L148.1 42.49ZM176.69 43.5L179.35 45.81L177.32 45.81L175.19 43.91M139.76 51.34L139.63 52.88C138.91 52.47 138.09 52.27 137.25 52.27C134.61 52.27 132.86 54.09 132.86 56.56C132.86 59.14 134.79 60.86 137.18 60.86C138 60.86 139.1 60.65 139.67 60.32L139.78 61.84C138.9 62.19 137.83 62.24 137.16 62.24C133.54 62.24 131.12 60.01 131.12 56.52C131.12 53.13 133.68 50.88 137.18 50.88C138.06 50.88 138.94 50.99 139.76 51.34ZM147.9 51.07L152.74 62.06L150.96 62.06L149.8 59.28L144.18 59.28L143.02 62.06L141.29 62.06L146.18 51.07L147.9 51.07ZM144.71 57.99L149.28 57.99L146.99 52.54L144.71 57.99ZM144.26 69.23L144.12 70.81C143.32 70.31 142.44 70.07 140.96 70.07C138.32 70.07 136.58 71.9 136.58 74.36C136.58 76.94 138.51 78.67 140.89 78.67C142.02 78.67 142.31 78.55 142.72 78.47L142.72 75.13L140.31 75.13L140.31 73.84L144.36 73.84L144.36 79.56C143.74 79.77 142.65 80.04 140.86 80.04C137.23 80.04 134.83 77.8 134.83 74.31C134.83 70.93 137.4 68.68 140.89 68.68C142.57 68.68 143.3 68.91 144.26 69.23ZM109.74 68.87C113.13 68.87 115.83 70.88 115.83 74.27C115.83 77.95 113.5 79.87 109.74 79.87L106.34 79.87L106.34 68.87L109.74 68.87ZM182.42 68.87L185.95 78.47L185.98 78.47L189.6 68.87L191.33 68.87L186.96 79.87L184.9 79.87L180.59 68.87L182.42 68.87ZM108 78.47L109.72 78.47C112.53 78.47 114.11 77.18 114.11 74.34C114.11 71.77 112.27 70.27 109.91 70.27L108 70.27L108 78.47ZM14.48 151.5C14.48 153.32 12.99 154.81 11.15 154.81C9.32 154.81 7.85 153.32 7.85 151.5C7.85 149.66 9.32 148.19 11.15 148.19C12.99 148.19 14.48 149.66 14.48 151.5ZM65.93 154.53C65.99 154.63 66.07 154.72 66.07 154.72L65.23 154.72C65.23 154.72 65.32 154.61 65.29 154.53L64.69 153.11L61.86 153.11L61.24 154.53C61.22 154.61 61.31 154.72 61.31 154.72L60.45 154.72C60.45 154.72 60.54 154.63 60.59 154.53L63.26 148.33L65.93 154.53ZM42.17 153.13L42.17 148.74C42.17 148.67 42.07 148.54 42.07 148.54L42.89 148.54C42.89 148.54 42.79 148.67 42.79 148.74L42.79 154.88L39.01 150.12L39.01 154.54C39.01 154.6 39.11 154.74 39.11 154.74L38.28 154.74C38.28 154.74 38.39 154.6 38.39 154.54L38.39 148.36L42.17 153.13ZM7.15 150.47C7.15 151.61 6.23 152.55 5.08 152.55C4.66 152.55 4.26 152.44 3.94 152.25L3.94 154.54C3.94 154.6 4.05 154.74 4.05 154.74L3.22 154.74C3.22 154.74 3.32 154.6 3.32 154.54L3.32 148.46C3.32 148.46 3.46 148.52 3.52 148.54C3.52 148.54 3.62 148.58 3.69 148.58C3.72 148.58 3.82 148.58 3.92 148.54C4.18 148.46 4.7 148.4 5.08 148.4C6.23 148.4 7.15 149.32 7.15 150.47ZM53.57 150.36C53.57 150.78 53.34 151.11 53.09 151.28C53.63 151.48 54 152.05 54 152.87C54 153.98 53.07 154.74 52.14 154.74L49.62 154.74C49.62 154.74 49.72 154.6 49.72 154.54L49.72 148.46C49.72 148.46 49.86 148.52 49.91 148.54C49.91 148.54 50.02 148.58 50.08 148.58C50.12 148.58 50.22 148.58 50.32 148.54C50.58 148.46 51.1 148.4 51.48 148.4C52.81 148.4 53.57 149.21 53.57 150.36ZM59.19 150.47C59.19 151.21 58.8 151.68 58.21 151.92C59.29 152.48 59.58 153.65 59.67 154.38C59.67 154.45 59.85 154.72 59.85 154.72L58.99 154.72L58.99 154.53C58.99 153.87 58.56 152.13 56.83 152.13L56.83 151.56L57.11 151.56C57.96 151.56 58.57 151.15 58.57 150.47C58.57 149.68 58.09 149.03 57.11 149.03C56.75 149.03 56.3 149.06 55.98 149.2L55.98 154.54C55.98 154.6 56.09 154.74 56.09 154.74L55.25 154.74C55.25 154.74 55.35 154.6 55.35 154.54L55.35 148.46C55.35 148.46 55.49 148.52 55.55 148.54C55.55 148.54 55.66 148.58 55.73 148.58C55.77 148.58 55.87 148.58 55.98 148.54C56.24 148.46 56.73 148.4 57.11 148.4C58.5 148.4 59.19 149.32 59.19 150.47ZM22.83 148.48L22.83 149.2C22.83 149.2 22.72 149.12 22.65 149.1L21.04 149.1L21.04 154.54C21.04 154.6 21.15 154.74 21.15 154.74L20.32 154.74C20.32 154.74 20.43 154.6 20.43 154.54L20.43 149.1L18.85 149.1C18.78 149.12 18.67 149.2 18.67 149.2L18.67 148.48L22.83 148.48ZM31.79 148.48L31.79 149.2C31.79 149.2 31.67 149.12 31.6 149.1L29.99 149.1L29.99 154.54C29.99 154.6 30.09 154.74 30.09 154.74L29.27 154.74C29.27 154.74 29.37 154.6 29.37 154.54L29.37 149.1L27.79 149.1C27.73 149.12 27.61 149.2 27.61 149.2L27.61 148.48L31.79 148.48ZM81.31 148.53C81.31 148.53 81.18 148.66 81.18 148.72L81.18 152.73C81.18 153.57 81.88 154.27 82.72 154.27C83.57 154.27 84.26 153.57 84.26 152.73L84.26 148.72C84.26 148.66 84.15 148.53 84.15 148.53L84.98 148.53C84.98 148.53 84.87 148.66 84.87 148.72L84.87 152.73C84.87 153.91 83.91 154.88 82.72 154.88C81.54 154.88 80.57 153.91 80.57 152.73L80.57 148.72C80.57 148.66 80.46 148.53 80.46 148.53L81.31 148.53ZM87.03 148.53C87.03 148.53 86.94 148.66 86.97 148.72L88.25 150.87L89.51 148.72C89.55 148.66 89.46 148.53 89.46 148.53L90.37 148.53C90.37 148.53 90.23 148.67 90.19 148.72L88.62 151.41L90.46 154.53C90.52 154.63 90.63 154.72 90.63 154.72L89.71 154.72C89.71 154.72 89.82 154.61 89.77 154.53L88.25 151.95L86.72 154.53C86.67 154.61 86.78 154.72 86.78 154.72L85.86 154.72C85.86 154.72 85.97 154.63 86.03 154.53L87.89 151.41L86.28 148.72C86.25 148.67 86.13 148.53 86.13 148.53L87.03 148.53ZM76.81 148.54C76.81 148.54 76.71 148.67 76.71 148.74L76.71 154.11L79.6 154.11C79.66 154.11 79.8 154 79.8 154L79.8 154.72L75.97 154.72C75.97 154.72 76.08 154.6 76.08 154.53L76.08 148.74C76.08 148.67 75.97 148.54 75.97 148.54L76.81 148.54ZM8.48 151.5C8.48 152.98 9.67 154.17 11.15 154.17C12.63 154.17 13.84 152.98 13.84 151.5C13.84 150.02 12.63 148.83 11.15 148.83C9.67 148.83 8.48 150.02 8.48 151.5ZM3.94 149.2L3.94 151.48C4.21 151.77 4.64 151.92 5.08 151.92C5.88 151.92 6.52 151.27 6.52 150.47C6.52 149.68 5.88 149.03 5.08 149.03C4.71 149.03 4.27 149.06 3.94 149.2ZM50.34 149.2L50.34 154.21L51.88 154.21C52.8 154.21 53.36 153.49 53.36 152.89C53.36 152.3 53.21 151.72 52.21 151.72L51.25 151.71L51.25 151.14C51.58 151.14 51.64 151.12 52.03 151.12C52.49 151.12 52.93 150.71 52.93 150.36C52.93 149.56 52.45 149.03 51.47 149.03C51.11 149.03 50.66 149.06 50.34 149.2ZM62.1 152.55L64.44 152.55L63.26 149.85L62.1 152.55Z" />
		<path id="Layer" fill-rule="evenodd" class="shp5" d="M28.8 41.31C28.98 41.44 29.25 41.44 29.48 41.44C29.72 41.44 29.98 41.45 30.17 41.31C30.62 40.97 31.15 40.8 31.7 40.8C32.37 40.8 32.98 41.06 33.47 41.54C33.93 42 34.21 42.63 34.21 43.29C34.21 44.66 33.07 45.79 31.7 45.79L27.29 45.79C26.62 45.79 26.01 45.52 25.55 45.06C25.06 44.58 24.79 43.95 24.79 43.29C24.79 42.63 25.06 42 25.55 41.54C26.01 41.06 26.62 40.8 27.29 40.8C27.85 40.8 28.37 41 28.8 41.31ZM25.84 43.24C25.84 43.63 25.98 44.02 26.26 44.29C26.53 44.57 26.9 44.73 27.29 44.73L28.8 44.73L28.8 43.24C28.8 42.5 28.2 41.76 27.29 41.76C26.47 41.76 25.84 42.43 25.84 43.24ZM30.2 43.24L30.2 44.73L31.7 44.73C32.1 44.73 32.46 44.57 32.73 44.29C33.01 44.02 33.17 43.63 33.17 43.24C33.17 42.85 33.01 42.47 32.73 42.19C32.46 41.9 32.1 41.76 31.7 41.76C30.87 41.76 30.2 42.43 30.2 43.24ZM27.29 46.16L31.7 46.16C31.91 46.16 32.13 46.14 32.31 46.09L32.31 47.1L26.69 47.1L26.69 46.08C26.87 46.14 27.08 46.16 27.29 46.16ZM25.22 48.23C25.22 48.23 27.61 49.79 28.5 50.52C28.91 50.86 29.12 51.16 29.3 51.52C29.39 51.73 29.47 51.94 29.52 52.16C29.57 52.38 29.6 52.61 29.6 52.84C29.6 53.27 29.5 53.69 29.34 54.06C29.23 54.31 29.09 54.53 28.92 54.73C28.66 55.04 28.36 55.3 28 55.48C27.45 55.79 26.59 55.67 26.16 55.5C26.93 55.4 27.57 54.9 28.12 54.42C28.39 54.17 28.62 53.74 28.62 53.33C28.62 52.96 28.45 52.61 28.18 52.33C27.91 52.07 27.57 51.92 27.17 51.92C26.84 51.92 26.53 52.04 26.26 52.28C25.89 51.4 24.98 50.66 24.19 50.66L22.03 50.66C21.39 50.66 21.18 51.13 21.18 51.52L21.18 51.81L21 51.81C20.81 51.46 20.06 50.17 19.78 49.43C19.66 49.04 19.69 48.69 19.87 48.47C19.96 48.31 20.14 48.23 20.29 48.23L25.22 48.23ZM21.91 54.26C22.95 54.24 23.63 53.96 24.21 53.73C24.67 53.54 25.06 53.39 25.58 53.39C26.37 53.39 26.96 53.66 27.2 53.82L27.17 53.91C26.84 53.8 26.18 53.68 24.86 54.4C24.73 54.46 24.61 54.53 24.49 54.61C23.78 55.01 22.89 55.53 21.76 55.53C21.25 55.53 20.09 55.33 19.48 54.57C19.17 54.2 19.04 53.76 19.1 53.22C19.53 53.6 20.51 54.27 21.91 54.26ZM32.4 100.38C32.37 100.52 32.33 100.61 32.31 100.65L27.23 107.01L27.05 107.22L27.32 107.29C28.79 107.7 29.62 109.16 29.6 111.15L29.6 111.44C29.62 112.02 29.71 112.61 29.07 113.07C28.3 113.64 27.5 112.91 27.47 112.88C27.26 112.64 27.14 112.33 27.17 112C27.17 111.68 27.32 111.38 27.56 111.16L27.64 111.11L27.64 111.04C27.64 111.01 27.73 110.24 27.73 109.92C27.73 109.7 27.65 109.52 27.53 109.4C27.38 109.26 27.18 109.19 26.87 109.19C25.69 109.19 24.5 109.22 23.33 109.33C21.34 109.49 19.42 110.3 18.59 110.66L18.46 110.72L18.34 110.76L18.34 110.89C18.34 111.62 17.88 112.17 17.21 112.23C16.91 112.24 16.57 112.15 16.32 111.93C16.08 111.71 15.93 111.43 15.9 111.11C15.84 110.44 16.17 109.93 17 109.72L20.37 108.34L20.75 108.16L20.37 108C20.33 107.98 19.35 107.57 17.39 107.43L17.24 107.41L17.21 107.56C17.12 107.89 16.9 108.14 16.62 108.3C16.35 108.47 16.01 108.52 15.71 108.42C15.37 108.34 15.14 108.13 14.96 107.85C14.8 107.57 14.76 107.24 14.82 106.93C15.04 106.23 15.69 105.98 16.08 106.02L16.11 106.02C16.14 106.02 20.48 105.99 21.64 106.12L22.32 106.23L21.79 105.81L20.33 104.49L20.23 104.41L20.14 104.46C19.8 104.56 19.32 104.59 18.9 104.19C18.4 103.69 18.37 102.94 18.83 102.47C19.32 101.99 19.97 101.99 20.37 102.21C21.31 102.77 22.83 104.41 23.78 105.39C24.17 105.83 24.45 106 24.58 106.09L24.73 106.2L24.81 106.07C25.06 105.8 30.17 99.74 30.45 99.39C30.51 99.32 30.61 99.25 30.74 99.18C31.23 99.65 31.8 100.05 32.4 100.38ZM19.08 101.53L19.54 101.72C19.2 101.76 18.87 101.9 18.56 102.2C18.29 102.5 18.13 102.91 18.13 103.32C18.1 103.29 18.07 103.28 18.07 103.28C17.7 103.2 17.33 103.3 17.06 103.54C16.85 103.73 16.71 103.97 16.68 104.24L16.65 104.25C16.41 103.46 16.63 102.61 17.24 102.06C17.67 101.68 18.19 101.47 18.78 101.51C18.87 101.51 18.98 101.52 19.08 101.53ZM15.17 105.93C14.92 106.07 14.58 106.5 14.49 106.84C14.37 107.24 14.42 107.68 14.64 108.04L14.46 108.04C14.12 108.14 13.82 108.4 13.69 108.75C13.6 109 13.6 109.27 13.69 109.52L13.67 109.54C13.08 108.98 12.9 108.13 13.18 107.33C13.45 106.59 14.27 105.91 15.17 105.93ZM16.29 112.36C16.05 112.6 15.93 112.96 15.99 113.31C16.02 113.57 16.17 113.81 16.35 114L16.32 114.04C15.56 113.81 14.96 113.17 14.82 112.35C14.67 111.47 15.19 110.49 15.75 110.22C15.31 110.84 15.49 111.88 16.29 112.36ZM29.39 113.29C29.13 113.89 28.56 114.39 27.88 114.57C26.99 114.8 26.07 114.52 25.46 113.84L25.52 113.79C26.08 114.07 26.9 113.87 27.18 113.1C27.74 113.68 28.74 113.91 29.39 113.29Z" />
		<path id="Layer" class="shp3" d="M16.74 148.38C16.45 148.38 15.28 148.56 15.28 149.78C15.28 150.67 15.91 151.06 16.39 151.29C16.88 151.52 17.84 151.82 17.84 152.85C17.84 153.88 16.97 154.21 16.42 154.21C15.88 154.21 15.5 154 15.27 153.73L15.27 154.84C15.27 154.84 15.4 154.76 15.52 154.76C15.64 154.76 16.09 154.88 16.39 154.88C16.92 154.88 18.55 154.64 18.55 152.87C18.55 151.87 18.06 151.36 17.21 150.88C16.41 150.44 15.97 150.35 15.97 149.78C15.97 149.21 16.5 148.98 16.88 148.98C17.25 148.98 17.57 149.03 17.81 149.36L17.81 148.41C17.81 148.41 17.69 148.5 17.6 148.5C17.5 148.5 17.03 148.38 16.74 148.38Z" />
		<path id="Layer" class="shp3" d="M33.05 148.54C33.05 148.54 33.16 148.66 33.16 148.72L33.16 154.54C33.16 154.6 33.05 154.74 33.05 154.74L36.82 154.74L36.82 154C36.82 154 36.69 154.11 36.62 154.11L33.91 154.11C33.87 154.1 33.81 154.07 33.77 154.05L33.77 151.93L35.83 151.93C35.89 151.93 36.02 152.06 36.02 152.06L36.02 151.23C36.02 151.23 35.88 151.32 35.83 151.32L33.77 151.32L33.77 149.16L36.64 149.16C36.7 149.16 36.83 149.27 36.83 149.27L36.83 148.54L33.05 148.54Z" />
		<path id="Layer" class="shp3" d="M119.53 68.87L119.53 79.87L125.95 79.87L125.95 78.47L121.17 78.47L121.17 74.85L125.52 74.85L125.52 73.47L121.17 73.47L121.17 70.27L125.95 70.27L125.95 68.87L119.53 68.87Z" />
		<path id="Layer" class="shp3" d="M148.49 68.87L148.49 79.87L154.91 79.87L154.91 78.47L150.14 78.47L150.14 74.85L154.48 74.85L154.48 73.47L150.14 73.47L150.14 70.27L154.91 70.27L154.91 68.87L148.49 68.87Z" />
		<path id="Layer" class="shp3" d="M171.76 68.87L171.76 79.87L178.18 79.87L178.18 78.47L173.4 78.47L173.4 74.85L177.74 74.85L177.74 73.47L173.4 73.47L173.4 70.27L178.18 70.27L178.18 68.87L171.76 68.87Z" />
		<path id="Layer" class="shp3" d="M194.12 68.87L194.12 79.87L200.54 79.87L200.54 78.47L195.77 78.47L195.77 74.85L200.11 74.85L200.11 73.47L195.77 73.47L195.77 70.27L200.54 70.27L200.54 68.87L194.12 68.87Z" />
		<path id="Layer" class="shp3" d="M194.03 32.79L194.03 43.79L200.45 43.79L200.45 42.39L195.68 42.39L195.68 38.78L200.02 38.78L200.02 37.39L195.68 37.39L195.68 34.19L200.45 34.19L200.45 32.79L194.03 32.79Z" />
		<path id="Layer" class="shp3" d="M116.55 32.79L116.55 43.79L122.97 43.79L122.97 42.39L118.19 42.39L118.19 38.78L122.53 38.78L122.53 37.39L118.19 37.39L118.19 34.19L122.97 34.19L122.97 32.79L116.55 32.79Z" />
		<path id="Layer" class="shp3" d="M106.53 51.06L106.53 62.06L112.95 62.06L112.95 60.66L108.17 60.66L108.17 57.05L112.51 57.05L112.51 55.66L108.17 55.66L108.17 52.46L112.95 52.46L112.95 51.06L106.53 51.06Z" />
		<path id="Layer" class="shp3" d="M155.22 51.07L155.22 62.06L156.86 62.06L156.86 53.01L162.06 62.06L164.17 62.06L164.17 51.07L162.51 51.07L162.51 59.91L157.43 51.07L155.22 51.07Z" />
		<path id="Layer" class="shp3" d="M191.4 51.07L191.4 62.06L193.04 62.06L193.04 53.01L198.25 62.06L200.35 62.06L200.35 51.07L198.69 51.07L198.69 59.91L193.61 51.07L191.4 51.07Z" />
		<path id="Layer" class="shp3" d="M158.67 68.86L158.67 79.85L160.31 79.85L160.31 70.81L165.53 79.85L167.62 79.85L167.62 68.86L165.96 68.86L165.96 77.71L160.89 68.86L158.67 68.86Z" />
		<path id="Layer" class="shp3" d="M134.73 32.79L134.73 39.23C134.73 42.31 136.36 43.96 139.18 43.96C142 43.96 143.62 42.31 143.62 39.23L143.62 32.79L141.99 32.79L141.99 39.03C141.99 41.14 141.29 42.59 139.18 42.59C137.06 42.59 136.38 41.14 136.38 39.03L136.38 32.79L134.73 32.79Z" />
		<path id="Layer" class="shp3" d="M182.12 32.79L182.12 39.23C182.12 42.31 183.75 43.96 186.57 43.96C189.39 43.96 191.02 42.31 191.02 39.23L191.02 32.79L189.38 32.79L189.38 39.03C189.38 41.14 188.69 42.59 186.57 42.59C184.46 42.59 183.77 41.14 183.77 39.03L183.77 32.79L182.12 32.79Z" />
		<path id="Layer" class="shp3" d="M115.11 51.07L115.11 52.46L118.67 52.46L118.67 62.06L120.32 62.06L120.32 52.46L123.88 52.46L123.88 51.07L115.11 51.07Z" />
		<path id="Layer" class="shp3" d="M166.6 51.07L166.6 52.46L170.17 52.46L170.17 62.06L171.81 62.06L171.81 52.46L175.37 52.46L175.37 51.07L166.6 51.07Z" />
		<path id="Layer" fill-rule="evenodd" class="shp3" d="M188.26 56.56C188.26 59.9 186.24 62.24 182.75 62.24C179.25 62.24 177.23 59.9 177.23 56.56C177.23 53.31 179.26 50.88 182.75 50.88C186.22 50.88 188.26 53.31 188.26 56.56ZM178.97 56.56C178.97 58.75 180.11 60.86 182.75 60.86C185.39 60.86 186.52 58.75 186.52 56.56C186.52 54.32 185.27 52.24 182.75 52.27C180.22 52.24 178.97 54.32 178.97 56.56Z" />
		<path id="Layer" fill-rule="evenodd" class="shp3" d="M179.79 38.29C179.79 41.63 177.76 43.97 174.27 43.97C170.77 43.97 168.75 41.63 168.75 38.29C168.75 35.04 170.79 32.61 174.27 32.61C177.75 32.61 179.79 35.04 179.79 38.29ZM170.49 38.29C170.49 40.48 171.63 42.59 174.27 42.59C176.91 42.59 178.04 40.48 178.04 38.29C178.04 36.06 176.8 33.98 174.27 34C171.74 33.98 170.49 36.06 170.49 38.29Z" />
		<path id="Layer" class="shp0" d="M69.02 90.51L69.02 44.43C69.02 42.73 67.65 41.45 66.02 41.44C64.41 41.43 63.03 42.78 63.03 44.43L63.03 90.51" />
		<path id="Layer" class="shp0" d="M75.62 104.55C71.78 105.73 67.22 109.02 65.8 115.03L69.98 115.03C70.95 112.07 73.38 109.67 76.16 108.63L76.16 109.64C76.16 110.67 76.98 111.49 78.02 111.49L78.49 111.49C79.53 111.49 80.34 110.65 80.35 109.64L80.35 108.13C82.16 108.11 83.64 106.54 83.64 104.68C83.64 102.81 82.13 101.22 80.35 101.22L80.35 99.73C80.35 98.66 79.51 97.87 78.49 97.85L78.02 97.85C76.95 97.85 76.16 98.72 76.16 99.73L76.16 100.49" />
		<path id="Layer" fill-rule="evenodd" class="shp3" d="M66.66 114.69C67.94 110.08 71.54 106.46 76.16 105.18L76.16 107.84C73.06 108.86 70.52 111.33 69.32 114.69L66.66 114.69ZM78.02 110.76C77.52 110.76 76.89 110.35 76.89 109.64L76.89 99.73C76.89 99.17 77.29 98.61 78.02 98.61L78.49 98.61C79.09 98.61 79.58 99.12 79.58 99.73L79.58 109.64C79.58 110.48 78.85 110.76 78.49 110.76L78.02 110.76ZM80.35 101.96C81.76 102.05 82.89 103.25 82.89 104.68C82.89 106.09 81.74 107.39 80.35 107.39L80.35 101.96Z" />
		<path id="Layer" class="shp0" d="M65.89 95.11C67.07 98.93 70.36 103.49 76.39 104.9L76.39 100.73C73.42 99.77 71.02 97.34 69.97 94.57L70.98 94.57C72.02 94.57 72.85 93.74 72.85 92.71L72.85 92.25C72.85 91.21 72 90.4 70.98 90.38L69.48 90.38C69.46 88.58 67.88 87.1 66.01 87.1C64.15 87.1 62.55 88.61 62.55 90.38L61.06 90.38C59.98 90.38 59.19 91.22 59.18 92.25L59.18 92.71C59.18 93.78 60.05 94.57 61.06 94.57L61.82 94.57" />
		<path id="Layer" class="shp3" d="M76.05 101.4C72.68 100.2 70.2 97.67 69.18 94.57L66.52 94.57C67.8 99.17 71.43 102.77 76.05 104.05L76.05 101.4ZM72.11 92.25C72.11 91.88 71.83 91.16 70.98 91.16L61.06 91.16C60.45 91.16 59.94 91.64 59.94 92.25L59.94 92.71C59.94 93.44 60.5 93.83 61.06 93.83L70.98 93.83C71.7 93.83 72.11 93.21 72.11 92.71L72.11 92.25ZM68.73 90.38C68.73 89 67.43 87.85 66.01 87.85C64.59 87.85 63.39 88.99 63.29 90.38L68.73 90.38Z" />
		<path id="Layer" fill-rule="evenodd" class="shp4" d="M75.16 47.55L75.16 49.41L78 49.41L78 47.55L82.27 47.55L82.27 52.11L80.11 52.11L80.11 54.64L82.27 54.64L82.27 62.43L80.11 62.43L80.11 64.96L82.27 64.96L82.27 69.52L78 69.52L78 67.65L75.16 67.65L75.16 69.52L70.94 69.52L70.94 62.49L68.63 62.49L68.63 54.57L70.94 54.57L70.94 47.55L75.16 47.55ZM75.16 57.27L73.13 57.27L73.13 59.8L75.16 59.8L75.16 64.89L78 64.89L78 59.8L79.96 59.8L79.96 57.27L78 57.27L78 52.17L75.16 52.17L75.16 57.27Z" />
		<path id="Layer" class="shp0" d="M56.43 104.82C60.26 103.64 64.83 100.36 66.25 94.34L62.06 94.34C61.1 97.3 58.68 99.7 55.89 100.74L55.89 99.73C55.89 98.7 55.07 97.88 54.03 97.88L53.57 97.88C52.53 97.88 51.71 98.72 51.7 99.73L51.7 101.24C49.89 101.26 48.41 102.83 48.41 104.7C48.41 106.56 49.92 108.15 51.7 108.15L51.7 109.64C51.7 110.72 52.54 111.51 53.57 111.52L54.03 111.52C55.1 111.52 55.89 110.65 55.89 109.64L55.89 108.88" />
		<path id="Layer" fill-rule="evenodd" class="shp3" d="M65.39 94.68C64.11 99.29 60.5 102.91 55.89 104.19L55.89 101.53C58.99 100.52 61.53 98.04 62.73 94.68L65.39 94.68ZM54.03 98.61C54.53 98.61 55.16 99.02 55.16 99.73L55.16 109.64C55.16 110.2 54.76 110.76 54.03 110.76L53.57 110.76C52.96 110.76 52.47 110.25 52.47 109.64L52.47 99.73C52.47 98.89 53.19 98.61 53.57 98.61L54.03 98.61ZM51.7 107.41C50.3 107.32 49.16 106.12 49.16 104.7C49.16 103.28 50.31 101.99 51.7 101.99L51.7 107.41Z" />
		<path id="Layer" class="shp0" d="M66.16 114.26C64.97 110.44 61.69 105.88 55.66 104.47L55.66 108.64C58.63 109.6 61.03 112.03 62.07 114.8L61.06 114.8C60.03 114.8 59.21 115.63 59.21 116.66L59.21 117.12C59.21 118.16 60.05 118.97 61.06 118.99L62.57 118.99C62.59 120.79 64.17 122.27 66.03 122.27C67.9 122.27 69.5 120.76 69.5 118.99L70.98 118.99C72.07 118.99 72.86 118.15 72.88 117.12L72.88 116.66C72.88 115.59 72 114.8 70.98 114.8L70.23 114.8" />
		<path id="Layer" fill-rule="evenodd" class="shp3" d="M56 105.32C60.62 106.6 64.25 110.2 65.53 114.8L62.87 114.8C61.85 111.7 59.37 109.18 56 107.98L56 105.32ZM59.94 116.66C59.94 116.17 60.35 115.53 61.06 115.53L70.98 115.53C71.55 115.53 72.11 115.93 72.11 116.66L72.11 117.12C72.11 117.73 71.6 118.22 70.98 118.22L61.06 118.22C60.22 118.22 59.94 117.49 59.94 117.12L59.94 116.66ZM68.76 118.99C68.66 120.38 67.46 121.52 66.03 121.52C64.62 121.52 63.32 120.37 63.32 118.99L68.76 118.99Z" />
		<path id="Layer" fill-rule="evenodd" class="shp3" d="M46.43 33.77L46.43 58.18C45.59 57.04 44.45 56.14 43.14 55.59C43.81 55.16 44.27 54.41 44.27 53.56C44.27 53.46 44.23 53.36 44.23 53.25L43.97 53.25C39.38 53.25 38.85 47.18 32.67 47.11L32.67 46C33.07 45.86 33.44 45.63 33.71 45.34C34.26 44.8 34.57 44.05 34.57 43.27C34.57 42.5 34.26 41.83 33.71 41.29C33.19 40.73 32.46 40.43 31.7 40.43C31.09 40.43 30.47 40.63 29.95 41.02C29.86 41.09 29.73 41.09 29.5 41.09C29.28 41.09 29.12 41.08 29.04 41.02C28.55 40.63 27.94 40.43 27.29 40.43C25.71 40.43 24.43 41.7 24.43 43.27C24.43 44.05 24.73 44.8 25.28 45.34C25.56 45.63 25.92 45.84 26.29 45.98L26.29 47.11L25.89 47.11L25.44 47.86L20.29 47.86C20.01 47.86 19.72 48 19.57 48.26C19.32 48.58 19.27 49.04 19.45 49.53C19.76 50.44 20.72 52.02 20.76 52.08L20.82 52.19L21.55 52.19L21.55 51.53C21.55 51.45 21.55 51.27 21.67 51.16C21.76 51.08 21.88 51.04 22.03 51.04L24.19 51.04C24.92 51.04 25.8 51.82 26.02 52.67L26.34 52.75C26.56 52.45 26.84 52.31 27.17 52.31C27.45 52.31 27.73 52.41 27.91 52.61C28.12 52.81 28.21 53.05 28.21 53.34C28.21 53.63 28.09 53.97 27.88 54.15C27.33 54.64 26.69 55.16 25.93 55.16L25.84 55.16L25.76 55.23L25.64 55.4L25.55 55.55L25.67 55.67C26.22 56.08 27.23 56.23 28.06 55.88C28.33 55.8 28.58 55.76 28.86 55.74C31.52 55.54 33.85 57.55 34.06 60.29C34.12 60.98 34.02 61.64 33.8 62.25C34.17 62.54 34.63 62.72 35.13 62.72C35.58 62.72 35.89 62.6 36.22 62.39C35.12 63.71 34.48 65.43 34.48 67.28C34.48 67.9 34.54 68.5 34.66 69.07C34.02 68.51 33.17 68.16 32.25 68.16C31.06 68.16 29.98 68.71 29.31 69.6C28.91 70.1 28.31 70.44 27.61 70.44C27.15 70.44 26.71 70.3 26.34 70.05C27.23 69.77 27.85 68.95 27.85 68C27.85 67.48 27.69 67.05 27.35 66.67L9.88 48.47C7.71 46.12 6.55 43.72 6 42.32C4.29 43.35 3.13 45.23 3.13 47.39C3.13 49.33 4.03 51.07 5.5 52.14L18.59 63.59L18.72 63.66C18.56 63.95 18.43 64.25 18.31 64.55C18.03 64.39 12.59 61.2 9.96 59.67C7.24 58.1 5.62 56.88 3.05 54.03C2.5 54.94 2.16 56.02 2.16 57.15C2.16 59.34 3.37 61.25 5.14 62.28L17.45 67.9C17.42 68.31 17.39 68.72 17.39 69.15L17.39 69.2C16.87 69.14 12.5 68.57 11.74 68.43C10.91 68.29 6.54 67.58 1.77 65.64C1.43 69.02 4.04 72.19 7.71 72.19L17.8 72.22C17.92 72.63 18.04 73.03 18.19 73.43C17.97 73.48 9.66 75.41 8.28 75.68C6.91 75.94 3.39 76.63 2.04 76.43C2.69 79.01 5.02 80.94 7.8 80.94C8.57 80.94 9.26 80.8 9.94 80.54L19.78 76.36C19.96 76.64 20.12 76.85 20.37 77.1C20.37 77.1 11.34 84.94 10.11 85.88C8.86 86.81 7.51 87.92 4.89 89.1C5.99 90.4 7.62 91.19 9.46 91.19C11.29 91.19 12.91 90.37 14.01 89.06L22.77 79.28C23.08 79.49 23.38 79.68 23.69 79.84L19.87 88.11C18.52 90.96 16.69 95.15 13.63 98.19C14.52 98.71 15.55 99 16.65 99C19.38 99 21.67 97.19 22.38 94.71L26.41 80.94C26.93 81.08 27.48 81.18 28.03 81.26C27.97 81.86 27.64 85.48 26.96 89.52C29.04 89.84 31.25 88.27 31.25 85.83L31.05 81.27C32.87 81.05 34.58 80.45 36.04 79.53L38.18 85.5C35.95 86.3 33.66 87.85 32.13 89.88C30.33 92.29 29.5 94.21 25.93 95.52C26.6 96.15 27.49 96.56 28.5 96.56C28.65 96.56 28.8 96.54 28.92 96.53C29.28 97.42 29.81 98.21 30.47 98.9C30.34 98.98 30.24 99.05 30.17 99.15C29.92 99.47 25.43 104.78 24.67 105.71C24.51 105.6 24.31 105.41 24.04 105.14C23.06 104.07 21.56 102.47 20.52 101.9C20.52 101.88 20.49 101.87 20.46 101.87C20 101.47 19.41 101.21 18.81 101.18C18.13 101.15 17.49 101.38 17 101.82C16.26 102.5 16.02 103.55 16.38 104.5L16.41 104.63L17.03 104.54L17.03 104.38C17.03 104.15 17.12 103.94 17.3 103.79C17.54 103.55 17.91 103.53 18.19 103.7C18.28 103.97 18.41 104.25 18.62 104.46C19.02 104.86 19.56 104.98 20.14 104.84L21.12 105.72C19.53 105.63 16.3 105.66 16.11 105.66C16.02 105.65 15.96 105.65 15.87 105.66C15.05 105.6 14.59 105.6 14.13 105.84C13.55 106.15 13.08 106.63 12.84 107.24C12.5 108.18 12.78 109.22 13.54 109.91L13.63 110L14.13 109.63L14.07 109.49C13.98 109.3 13.95 109.06 14.04 108.86C14.16 108.5 14.48 108.31 14.85 108.35C15.06 108.55 15.31 108.72 15.59 108.8C16.02 108.91 16.45 108.85 16.82 108.63C17.16 108.45 17.39 108.16 17.51 107.81C18.58 107.88 19.35 108.08 19.78 108.2L16.94 109.39C16.7 109.46 16.6 109.48 16.47 109.53C15.74 109.78 15.32 110.04 14.92 110.56C14.55 111.11 14.4 111.76 14.49 112.4C14.68 113.4 15.41 114.19 16.38 114.41L16.53 114.44L16.79 113.88L16.65 113.81C16.47 113.69 16.35 113.48 16.32 113.27C16.26 112.97 16.38 112.69 16.59 112.52C16.81 112.58 17.03 112.62 17.24 112.61C18.04 112.54 18.65 111.86 18.72 111.02L18.75 111C19.57 110.66 21.43 109.87 23.36 109.71C25.22 109.54 26.36 109.55 26.87 109.55C27.06 109.55 27.2 109.59 27.26 109.65C27.32 109.72 27.35 109.8 27.35 109.92C27.35 110.17 27.29 110.75 27.26 110.93C26.99 111.22 26.81 111.59 26.78 111.99C26.78 112.24 26.81 112.46 26.9 112.7C26.9 113.06 26.66 113.4 26.29 113.5C26.04 113.56 25.77 113.53 25.55 113.39L25.43 113.31L24.98 113.82L25.07 113.95C25.77 114.83 26.9 115.22 27.97 114.93C28.68 114.73 29.29 114.28 29.63 113.63C29.99 113.02 30.08 112.31 29.99 111.6C29.95 111.37 29.95 111.08 29.95 110.99C29.95 108.41 28.77 107.41 27.7 107.03L32.61 100.88L32.61 100.86C32.66 100.78 32.71 100.68 32.75 100.56C33.61 100.97 34.57 101.22 35.58 101.28C35.72 97.99 37.66 95.01 40.57 93.89C40.97 97.41 40.77 100.91 36.55 104.69C35.09 106 34 107.78 34 109.9C34 110.23 34.03 110.57 34.09 110.9C35.34 109.55 37.35 108.29 39.16 108.26C38.24 109.32 36.49 110.69 34.81 112.65C33.83 113.78 33.23 115.25 33.23 116.87C33.23 119.42 34.73 121.63 36.9 122.69C36.8 121.5 36.8 120.29 37.41 118.65C38.08 116.96 42 114.43 42.46 110C42.7 110.84 42.94 111.74 42.94 112.67C42.94 116.24 41.51 118.39 39.25 121.63C39.7 121.82 40.2 121.95 40.75 121.95C41.42 121.95 42.03 121.76 42.58 121.46C43.11 124.17 44.5 126.54 46.43 128.39L46.43 136.31C34.45 136.3 23.05 131.58 14.49 123.03C5.93 114.48 1.19 103.1 1.19 91.01L1.19 33.76L46.43 33.77ZM32 48.3L32 49.11L30.87 49.11C30.87 49.77 30.33 50.31 29.69 50.31C29.01 50.31 28.5 49.77 28.5 49.11L27.35 49.11L27.35 48.3L32 48.3ZM68.28 44.41L68.28 90.4L63.77 90.4L63.77 44.41C63.77 43.22 64.72 42.16 66.02 42.16C67.32 42.16 68.28 43.21 68.28 44.41ZM32.79 43.27C32.79 43.87 32.31 44.36 31.7 44.36L30.57 44.36L30.57 43.27C30.57 42.6 31.09 42.14 31.7 42.14C32.31 42.14 32.79 42.64 32.79 43.27ZM28.42 43.27L28.42 44.36L27.29 44.36C26.6 44.36 26.19 43.81 26.19 43.27C26.19 42.56 26.71 42.14 27.29 42.14C27.88 42.14 28.42 42.58 28.42 43.27ZM19.17 54.8C19.84 55.66 21.12 55.91 21.76 55.91C22.98 55.91 23.96 55.33 24.67 54.93C24.79 54.86 24.92 54.78 25.04 54.72C26.36 54.01 26.87 54.19 27.14 54.28L27.17 54.3L27.32 54.34L27.73 53.73L27.61 53.63C27.58 53.6 26.81 53.01 25.58 53.01C25 53.01 24.55 53.2 24.07 53.4C23.48 53.63 22.86 53.88 21.91 53.89C20.7 53.89 19.5 53.29 18.87 52.44C18.63 53.23 18.61 54.09 19.17 54.8Z" />
		<path id="Layer" class="shp6" d="M30.37 39.41C30.37 39.88 29.99 40.27 29.51 40.27C29.03 40.27 28.65 39.88 28.65 39.41C28.65 38.93 29.03 38.55 29.51 38.55C29.99 38.55 30.37 38.93 30.37 39.41Z" />
	</g>
</svg>