<svg
  xmlns="http://www.w3.org/2000/svg"
  viewBox="0 0 210 210"
  height="100%"
  width="100%"
>
  <defs>
    <clipPath clipPathUnits="userSpaceOnUse" id="cp1">
      <path d="M4.49 333L208.91 333L208.91 26.74L4.49 26.74L4.49 333Z" />
    </clipPath>
    <clipPath clipPathUnits="userSpaceOnUse" id="cp2">
      <path
        d="M4.49 15.11L598.49 15.11L598.49 435.11L4.49 435.11L4.49 15.11Z"
      />
    </clipPath>
    <clipPath clipPathUnits="userSpaceOnUse" id="cp3">
      <path
        d="M64.38 153.68L140.78 153.68L140.78 162.58L64.38 162.58L64.38 153.68Z"
      />
    </clipPath>
    <clipPath clipPathUnits="userSpaceOnUse" id="cp4">
      <path
        d="M64.38 153.68L70.74 153.68L70.74 162.58L64.38 162.58L64.38 153.68Z"
      />
    </clipPath>
    <clipPath clipPathUnits="userSpaceOnUse" id="cp5">
      <path
        d="M70.74 153.68L77.11 153.68L77.11 162.58L70.74 162.58L70.74 153.68Z"
      />
    </clipPath>
    <clipPath clipPathUnits="userSpaceOnUse" id="cp6">
      <path
        d="M77.11 153.68L83.48 153.68L83.48 162.58L77.11 162.58L77.11 153.68Z"
      />
    </clipPath>
    <clipPath clipPathUnits="userSpaceOnUse" id="cp7">
      <path
        d="M83.48 153.68L89.84 153.68L89.84 162.58L83.48 162.58L83.48 153.68Z"
      />
    </clipPath>
    <clipPath clipPathUnits="userSpaceOnUse" id="cp8">
      <path
        d="M89.84 153.68L96.21 153.68L96.21 162.58L89.84 162.58L89.84 153.68Z"
      />
    </clipPath>
    <clipPath clipPathUnits="userSpaceOnUse" id="cp9">
      <path
        d="M96.21 153.68L102.58 153.68L102.58 162.58L96.21 162.58L96.21 153.68Z"
      />
    </clipPath>
    <clipPath clipPathUnits="userSpaceOnUse" id="cp10">
      <path
        d="M102.58 153.68L108.94 153.68L108.94 162.58L102.58 162.58L102.58 153.68Z"
      />
    </clipPath>
    <clipPath clipPathUnits="userSpaceOnUse" id="cp11">
      <path
        d="M108.94 153.68L115.31 153.68L115.31 162.58L108.94 162.58L108.94 153.68Z"
      />
    </clipPath>
    <clipPath clipPathUnits="userSpaceOnUse" id="cp12">
      <path
        d="M115.31 153.68L121.68 153.68L121.68 162.58L115.31 162.58L115.31 153.68Z"
      />
    </clipPath>
    <clipPath clipPathUnits="userSpaceOnUse" id="cp13">
      <path
        d="M121.68 153.68L128.04 153.68L128.04 162.58L121.68 162.58L121.68 153.68Z"
      />
    </clipPath>
    <clipPath clipPathUnits="userSpaceOnUse" id="cp14">
      <path
        d="M128.04 153.68L134.41 153.68L134.41 162.58L128.04 162.58L128.04 153.68Z"
      />
    </clipPath>
    <clipPath clipPathUnits="userSpaceOnUse" id="cp15">
      <path
        d="M134.41 153.68L140.78 153.68L140.78 162.58L134.41 162.58L134.41 153.68Z"
      />
    </clipPath>
  </defs>
  <style>
    tspan {
      white-space: pre;
    }
    .shp0 {
      fill: none;
      stroke: #ffffff;
      stroke-linecap: round;
      stroke-width: 2.137;
    }
    .shp1 {
      fill: #ffffff;
    }
    .txt2 {
      font-size: 15px;
      fill: #5b5b5b;
      font-family: "' Orator  Std'";
    }
    .shp3 {
      fill: none;
      stroke: #ffffff;
      stroke-linecap: round;
      stroke-width: 1.836;
    }
    .shp4 {
      fill: #ffffff;
    }
    .shp5 {
      fill: #ffffff;
    }
    .shp6 {
      fill: #ffffff;
    }
    .shp7 {
      fill: #ffffff;
    }
    .shp8 {
      fill: #ffffff;
    }
    .shp9 {
      fill: #ffffff;
    }
    .shp10 {
      fill: #ffffff;
    }
    .shp11 {
      fill: #ffffff;
    }
    .shp12 {
      fill: #ffffff;
    }
    .shp13 {
      fill: #5b5b5b;
    }
    .shp14 {
      fill: none;
      stroke: #ffffff;
      stroke-linecap: round;
      stroke-width: 2.137;
    }
    .shp15 {
      fill: #ffffff;
    }
    .shp16 {
      fill: #5b5b5b;
    }
  </style>
  <g id="layer1">
    <g id="g7156">
      <g id="g1791">
        <path id="path1793" class="shp0" d="M24.05 87.34L181.06 87.34" />
      </g>
      <g id="g1795">
        <g id="Clip-Path: g1797" clip-path="url(#cp1)">
          <g id="g1797">
            <g id="g1803">
              <path
                id="path1805"
                fill-rule="evenodd"
                class="shp1"
                d="M38.71 81.29C38.12 82 37.25 82.52 36.1 82.52C33.49 82.52 33.09 80.15 33.09 78.66C33.09 77.16 33.49 74.78 36.1 74.78C37.25 74.78 38.03 75.28 38.56 76L37.7 76.39C37.38 75.91 36.87 75.5 36.1 75.5C34.27 75.5 34.15 77.66 34.15 78.66C34.15 79.64 34.27 81.81 36.1 81.81C36.89 81.81 37.51 81.32 37.88 80.86L38.71 81.29ZM42.96 74.88L43.97 74.88L43.97 81.74L48.09 81.74L48.09 82.42L42.96 82.42L42.96 74.88ZM53.45 75.56L52.1 75.56L52.1 74.88L55.83 74.88L55.83 75.56L54.46 75.56L54.46 81.74L55.83 81.74L55.83 82.42L52.1 82.42L52.1 81.74L53.45 81.74L53.45 75.56ZM64.45 74.88L65.71 74.88L66.01 82.42L64.95 82.42L64.75 76.14L64.72 76.14L63 79.92L61.29 76.14L61.26 76.14L61.06 82.42L60 82.42L60.31 74.88L61.56 74.88L63 78.08L64.45 74.88ZM70.67 80.09L69.88 82.57L68.89 82.36L71.44 74.88L72.64 74.88L75.19 82.36L74.19 82.57L73.41 80.09L70.67 80.09ZM72.05 75.89L72.02 75.89L70.91 79.41L73.17 79.41L72.05 75.89ZM80.59 75.56L78.42 75.56L78.42 74.88L83.72 74.88L83.72 75.56L81.6 75.56L81.6 82.42L80.59 82.42L80.59 75.56ZM127.7 74.88L128.97 74.88L129.27 82.42L128.2 82.42L128 76.14L127.97 76.14L126.25 79.92L124.54 76.14L124.51 76.14L124.31 82.42L123.26 82.42L123.56 74.88L124.81 74.88L126.25 78.08L127.7 74.88ZM133.14 74.88L138.03 74.88L138.03 75.56L134.15 75.56L134.15 78.05L137.35 78.05L137.35 78.73L134.15 78.73L134.15 81.74L138.03 81.74L138.03 82.42L133.14 82.42L133.14 74.88ZM136.99 73.63L134.18 74.56L133.78 74.06L136.45 72.92L136.99 73.63ZM143.84 75.56L141.68 75.56L141.68 74.88L146.98 74.88L146.98 75.56L144.85 75.56L144.85 82.42L143.84 82.42L143.84 75.56ZM151.21 74.88L156.1 74.88L156.1 75.56L152.22 75.56L152.22 78.05L155.43 78.05L155.43 78.73L152.22 78.73L152.22 81.74L156.1 81.74L156.1 82.42L151.21 82.42L151.21 74.88ZM155.06 73.63L152.25 74.56L151.86 74.06L154.52 72.92L155.06 73.63ZM165.18 78.65C165.18 79.6 165.23 82.52 162.4 82.52C159.54 82.52 159.61 79.62 159.61 78.65C159.61 77.4 159.72 74.78 162.4 74.78C165.23 74.78 165.18 77.65 165.18 78.65ZM160.67 78.65C160.67 80.68 160.98 81.81 162.4 81.81C164.15 81.81 164.13 79.96 164.13 78.65C164.13 77.22 164.18 75.5 162.4 75.5C160.62 75.5 160.67 77.54 160.67 78.65Z"
              />
            </g>
          </g>
        </g>
      </g>
      <g id="g1807">
        <g id="Clip-Path: g1809" clip-path="url(#cp2)">
          <g id="g1809">
            <g id="g1815">
              <g id="g1817"></g>
              <g id="g2013">
                <g id="Clip-Path: g2011" clip-path="url(#cp3)">
                  <g id="g2011">
                    <g id="g1881">
                      <g id="g1871"></g>
                      <g id="g1879">
                        <g id="Clip-Path: g1877" clip-path="url(#cp4)">
                          <g id="g1877">
                            <text
                              id="tspan1873"
                              style="
                                transform: matrix(
                                  0.706,
                                  0,
                                  0,
                                  0.529,
                                  64.377,
                                  160.284
                                );
                              "
                            >
                              <tspan x="0" y="0" class="txt2">D</tspan>
                            </text>
                          </g>
                        </g>
                      </g>
                    </g>
                    <g id="g1893">
                      <g id="g1883"></g>
                      <g id="g1891">
                        <g id="Clip-Path: g1889" clip-path="url(#cp5)">
                          <g id="g1889">
                            <text
                              id="tspan1885"
                              style="
                                transform: matrix(
                                  0.706,
                                  0,
                                  0,
                                  0.529,
                                  70.744,
                                  160.284
                                );
                              "
                            >
                              <tspan x="0" y="0" class="txt2">E</tspan>
                            </text>
                          </g>
                        </g>
                      </g>
                    </g>
                    <g id="g1905">
                      <g id="g1895"></g>
                      <g id="g1903">
                        <g id="Clip-Path: g1901" clip-path="url(#cp6)">
                          <g id="g1901">
                            <text
                              id="tspan1897"
                              style="
                                transform: matrix(
                                  0.706,
                                  0,
                                  0,
                                  0.529,
                                  77.11,
                                  160.284
                                );
                              "
                            >
                              <tspan x="0" y="0" class="txt2">S</tspan>
                            </text>
                          </g>
                        </g>
                      </g>
                    </g>
                    <g id="g1913">
                      <g id="g1907"></g>
                      <g id="g1911">
                        <g id="Clip-Path: g1909" clip-path="url(#cp7)">
                          <g id="g1909"></g>
                        </g>
                      </g>
                    </g>
                    <g id="g1925">
                      <g id="g1915"></g>
                      <g id="g1923">
                        <g id="Clip-Path: g1921" clip-path="url(#cp8)">
                          <g id="g1921">
                            <text
                              id="tspan1917"
                              style="
                                transform: matrix(
                                  0.706,
                                  0,
                                  0,
                                  0.529,
                                  89.843,
                                  160.284
                                );
                              "
                            >
                              <tspan x="0" y="0" class="txt2">S</tspan>
                            </text>
                          </g>
                        </g>
                      </g>
                    </g>
                    <g id="g1937">
                      <g id="g1927"></g>
                      <g id="g1935">
                        <g id="Clip-Path: g1933" clip-path="url(#cp9)">
                          <g id="g1933">
                            <text
                              id="tspan1929"
                              style="
                                transform: matrix(
                                  0.706,
                                  0,
                                  0,
                                  0.529,
                                  96.209,
                                  160.284
                                );
                              "
                            >
                              <tspan x="0" y="0" class="txt2">C</tspan>
                            </text>
                          </g>
                        </g>
                      </g>
                    </g>
                    <g id="g1949">
                      <g id="g1939"></g>
                      <g id="g1947">
                        <g id="Clip-Path: g1945" clip-path="url(#cp10)">
                          <g id="g1945">
                            <text
                              id="tspan1941"
                              style="
                                transform: matrix(
                                  0.706,
                                  0,
                                  0,
                                  0.529,
                                  102.578,
                                  160.284
                                );
                              "
                            >
                              <tspan x="0" y="0" class="txt2">I</tspan>
                            </text>
                          </g>
                        </g>
                      </g>
                    </g>
                    <g id="g1961">
                      <g id="g1951"></g>
                      <g id="g1959">
                        <g id="Clip-Path: g1957" clip-path="url(#cp11)">
                          <g id="g1957">
                            <text
                              id="tspan1953"
                              style="
                                transform: matrix(
                                  0.706,
                                  0,
                                  0,
                                  0.529,
                                  108.944,
                                  160.284
                                );
                              "
                            >
                              <tspan x="0" y="0" class="txt2">E</tspan>
                            </text>
                          </g>
                        </g>
                      </g>
                    </g>
                    <g id="g1973">
                      <g id="g1963"></g>
                      <g id="g1971">
                        <g id="Clip-Path: g1969" clip-path="url(#cp12)">
                          <g id="g1969">
                            <text
                              id="tspan1965"
                              style="
                                transform: matrix(
                                  0.706,
                                  0,
                                  0,
                                  0.529,
                                  115.311,
                                  160.284
                                );
                              "
                            >
                              <tspan x="0" y="0" class="txt2">N</tspan>
                            </text>
                          </g>
                        </g>
                      </g>
                    </g>
                    <g id="g1985">
                      <g id="g1975"></g>
                      <g id="g1983">
                        <g id="Clip-Path: g1981" clip-path="url(#cp13)">
                          <g id="g1981">
                            <text
                              id="tspan1977"
                              style="
                                transform: matrix(
                                  0.706,
                                  0,
                                  0,
                                  0.529,
                                  121.677,
                                  160.284
                                );
                              "
                            >
                              <tspan x="0" y="0" class="txt2">C</tspan>
                            </text>
                          </g>
                        </g>
                      </g>
                    </g>
                    <g id="g1997">
                      <g id="g1987"></g>
                      <g id="g1995">
                        <g id="Clip-Path: g1993" clip-path="url(#cp14)">
                          <g id="g1993">
                            <text
                              id="tspan1989"
                              style="
                                transform: matrix(
                                  0.706,
                                  0,
                                  0,
                                  0.529,
                                  128.043,
                                  160.284
                                );
                              "
                            >
                              <tspan x="0" y="0" class="txt2">E</tspan>
                            </text>
                          </g>
                        </g>
                      </g>
                    </g>
                    <g id="g2009">
                      <g id="g1999"></g>
                      <g id="g2007">
                        <g id="Clip-Path: g2005" clip-path="url(#cp15)">
                          <g id="g2005">
                            <text
                              id="tspan2001"
                              style="
                                transform: matrix(
                                  0.706,
                                  0,
                                  0,
                                  0.529,
                                  134.409,
                                  160.284
                                );
                              "
                            >
                              <tspan x="0" y="0" class="txt2">S</tspan>
                            </text>
                          </g>
                        </g>
                      </g>
                    </g>
                  </g>
                </g>
              </g>
            </g>
            <g id="g2015">
              <path
                id="path2017"
                class="shp3"
                d="M79.32 131.54L125.83 131.54"
              />
            </g>
            <g id="g2019">
              <path
                id="path2021"
                class="shp4"
                d="M168.61 96.33L163.58 96.33C162.89 96.33 162.55 96.68 162.55 97.36L162.55 121.99C162.55 122.78 162.86 123.17 163.49 123.17L168.66 123.17C169.34 123.17 169.69 122.8 169.69 122.05L169.69 101.87C169.82 100.77 171.04 100.05 173.35 99.72C173.91 99.65 174.43 99.62 174.93 99.62C176.52 99.62 177.85 100 178.91 100.77C180.3 101.79 181.04 103.51 181.13 105.92L181.13 122.01C181.13 122.78 181.5 123.17 182.24 123.17L184.77 123.17C185.3 123.17 185.57 122.83 185.57 122.14L185.57 104.98C185.53 102.33 184.33 100.09 181.97 98.24C180.04 96.75 177.7 96 174.93 96C174.3 96 173.65 96.04 172.97 96.12C171.71 96.27 170.57 96.5 169.56 96.81C169.4 96.49 169.08 96.33 168.61 96.33Z"
              />
            </g>
            <g id="g2023">
              <path
                id="path2025"
                class="shp5"
                d="M158.01 103.8L152.98 103.8C152.29 103.8 151.95 104.14 151.95 104.83L151.95 121.99C151.95 122.78 152.26 123.17 152.89 123.17L158.06 123.17C158.74 123.17 159.08 122.8 159.08 122.05L159.08 104.92C159.08 104.17 158.73 103.8 158.01 103.8ZM159.08 99.38L159.08 97.11C159.08 96.58 158.81 96.32 158.27 96.32L152.81 96.32C152.23 96.33 151.95 96.6 151.95 97.12L151.95 99.39C151.95 99.81 152.21 100.02 152.72 100.02L158.34 100.02C158.84 100.01 159.08 99.8 159.08 99.38Z"
              />
            </g>
            <g id="g2027">
              <path
                id="path2029"
                class="shp6"
                d="M145.58 118.92L145.58 97.45C145.58 96.71 145.22 96.33 144.51 96.33L139.71 96.33C139.02 96.33 138.68 96.68 138.68 97.36L138.68 122.29C138.68 122.88 138.95 123.17 139.48 123.17L149.12 123.17C149.54 123.17 149.75 122.96 149.75 122.55L149.75 120.28C149.75 119.75 149.53 119.48 149.08 119.48L145.92 119.48C145.69 119.48 145.58 119.29 145.58 118.92Z"
              />
            </g>
            <g id="g2031">
              <path
                id="path2033"
                fill-rule="evenodd"
                class="shp7"
                d="M127.5 96.33C129.67 96.49 131.6 97.47 133.29 99.26C135 101.07 135.85 103.22 135.85 105.7C135.85 108.19 134.94 110.39 133.11 112.31C131.55 113.99 129.68 114.92 127.51 115.12L123.11 115.12L123.11 122.05C123.11 122.8 122.77 123.17 122.08 123.17L116.92 123.17C116.29 123.17 115.97 122.78 115.97 121.99L115.97 97.36C115.97 96.68 116.32 96.33 117.01 96.33L127.5 96.33ZM123.11 110.85C123.24 111.24 123.55 111.43 124.03 111.43L126.98 111.43C128.07 111.36 129.05 110.87 129.91 109.95C130.98 108.81 131.51 107.41 131.51 105.74C131.51 104.06 131.03 102.71 130.08 101.69C129.04 100.6 127.75 100.03 126.22 99.99L124.07 99.99C123.56 99.99 123.24 100.16 123.11 100.5L123.11 110.85Z"
              />
            </g>
            <g id="g2035">
              <path
                id="path2037"
                class="shp8"
                d="M90.79 100.92C90.79 100.43 90.97 100.15 91.35 100.07C91.72 100 92.12 99.96 92.57 99.96L93.57 99.96C94.36 99.96 95.2 100.37 96.11 101.2C96.92 102.22 97.37 103.48 97.46 104.98L97.46 122.14C97.46 122.83 97.83 123.17 98.57 123.17L100.79 123.17C101.52 123.17 101.89 122.83 101.89 122.14L101.89 101.17C101.89 100.53 102.07 100.17 102.44 100.09C102.81 100 103.37 99.96 104.12 99.96C104.91 99.96 105.75 100.37 106.66 101.2C107.47 102.22 107.92 103.48 108.01 104.98L108.01 122.14C108.01 122.83 108.38 123.17 109.13 123.17L111.34 123.17C112.07 123.17 112.44 122.82 112.44 122.11L112.44 104.02C112.31 102.37 111.54 100.69 110.13 98.99C108.24 97.21 106.25 96.32 104.16 96.32L103.07 96.32C101.36 96.32 99.78 96.86 98.32 97.95C96.83 96.86 95.26 96.32 93.62 96.32L92.52 96.32C91.94 96.32 91.29 96.44 90.58 96.69C90.4 96.45 90.11 96.33 89.7 96.33L84.67 96.33C83.98 96.33 83.64 96.68 83.64 97.36L83.64 121.99C83.64 122.78 83.95 123.17 84.58 123.17L89.74 123.17C90.43 123.17 90.77 122.8 90.77 122.05L90.79 100.92Z"
              />
            </g>
            <g id="g2039">
              <path
                id="path2041"
                fill-rule="evenodd"
                class="shp9"
                d="M64.4 110.18L64.4 114.78C64.4 117.05 64.82 118.45 65.67 118.98C66.19 119.35 66.94 119.54 67.91 119.54C68.77 119.54 69.8 119.4 71 119.11C72.86 118.47 74.66 117.25 76.41 115.44C76.58 115.07 76.89 114.88 77.32 114.88C77.58 114.88 77.87 114.95 78.21 115.08L79.2 115.76C79.61 115.92 79.82 116.2 79.82 116.59C79.82 116.85 79.73 117.15 79.55 117.51C78.01 119.88 75.69 121.61 72.58 122.7C71.11 123.07 69.69 123.26 68.32 123.26C66.05 123.26 63.94 122.73 61.99 121.66C58.89 119.98 56.84 117.53 55.85 114.3C55.46 113 55.26 111.67 55.26 110.31C55.26 110.09 55.27 109.87 55.27 109.66C55.27 109.46 55.26 109.26 55.26 109.06C55.26 107.71 55.46 106.39 55.85 105.1C56.84 101.86 58.89 99.4 61.99 97.71C63.94 96.65 66.05 96.12 68.32 96.12C69.69 96.12 71.11 96.31 72.58 96.69C75.4 97.78 77.48 99.61 78.82 102.2C80.1 104.71 80.74 106.97 80.74 108.98L80.74 109.31C80.74 109.89 80.45 110.18 79.89 110.18L64.4 110.18ZM64.4 106.49L75.39 106.49C75.97 106.49 76.29 106.35 76.34 106.07C75.66 102.87 73.86 100.94 70.95 100.26C70 100.03 69.13 99.92 68.34 99.92C66.99 99.92 65.87 100.24 64.98 100.89C64.59 101.11 64.4 101.67 64.4 102.59L64.4 106.49Z"
              />
            </g>
            <g id="g2043">
              <path
                id="path2045"
                fill-rule="evenodd"
                class="shp10"
                d="M44.56 96.33C46.72 96.49 48.65 97.46 50.34 99.24C52.06 101.07 52.91 103.22 52.91 105.7C52.91 108.19 52.06 110.33 50.36 112.14C49.37 113.19 48.74 113.77 48.45 113.88C48.32 114.03 48.26 114.19 48.26 114.35C48.26 114.42 48.27 114.49 48.3 114.57L51.54 120.51L52.57 122.41C52.66 122.57 52.7 122.71 52.7 122.81C52.7 123.05 52.5 123.17 52.11 123.17L48.64 123.17C48.3 123.17 48.05 123.04 47.89 122.77L43.86 115.12L40.95 115.12C40.48 115.12 40.24 115.34 40.24 115.78L40.24 122.01C40.24 122.79 39.88 123.17 39.14 123.17L33.98 123.17C33.35 123.17 33.04 122.83 33.04 122.14L33.04 97.36C33.04 96.68 33.38 96.33 34.07 96.33L44.56 96.33ZM40.24 110.36C40.24 111.08 40.57 111.43 41.23 111.43L44.18 111.43C45.27 111.36 46.25 110.87 47.11 109.95C48.18 108.81 48.71 107.41 48.71 105.74C48.71 104.06 48.23 102.71 47.28 101.69C46.24 100.6 44.95 100.03 43.42 99.99L41.27 99.99C40.59 99.99 40.24 100.31 40.24 100.93L40.24 110.36Z"
              />
            </g>
            <g id="g2047">
              <path
                id="path2049"
                class="shp11"
                d="M18.22 96.33C17.67 96.33 17.4 96.6 17.4 97.12L17.4 99.39C17.4 99.81 17.66 100.02 18.17 100.02L20.54 100.02L20.54 121.99C20.54 122.78 20.86 123.17 21.49 123.17L26.41 123.17C27.1 123.17 27.44 122.8 27.44 122.05L27.44 100.02L29.78 100.02C30.3 100.02 30.56 99.81 30.56 99.39L30.56 97.12C30.56 96.6 30.29 96.33 29.74 96.33L18.22 96.33Z"
              />
            </g>
            <g id="g2051">
              <path
                id="path2053"
                class="shp12"
                d="M45.95 130.69L30.21 130.69L34.91 142.65L30.21 154.61L36.84 154.61L36.84 137.35L45.95 130.69Z"
              />
            </g>
            <path
              id="path2055"
              class="shp12"
              d="M38.08 164.81L167.07 164.81L167.07 137.61L38.08 137.61L38.08 164.81Z"
            />
            <g id="g2057">
              <path
                id="path2059"
                class="shp12"
                d="M159.2 130.69L174.95 130.69L170.25 142.65L174.95 154.61L168.31 154.61L168.31 137.35L159.2 130.69Z"
              />
            </g>
            <g id="g2061">
              <path
                id="path2063"
                fill-rule="evenodd"
                class="shp13"
                d="M65.64 154.79L65.64 154.31L67.51 154.31C68.93 154.31 69.77 154.78 69.77 156.97C69.77 158.14 69.69 159.62 67.53 159.62L65.64 159.62L65.64 159.14L66.22 159.14L66.22 154.79L65.64 154.79ZM66.93 159.14L67.51 159.14C68.37 159.14 69.03 158.98 69.03 156.97C69.03 154.95 68.31 154.79 67.68 154.79L66.93 154.79L66.93 159.14ZM72.41 154.31L75.86 154.31L75.86 154.79L73.12 154.79L73.12 156.54L75.38 156.54L75.38 157.02L73.12 157.02L73.12 159.14L75.86 159.14L75.86 159.62L72.41 159.62L72.41 154.31ZM81.32 155.52C81.2 155.13 80.94 154.74 80.34 154.74C79.67 154.74 79.4 155.15 79.4 155.59C79.4 156.02 79.52 156.16 80.64 156.66C81.51 157.05 82.1 157.38 82.1 158.2C82.1 159.03 81.51 159.69 80.32 159.69C79.06 159.69 78.61 159.07 78.5 158.23L79.21 158.16C79.31 158.75 79.48 159.19 80.34 159.19C80.95 159.19 81.39 158.88 81.39 158.24C81.39 157.54 80.78 157.31 80.05 156.99C79.24 156.63 78.69 156.37 78.69 155.59C78.69 154.88 79.33 154.24 80.34 154.24C81.34 154.24 81.82 154.78 82 155.44L81.32 155.52ZM94.05 155.52C93.93 155.13 93.68 154.74 93.07 154.74C92.4 154.74 92.14 155.15 92.14 155.59C92.14 156.02 92.25 156.16 93.37 156.66C94.24 157.05 94.83 157.38 94.83 158.2C94.83 159.03 94.24 159.69 93.05 159.69C91.8 159.69 91.34 159.07 91.24 158.23L91.95 158.16C92.04 158.75 92.21 159.19 93.07 159.19C93.69 159.19 94.12 158.88 94.12 158.24C94.12 157.54 93.52 157.31 92.79 156.99C91.97 156.63 91.43 156.37 91.43 155.59C91.43 154.88 92.06 154.24 93.07 154.24C94.07 154.24 94.56 154.78 94.74 155.44L94.05 155.52ZM101.38 158.82C100.97 159.33 100.35 159.69 99.54 159.69C97.7 159.69 97.42 158.02 97.42 156.97C97.42 155.91 97.7 154.24 99.54 154.24C100.35 154.24 100.9 154.59 101.27 155.1L100.67 155.37C100.45 155.04 100.09 154.74 99.54 154.74C98.25 154.74 98.16 156.27 98.16 156.97C98.16 157.66 98.25 159.19 99.54 159.19C100.1 159.19 100.53 158.85 100.8 158.52L101.38 158.82ZM105.4 154.79L104.45 154.79L104.45 154.31L107.08 154.31L107.08 154.79L106.11 154.79L106.11 159.14L107.08 159.14L107.08 159.62L104.45 159.62L104.45 159.14L105.4 159.14L105.4 154.79ZM110.61 154.31L114.06 154.31L114.06 154.79L111.32 154.79L111.32 156.54L113.58 156.54L113.58 157.02L111.32 157.02L111.32 159.14L114.06 159.14L114.06 159.62L110.61 159.62L110.61 154.31ZM116.65 154.31L117.54 154.31L119.64 158.78L119.66 158.76L119.63 157.58L119.63 154.31L120.34 154.31L120.34 159.62L119.45 159.62L117.35 155.15L117.33 155.16L117.36 156.37L117.36 159.62L116.65 159.62L116.65 154.31ZM126.84 158.82C126.43 159.33 125.82 159.69 125.01 159.69C123.16 159.69 122.89 158.02 122.89 156.97C122.89 155.91 123.16 154.24 125.01 154.24C125.82 154.24 126.37 154.59 126.74 155.1L126.13 155.37C125.91 155.04 125.55 154.74 125.01 154.74C123.72 154.74 123.63 156.27 123.63 156.97C123.63 157.66 123.72 159.19 125.01 159.19C125.56 159.19 126 158.85 126.26 158.52L126.84 158.82ZM129.71 154.31L133.16 154.31L133.16 154.79L130.42 154.79L130.42 156.54L132.68 156.54L132.68 157.02L130.42 157.02L130.42 159.14L133.16 159.14L133.16 159.62L129.71 159.62L129.71 154.31ZM138.61 155.52C138.5 155.13 138.24 154.74 137.64 154.74C136.97 154.74 136.7 155.15 136.7 155.59C136.7 156.02 136.82 156.16 137.93 156.66C138.8 157.05 139.4 157.38 139.4 158.2C139.4 159.03 138.8 159.69 137.62 159.69C136.36 159.69 135.91 159.07 135.8 158.23L136.51 158.16C136.61 158.75 136.78 159.19 137.64 159.19C138.25 159.19 138.69 158.88 138.69 158.24C138.69 157.54 138.08 157.31 137.35 156.99C136.53 156.63 135.99 156.37 135.99 155.59C135.99 154.88 136.63 154.24 137.64 154.24C138.63 154.24 139.12 154.78 139.3 155.44L138.61 155.52Z"
              />
            </g>
            <g id="g2065">
              <path
                id="path2067"
                fill-rule="evenodd"
                class="shp13"
                d="M44.53 148.74L43.82 148.74L43.82 143.44L45.36 143.44C46.61 143.44 47.31 143.94 47.31 144.84C47.31 145.83 46.56 146.38 45.59 146.38L44.53 146.38L44.53 148.74ZM44.53 145.9L45.53 145.89C46.18 145.89 46.56 145.51 46.56 144.84C46.56 144.19 46.11 143.91 45.34 143.91L44.53 143.91L44.53 145.9ZM53.61 146.09C53.61 146.75 53.64 148.82 51.65 148.82C49.63 148.82 49.68 146.77 49.68 146.09C49.68 145.21 49.76 143.36 51.65 143.36C53.64 143.36 53.61 145.39 53.61 146.09ZM51.65 143.87C50.4 143.87 50.43 145.31 50.43 146.09C50.43 147.52 50.65 148.31 51.65 148.31C52.88 148.31 52.87 147.01 52.87 146.09C52.87 145.08 52.9 143.87 51.65 143.87ZM56.99 143.44L56.99 147.3C56.99 147.82 57.13 148.31 58.01 148.31C58.89 148.31 59.04 147.81 59.04 147.3L59.04 143.44L59.75 143.44L59.75 147.45C59.75 148.28 59.06 148.82 58.01 148.82C56.94 148.82 56.28 148.27 56.28 147.48L56.28 143.44L56.99 143.44ZM62.92 143.44L64.83 143.44C65.53 143.44 66.41 143.89 66.41 144.84C66.41 145.5 66.06 146.12 65.19 146.34L66.65 148.62L66.01 148.85L64.42 146.38L63.63 146.38L63.63 148.74L62.92 148.74L62.92 143.44ZM63.63 145.9L64.67 145.9C65.28 145.9 65.66 145.56 65.66 144.84C65.66 144.15 65.22 143.91 64.5 143.91L63.63 143.91L63.63 145.9ZM75.72 143.44L76.43 143.44L76.43 148.27L79.34 148.27L79.34 148.74L75.72 148.74L75.72 143.44ZM84.08 143.44L84.08 143.79C84.08 144.33 83.55 144.83 82.91 145.08L82.66 144.65C83.02 144.47 83.11 144.2 83.11 143.92L83.11 143.44L84.08 143.44ZM88.33 143.44L91.78 143.44L91.78 143.91L89.04 143.91L89.04 145.66L91.3 145.66L91.3 146.14L89.04 146.14L89.04 148.27L91.78 148.27L91.78 148.74L88.33 148.74L88.33 143.44ZM94.37 143.44L95.26 143.44L97.36 147.9L97.38 147.88L97.35 146.7L97.35 143.44L98.06 143.44L98.06 148.74L97.17 148.74L95.07 144.27L95.04 144.29L95.08 145.49L95.08 148.74L94.37 148.74L94.37 143.44ZM103.6 144.65C103.48 144.26 103.23 143.87 102.62 143.87C101.95 143.87 101.69 144.27 101.69 144.72C101.69 145.15 101.8 145.28 102.92 145.78C103.79 146.17 104.38 146.5 104.38 147.32C104.38 148.15 103.79 148.82 102.6 148.82C101.35 148.82 100.89 148.19 100.79 147.35L101.5 147.28C101.59 147.87 101.76 148.31 102.62 148.31C103.24 148.31 103.67 148 103.67 147.37C103.67 146.67 103.07 146.43 102.33 146.11C101.52 145.75 100.98 145.5 100.98 144.72C100.98 144 101.61 143.36 102.62 143.36C103.62 143.36 104.11 143.9 104.29 144.57L103.6 144.65ZM107.43 143.44L110.88 143.44L110.88 143.91L108.14 143.91L108.14 145.66L110.4 145.66L110.4 146.14L108.14 146.14L108.14 148.27L110.88 148.27L110.88 148.74L107.43 148.74L107.43 143.44ZM114.95 143.91L114 143.91L114 143.44L116.63 143.44L116.63 143.91L115.66 143.91L115.66 148.27L116.63 148.27L116.63 148.74L114 148.74L114 148.27L114.95 148.27L114.95 143.91ZM123.54 148.35C123.09 148.63 122.49 148.82 121.9 148.82C120.08 148.82 119.76 147.16 119.76 146.1C119.76 145.11 120.06 143.36 121.83 143.36C122.62 143.36 123.21 143.73 123.6 144.22L122.97 144.5C122.72 144.16 122.35 143.87 121.78 143.87C120.61 143.87 120.5 145.49 120.5 146.12C120.5 147.94 121.21 148.31 121.91 148.31C122.21 148.31 122.59 148.22 122.83 148.07L122.83 146.47L121.51 146.47L121.51 145.99L123.54 145.99L123.54 148.35ZM126.2 143.44L127.09 143.44L129.19 147.9L129.21 147.88L129.18 146.7L129.18 143.44L129.89 143.44L129.89 148.74L129 148.74L126.9 144.27L126.88 144.29L126.91 145.49L126.91 148.74L126.2 148.74L126.2 143.44ZM132.89 143.44L136.34 143.44L136.34 143.91L133.6 143.91L133.6 145.66L135.86 145.66L135.86 146.14L133.6 146.14L133.6 148.27L136.34 148.27L136.34 148.74L132.89 148.74L132.89 143.44ZM141.8 143.44L142.69 143.44L142.9 148.74L142.15 148.74L142.01 144.32L141.99 144.32L140.78 146.99L139.57 144.32L139.55 144.32L139.41 148.74L138.67 148.74L138.88 143.44L139.76 143.44L140.78 145.69L141.8 143.44ZM145.63 143.44L149.07 143.44L149.07 143.91L146.34 143.91L146.34 145.66L148.6 145.66L148.6 146.14L146.34 146.14L146.34 148.27L149.07 148.27L149.07 148.74L145.63 148.74L145.63 143.44ZM151.66 143.44L152.56 143.44L154.66 147.9L154.68 147.88L154.65 146.7L154.65 143.44L155.36 143.44L155.36 148.74L154.46 148.74L152.36 144.27L152.34 144.29L152.37 145.49L152.37 148.74L151.66 148.74L151.66 143.44ZM159.54 143.91L158.01 143.91L158.01 143.44L161.74 143.44L161.74 143.91L160.25 143.91L160.25 148.74L159.54 148.74L159.54 143.91Z"
              />
            </g>
            <g id="g2069">
              <path
                id="path2071"
                fill-rule="evenodd"
                class="shp0"
                d="M64.62 68.51C64.62 68.51 99.54 37.98 141.63 69.29M43.13 52.21L59.1 69.29M50.01 68.77L44.81 64.03M54.42 54.84L65.16 68.12M62.63 54.64L69.14 65.13M62.63 43.26L73.1 62.75M72.5 48.68L77.75 60.5M76.92 42.57L82.4 58.31M81.2 31.59L87.57 56.97M89.75 39.1L92.3 55.85M96.75 42.36L97.55 55.04M102.45 32.94L102.93 54.9M162.34 51.88L146.37 68.96M155.22 68.8L160.43 64.06M151.05 54.52L140.05 68.19M142.84 54.31L136.05 65.26M142.84 42.93L132.37 62.42M132.81 48.6L127.55 60.42M128.55 42.25L122.92 58.45M124.27 31.27L117.92 56.98M115.73 38.77L113.16 55.85M108.72 42.03L107.91 55.1"
              />
            </g>
            <g id="g2073">
              <path
                id="path2075"
                class="shp14"
                d="M116.27 65.18L130.68 65.18M75.01 65.18L89.42 65.18M83.77 61.09L121.15 61.09M38.75 69.29L86.51 69.29M118.64 69.29L166.41 69.29"
              />
            </g>
            <g id="g2077">
              <path
                id="path2079"
                class="shp15"
                d="M102.58 64.4C95.04 64.4 88.9 70.54 88.9 78.07C88.9 85.61 95.04 91.75 102.58 91.75C110.11 91.75 116.26 85.61 116.26 78.07C116.26 70.54 110.11 64.4 102.58 64.4Z"
              />
            </g>
            <g id="g2081">
              <path
                id="path2083"
                fill-rule="evenodd"
                class="shp16"
                d="M105.53 72.63C106.04 72.63 106.52 72.73 106.96 72.92C107.41 73.11 107.82 73.38 108.17 73.73C108.51 74.07 108.79 74.48 108.97 74.94C109.16 75.37 109.26 75.86 109.26 76.36C109.26 76.86 109.16 77.34 108.97 77.78C108.79 78.24 108.51 78.65 108.17 78.99C107.49 79.67 106.56 80.08 105.53 80.08C105.03 80.08 104.55 79.98 104.11 79.8C103.65 79.61 103.24 79.34 102.9 78.99C102.55 78.65 102.28 78.24 102.09 77.78C101.91 77.34 101.81 76.86 101.81 76.36C101.81 75.86 101.91 75.37 102.09 74.94C102.28 74.48 102.55 74.07 102.9 73.73C103.24 73.38 103.65 73.11 104.11 72.92C104.55 72.73 105.03 72.63 105.53 72.63ZM107.54 72.89C107.27 72.74 107.18 72.4 107.33 72.13L107.78 71.36C107.94 71.09 108.27 71 108.54 71.15C108.8 71.31 108.89 71.64 108.74 71.91L108.29 72.69C108.14 72.95 107.8 73.04 107.54 72.89ZM109 74.36C108.85 74.09 108.94 73.75 109.21 73.6L109.98 73.15C110.25 73 110.59 73.09 110.74 73.35C110.89 73.62 110.8 73.96 110.54 74.11L109.76 74.56C109.49 74.71 109.16 74.62 109 74.36ZM109 78.36C109.16 78.1 109.49 78.01 109.76 78.16L110.54 78.61C110.8 78.76 110.89 79.1 110.74 79.37C110.59 79.63 110.25 79.72 109.98 79.57L109.21 79.12C108.94 78.97 108.85 78.63 109 78.36ZM107.33 80.59C107.18 80.32 107.27 79.98 107.54 79.83C107.8 79.68 108.14 79.77 108.29 80.03L108.74 80.81C108.89 81.08 108.8 81.41 108.54 81.57C108.27 81.72 107.94 81.63 107.78 81.36L107.33 80.59ZM102.77 80.03C102.93 79.77 103.26 79.68 103.53 79.83C103.79 79.98 103.88 80.32 103.73 80.59L103.28 81.36C103.13 81.63 102.79 81.72 102.53 81.57C102.26 81.41 102.17 81.08 102.32 80.81L102.77 80.03ZM102.06 78.36C102.21 78.63 102.12 78.97 101.86 79.12L101.08 79.57C100.82 79.72 100.48 79.63 100.33 79.37C100.17 79.1 100.26 78.76 100.53 78.61L101.31 78.16C101.57 78.01 101.91 78.1 102.06 78.36ZM102.06 74.36C101.91 74.62 101.57 74.71 101.31 74.56L100.53 74.11C100.26 73.96 100.17 73.62 100.33 73.35C100.48 73.09 100.82 73 101.08 73.15L101.86 73.6C102.12 73.75 102.21 74.09 102.06 74.36ZM103.73 72.13C103.88 72.4 103.79 72.74 103.53 72.89C103.26 73.04 102.93 72.95 102.77 72.69L102.32 71.91C102.17 71.64 102.26 71.31 102.53 71.15C102.79 71 103.13 71.09 103.28 71.36L103.73 72.13M100.97 75.81C101.28 75.81 101.52 76.05 101.52 76.36C101.52 76.66 101.28 76.91 100.97 76.91L100.07 76.91C99.77 76.91 99.52 76.66 99.52 76.36C99.52 76.05 99.77 75.81 100.07 75.81L100.97 75.81ZM104.98 80.92C104.98 80.61 105.23 80.37 105.53 80.37C105.84 80.37 106.08 80.61 106.08 80.92L106.08 81.82C106.08 82.12 105.84 82.37 105.53 82.37C105.23 82.37 104.98 82.12 104.98 81.82L104.98 80.92ZM110.09 76.91C109.79 76.91 109.54 76.66 109.54 76.36C109.54 76.05 109.79 75.81 110.09 75.81L110.99 75.81C111.3 75.81 111.54 76.05 111.54 76.36C111.54 76.66 111.3 76.91 110.99 76.91L110.09 76.91ZM106.08 71.8C106.08 72.1 105.84 72.35 105.53 72.35C105.23 72.35 104.98 72.1 104.98 71.8L104.98 70.9C104.98 70.6 105.23 70.35 105.53 70.35C105.84 70.35 106.08 70.6 106.08 70.9L106.08 71.8Z"
              />
            </g>
            <g id="g2085">
              <path
                id="path2087"
                class="shp13"
                d="M96.84 83.76C95.3 83.76 94.05 82.51 94.05 80.97C94.05 79.57 95.08 78.42 96.43 78.21C96.67 76.26 98.34 74.75 100.36 74.75C101.7 74.75 102.89 75.41 103.61 76.43C103.86 76.35 104.13 76.32 104.4 76.32C105.62 76.32 106.66 77.1 107.04 78.2C108.44 78.35 109.53 79.53 109.53 80.97C109.53 82.51 108.28 83.76 106.74 83.76L96.84 83.76Z"
              />
            </g>
          </g>
        </g>
      </g>
    </g>
  </g>
</svg>
