<svg xmlns="http://www.w3.org/2000/svg" viewBox="0 0 500 137" width="500" height="137">
	<style>
		tspan { white-space:pre }
		.shp0 { fill: #ffffff } 
	</style>
	<g id="layer1">
		<g id="g2485">
			<path id="path2458" fill-rule="evenodd" class="shp0" d="M325.33 123.73L351.35 123.73L351.35 41.69L325.33 41.69L325.33 123.73Z" />
			<path id="path2464" fill-rule="evenodd" class="shp0" d="M240.66 123.73L240.66 112.87L240.35 112.87C235.45 120.98 225.35 126.03 216.17 126.03C193.36 126.03 186.78 112.87 186.78 92.05L186.78 41.69L212.8 41.69L212.8 90.37C212.8 100.93 217.39 104.6 225.66 104.6C231.32 104.6 239.89 100.93 239.89 86.85L239.89 41.69L265.91 41.69C265.91 42.73 265.91 43.69 265.91 44.58L265.9 55.17L266.2 55.17C270.95 47.05 281.66 42 291.16 42C317.63 42 319.78 61.29 319.78 72.77L319.78 123.73L293.76 123.73L293.76 85.32C293.76 74.45 294.98 63.43 280.75 63.43C270.95 63.43 266.66 71.7 266.66 80.42L266.66 123.73L240.66 123.73ZM265.91 44.3L265.91 44.58C265.91 53.03 265.9 55.17 265.9 55.17C265.9 55.17 265.91 55.17 265.91 44.3Z" />
			<path id="path2470" class="shp0" d="M325.31 10L351.35 10L351.35 36.04L325.31 36.04L325.31 10Z" />
			<path id="path2476" fill-rule="evenodd" class="shp0" d="M490 84.31L490 90.11L489.99 90.37L431.67 90.37C432.13 101.24 438.41 108.43 449.43 108.43C455.7 108.43 461.82 105.52 464.27 99.7L488.61 99.7C483.87 118.07 466.88 126.03 449.12 126.03C431.03 126.03 416.99 118.4 410.18 104.71L410.18 123.73L384.16 123.73L384.16 85.31C384.16 74.45 385.38 63.43 371.14 63.43C362.32 63.43 357.96 70.14 357.19 77.85L357.19 54.22C362.19 46.66 372.44 42 381.55 42C402.91 42 408.43 54.54 409.77 65.42C416.69 51.14 431.56 42 448.51 42C474.81 42 488.96 60.28 490 84.31ZM431.67 75.83L463.97 75.83C463.51 66.95 457.23 59.6 448.51 59.6C439.32 59.6 433.2 66.18 431.67 75.83Z" />
			<path id="text2482" fill-rule="evenodd" class="shp0" d="M62.02 78.89L64.51 78.89L64.51 89.72C64.51 91.61 64.29 93.1 63.87 94.21C63.44 95.32 62.67 96.22 61.56 96.92C60.44 97.61 58.98 97.96 57.18 97.96C55.42 97.96 53.98 97.66 52.87 97.05C51.75 96.44 50.95 95.57 50.47 94.42C50 93.27 49.76 91.71 49.76 89.72L49.76 78.89L52.24 78.89L52.24 89.71C52.24 91.34 52.39 92.54 52.69 93.31C53 94.08 53.52 94.68 54.25 95.09C54.99 95.51 55.89 95.72 56.96 95.72C58.78 95.72 60.08 95.31 60.86 94.48C61.64 93.65 62.02 92.06 62.02 89.71L62.02 78.89ZM68.92 97.64L68.92 84.05L70.99 84.05L70.99 85.99C71.99 84.49 73.43 83.75 75.31 83.75C76.13 83.75 76.88 83.89 77.57 84.19C78.26 84.48 78.77 84.87 79.11 85.35C79.45 85.82 79.69 86.39 79.83 87.05C79.91 87.47 79.96 88.22 79.96 89.29L79.96 97.64L77.65 97.64L77.65 89.38C77.65 88.44 77.56 87.74 77.38 87.27C77.2 86.81 76.89 86.44 76.43 86.16C75.97 85.88 75.44 85.74 74.83 85.74C73.84 85.74 73 86.05 72.29 86.68C71.57 87.3 71.22 88.48 71.22 90.22L71.22 97.64L68.92 97.64ZM84.54 81.53L84.54 78.89L86.84 78.89L86.84 81.53L84.54 81.53ZM84.54 97.64L84.54 84.05L86.84 84.05L86.84 97.64L84.54 97.64ZM95.14 97.64L89.97 84.05L92.4 84.05L95.32 92.19C95.64 93.07 95.93 93.98 96.19 94.93C96.39 94.21 96.68 93.35 97.05 92.34L100.07 84.05L102.43 84.05L97.29 97.64L95.14 97.64ZM116.75 93.56C116.37 94.95 115.68 96.03 114.66 96.79C113.65 97.56 112.35 97.95 110.77 97.95C108.79 97.95 107.21 97.33 106.05 96.11C104.88 94.89 104.3 93.17 104.3 90.96C104.3 88.68 104.89 86.9 106.07 85.64C107.24 84.38 108.77 83.75 110.65 83.75C112.46 83.75 113.95 84.37 115.1 85.6C116.25 86.84 116.82 88.58 116.82 90.82C116.82 90.96 116.82 91.16 116.81 91.43L106.68 91.43C106.77 92.93 107.19 94.07 107.95 94.86C108.71 95.66 109.65 96.05 110.79 96.05C111.63 96.05 112.35 95.83 112.95 95.39C113.55 94.94 114.02 94.24 114.37 93.26L116.75 93.56ZM114.39 89.54C114.29 88.4 114 87.54 113.52 86.97C112.79 86.08 111.84 85.64 110.67 85.64C109.61 85.64 108.72 85.99 108 86.7C107.28 87.41 106.88 88.36 106.81 89.54L114.39 89.54ZM120.16 97.64L120.16 84.05L122.23 84.05L122.23 86.11C122.76 85.15 123.25 84.51 123.7 84.21C124.14 83.9 124.64 83.75 125.17 83.75C125.95 83.75 126.74 83.99 127.54 84.49L126.75 86.62C126.18 86.29 125.62 86.13 125.06 86.13C124.55 86.13 124.1 86.28 123.7 86.58C123.3 86.88 123.02 87.3 122.85 87.84C122.59 88.66 122.46 89.55 122.46 90.53L122.46 97.64L120.16 97.64ZM131.81 93.23C131.94 94.14 132.29 94.84 132.88 95.32C133.46 95.81 134.28 96.05 135.33 96.05C136.38 96.05 137.17 95.84 137.68 95.41C138.19 94.98 138.45 94.47 138.45 93.89C138.45 93.37 138.22 92.96 137.77 92.66C137.46 92.46 136.67 92.2 135.42 91.88C133.73 91.46 132.56 91.09 131.91 90.78C131.25 90.46 130.76 90.03 130.42 89.48C130.08 88.93 129.92 88.33 129.92 87.66C129.92 87.06 130.06 86.49 130.33 85.98C130.61 85.46 130.99 85.03 131.46 84.69C131.82 84.43 132.31 84.21 132.93 84.02C133.55 83.84 134.21 83.75 134.92 83.75C135.98 83.75 136.92 83.9 137.73 84.21C138.53 84.51 139.13 84.93 139.51 85.45C139.89 85.98 140.16 86.68 140.3 87.56L138.05 87.87C137.95 87.17 137.65 86.62 137.16 86.23C136.67 85.84 135.98 85.64 135.08 85.64C134.03 85.64 133.27 85.81 132.82 86.16C132.37 86.51 132.14 86.92 132.14 87.39C132.14 87.69 132.24 87.96 132.42 88.2C132.61 88.45 132.91 88.65 133.31 88.81C133.54 88.9 134.21 89.09 135.34 89.4C136.97 89.84 138.11 90.19 138.75 90.47C139.39 90.75 139.9 91.15 140.27 91.68C140.63 92.21 140.82 92.86 140.82 93.65C140.82 94.42 140.59 95.14 140.14 95.82C139.7 96.49 139.05 97.02 138.21 97.39C137.36 97.76 136.41 97.95 135.34 97.95C133.57 97.95 132.23 97.58 131.3 96.85C130.38 96.11 129.79 95.03 129.53 93.58L131.81 93.23ZM144.61 81.53L144.61 78.89L146.92 78.89L146.92 81.53L144.61 81.53ZM144.61 97.64L144.61 84.05L146.92 84.05L146.92 97.64L144.61 97.64ZM156.8 97.61C156.15 97.75 155.57 97.82 155.06 97.82C154.22 97.82 153.57 97.69 153.11 97.42C152.65 97.16 152.33 96.81 152.14 96.38C151.95 95.95 151.86 95.04 151.86 93.66L151.86 85.84L150.17 85.84L150.17 84.05L151.86 84.05L151.86 80.69L154.15 79.31L154.15 84.05L156.47 84.05L156.47 85.84L154.15 85.84L154.15 93.79C154.15 94.45 154.19 94.87 154.27 95.05C154.35 95.24 154.48 95.39 154.67 95.5C154.85 95.61 155.11 95.67 155.45 95.67C155.71 95.67 156.05 95.64 156.47 95.58L156.8 97.61ZM172.42 93.56C172.04 94.95 171.35 96.03 170.33 96.79C169.32 97.56 168.02 97.95 166.44 97.95C164.46 97.95 162.88 97.33 161.72 96.11C160.55 94.89 159.97 93.17 159.97 90.96C159.97 88.68 160.56 86.9 161.74 85.64C162.91 84.38 164.44 83.75 166.32 83.75C168.13 83.75 169.62 84.37 170.77 85.6C171.92 86.84 172.49 88.58 172.49 90.82C172.49 90.96 172.49 91.16 172.48 91.43L162.35 91.43C162.44 92.93 162.86 94.07 163.62 94.86C164.38 95.66 165.32 96.05 166.46 96.05C167.3 96.05 168.02 95.83 168.62 95.39C169.21 94.94 169.69 94.24 170.04 93.26L172.42 93.56ZM170.06 89.54C169.96 88.4 169.67 87.54 169.19 86.97C168.46 86.08 167.51 85.64 166.34 85.64C165.28 85.64 164.39 85.99 163.67 86.7C162.95 87.41 162.55 88.36 162.48 89.54L170.06 89.54ZM164.97 82.37L166.67 78.78L169.69 78.78L166.88 82.37L164.97 82.37ZM19.65 123.84L19.65 122.12C18.78 123.47 17.52 124.14 15.85 124.14C14.76 124.14 13.77 123.85 12.86 123.25C11.95 122.65 11.25 121.82 10.75 120.75C10.25 119.68 10 118.45 10 117.06C10 115.7 10.23 114.47 10.68 113.37C11.13 112.26 11.81 111.42 12.71 110.83C13.62 110.24 14.63 109.94 15.74 109.94C16.56 109.94 17.29 110.12 17.93 110.46C18.57 110.81 19.09 111.26 19.49 111.81L19.49 105.08L21.78 105.08L21.78 123.84L19.65 123.84ZM13.47 120.96C14.2 121.82 15.07 122.25 16.06 122.25C17.07 122.25 17.92 121.84 18.63 121.02C19.33 120.19 19.68 118.94 19.68 117.25C19.68 115.39 19.33 114.03 18.61 113.16C17.89 112.29 17.01 111.85 15.96 111.85C14.94 111.85 14.08 112.27 13.4 113.1C12.71 113.94 12.37 115.26 12.37 117.06C12.37 118.8 12.73 120.1 13.47 120.96ZM38.52 119.76C38.14 121.15 37.45 122.23 36.43 122.99C35.42 123.76 34.12 124.14 32.54 124.14C30.56 124.14 28.98 123.53 27.82 122.31C26.65 121.08 26.07 119.37 26.07 117.16C26.07 114.87 26.66 113.1 27.84 111.84C29.01 110.58 30.54 109.94 32.42 109.94C34.23 109.94 35.72 110.56 36.87 111.8C38.02 113.04 38.59 114.78 38.59 117.02C38.59 117.16 38.59 117.36 38.58 117.63L28.45 117.63C28.54 119.13 28.96 120.27 29.72 121.06C30.48 121.85 31.42 122.25 32.56 122.25C33.4 122.25 34.12 122.03 34.72 121.59C35.32 121.14 35.79 120.43 36.14 119.46L38.52 119.76ZM36.16 115.74C36.06 114.6 35.77 113.74 35.29 113.17C34.56 112.28 33.61 111.84 32.44 111.84C31.38 111.84 30.49 112.19 29.77 112.9C29.05 113.61 28.65 114.55 28.58 115.74L36.16 115.74ZM49.43 123.84L49.43 105.08L51.97 105.08L61.82 119.81L61.82 105.08L64.2 105.08L64.2 123.84L61.66 123.84L51.81 109.1L51.81 123.84L49.43 123.84ZM80.25 119.76C79.88 121.15 79.18 122.23 78.17 122.99C77.15 123.76 75.85 124.14 74.28 124.14C72.29 124.14 70.71 123.53 69.55 122.31C68.39 121.08 67.8 119.37 67.8 117.16C67.8 114.87 68.39 113.1 69.57 111.84C70.75 110.58 72.27 109.94 74.15 109.94C75.97 109.94 77.45 110.56 78.6 111.8C79.75 113.04 80.33 114.78 80.33 117.02C80.33 117.16 80.32 117.36 80.31 117.63L70.18 117.63C70.27 119.13 70.69 120.27 71.45 121.06C72.21 121.85 73.16 122.25 74.29 122.25C75.13 122.25 75.85 122.03 76.45 121.59C77.05 121.14 77.52 120.43 77.87 119.46L80.25 119.76ZM77.9 115.74C77.79 114.6 77.5 113.74 77.03 113.17C76.29 112.28 75.34 111.84 74.17 111.84C73.12 111.84 72.23 112.19 71.51 112.9C70.79 113.61 70.39 114.55 70.31 115.74L77.9 115.74ZM92.51 123.84L92.51 121.84C91.46 123.38 90.02 124.14 88.2 124.14C87.4 124.14 86.65 123.99 85.96 123.68C85.26 123.38 84.75 122.99 84.41 122.53C84.07 122.06 83.84 121.49 83.7 120.82C83.61 120.37 83.56 119.65 83.56 118.67L83.56 110.25L85.86 110.25L85.86 117.79C85.86 118.99 85.91 119.8 86 120.22C86.15 120.82 86.45 121.3 86.92 121.64C87.39 121.99 87.97 122.16 88.66 122.16C89.35 122.16 90 121.98 90.61 121.63C91.21 121.28 91.64 120.79 91.89 120.18C92.14 119.57 92.27 118.69 92.27 117.53L92.27 110.25L94.57 110.25L94.57 123.84L92.51 123.84ZM110.27 119.15C110.03 120.72 109.39 121.94 108.37 122.82C107.35 123.7 106.1 124.14 104.62 124.14C102.76 124.14 101.27 123.54 100.14 122.32C99.01 121.11 98.44 119.36 98.44 117.1C98.44 115.63 98.68 114.35 99.17 113.25C99.66 112.14 100.4 111.32 101.39 110.77C102.38 110.22 103.46 109.94 104.63 109.94C106.11 109.94 107.31 110.32 108.25 111.06C109.19 111.81 109.79 112.87 110.06 114.24L107.82 114.59C107.6 113.68 107.23 112.99 106.69 112.53C106.14 112.07 105.49 111.84 104.72 111.84C103.56 111.84 102.62 112.25 101.89 113.09C101.17 113.92 100.81 115.23 100.81 117.03C100.81 118.86 101.16 120.18 101.86 121.01C102.56 121.84 103.47 122.25 104.59 122.25C105.5 122.25 106.25 121.97 106.86 121.42C107.46 120.86 107.85 120.01 108.01 118.86L110.27 119.15ZM114.18 123.84L114.18 105.08L116.48 105.08L116.48 111.81C117.56 110.57 118.92 109.94 120.55 109.94C121.56 109.94 122.43 110.14 123.18 110.54C123.92 110.94 124.45 111.48 124.77 112.18C125.09 112.88 125.25 113.9 125.25 115.23L125.25 123.84L122.94 123.84L122.94 115.23C122.94 114.08 122.7 113.24 122.2 112.71C121.7 112.19 120.99 111.93 120.08 111.93C119.4 111.93 118.76 112.1 118.15 112.46C117.55 112.81 117.12 113.29 116.87 113.9C116.61 114.5 116.48 115.34 116.48 116.4L116.48 123.84L114.18 123.84ZM136.12 123.7C135.33 123.99 134.48 124.14 133.58 124.14C132.09 124.14 130.94 123.78 130.14 123.05C129.34 122.32 128.94 121.39 128.94 120.26C128.94 119.59 129.09 118.98 129.39 118.43C129.69 117.88 130.09 117.44 130.58 117.11C131.07 116.78 131.62 116.52 132.24 116.35C132.69 116.23 133.37 116.12 134.28 116.01C136.14 115.79 137.51 115.52 138.39 115.22C138.4 114.9 138.4 114.7 138.4 114.61C138.4 113.68 138.19 113.01 137.75 112.63C137.16 112.11 136.29 111.85 135.13 111.85C134.05 111.85 133.25 112.04 132.73 112.42C132.21 112.8 131.83 113.47 131.59 114.43L129.33 114.13C129.54 113.16 129.88 112.39 130.34 111.79C130.81 111.2 131.49 110.74 132.38 110.42C133.27 110.1 134.29 109.94 135.46 109.94C136.62 109.94 137.56 110.08 138.29 110.35C139.01 110.63 139.55 110.97 139.89 111.38C140.23 111.8 140.47 112.32 140.6 112.95C140.68 113.34 140.72 114.05 140.72 115.07L140.72 118.14C140.72 120.28 140.77 121.64 140.87 122.21C140.96 122.77 141.16 123.32 141.45 123.84L139.04 123.84C138.8 123.36 138.65 122.8 138.58 122.16C137.73 122.89 136.91 123.4 136.12 123.7ZM138.39 117.02C137.55 117.36 136.3 117.65 134.63 117.89C133.68 118.03 133.01 118.18 132.62 118.35C132.23 118.52 131.93 118.77 131.71 119.1C131.5 119.43 131.39 119.79 131.39 120.19C131.39 120.81 131.63 121.32 132.09 121.73C132.56 122.14 133.24 122.34 134.13 122.34C135.02 122.34 135.81 122.15 136.5 121.76C137.19 121.37 137.7 120.84 138.02 120.17C138.27 119.65 138.39 118.88 138.39 117.86L138.39 117.02ZM135.26 106.39L133.81 108.56L131.18 108.56L133.94 104.98L136.4 104.98L139.27 108.56L136.66 108.56L135.26 106.39ZM150.12 123.81C149.47 123.95 148.89 124.02 148.38 124.02C147.54 124.02 146.89 123.88 146.43 123.62C145.97 123.35 145.65 123.01 145.46 122.58C145.27 122.15 145.18 121.24 145.18 119.86L145.18 112.04L143.49 112.04L143.49 110.25L145.18 110.25L145.18 106.89L147.47 105.51L147.47 110.25L149.78 110.25L149.78 112.04L147.47 112.04L147.47 119.99C147.47 120.64 147.51 121.07 147.59 121.25C147.67 121.44 147.8 121.59 147.99 121.7C148.17 121.81 148.43 121.87 148.77 121.87C149.03 121.87 149.36 121.84 149.78 121.78L150.12 123.81ZM165.66 119.76C165.28 121.15 164.59 122.23 163.57 122.99C162.56 123.76 161.26 124.14 159.68 124.14C157.7 124.14 156.12 123.53 154.96 122.31C153.79 121.08 153.21 119.37 153.21 117.16C153.21 114.87 153.8 113.1 154.97 111.84C156.15 110.58 157.68 109.94 159.55 109.94C161.37 109.94 162.85 110.56 164.01 111.8C165.16 113.04 165.73 114.78 165.73 117.02C165.73 117.16 165.73 117.36 165.72 117.63L155.59 117.63C155.67 119.13 156.1 120.27 156.86 121.06C157.61 121.85 158.56 122.25 159.69 122.25C160.54 122.25 161.26 122.03 161.86 121.59C162.45 121.14 162.93 120.43 163.28 119.46L165.66 119.76ZM163.3 115.74C163.2 114.6 162.91 113.74 162.43 113.17C161.7 112.28 160.75 111.84 159.58 111.84C158.52 111.84 157.63 112.19 156.91 112.9C156.19 113.61 155.79 114.55 155.72 115.74L163.3 115.74ZM168.96 123.84L168.96 105.08L171.27 105.08L171.27 123.84L168.96 123.84Z" />
		</g>
	</g>
</svg>